<?xml version="1.0" standalone="no"?><!-- Generator: Gravit.io --><svg xmlns="http://www.w3.org/2000/svg" xmlns:xlink="http://www.w3.org/1999/xlink" style="isolation:isolate" viewBox="0 0 512 512"><defs><clipPath id="_clipPath_hQjIwghkOjG2E7ObyMlyx424Ds21AaUw"><rect width="512" height="512"/></clipPath></defs><g clip-path="url(#_clipPath_hQjIwghkOjG2E7ObyMlyx424Ds21AaUw)"><path d=" M 512.006 254.69 C 512.006 336.387 473.733 409.146 414.143 456.012 C 370.608 490.254 315.691 510.684 256.001 510.684 C 196.322 510.684 141.405 490.254 97.87 456.012 C 38.279 409.157 0.006 336.398 0.006 254.69 C 0.006 113.302 114.624 -1.304 256 -1.304 C 397.388 -1.304 512.006 113.302 512.006 254.69 Z " fill="rgb(182,147,206)"/><path d=" M 415.906 408.191 C 310.796 392.543 204.934 432.035 98.322 417.878 C 83.306 415.643 73.546 408.191 76.549 402.23 C 97.571 356.031 120.845 304.615 147.124 245.748 C 150.877 237.552 160.638 232.336 168.896 233.826 C 227.458 243.513 286.02 216.687 343.83 227.119 C 351.339 228.609 361.098 237.551 364.853 245.748 C 391.13 303.87 415.156 356.031 435.427 402.23 C 438.43 408.191 429.421 409.682 415.906 408.191 Z " fill="rgb(243,243,243)"/><path d=" M 111.836 404.465 C 127.603 359.756 145.622 310.576 165.893 254.69 C 225.956 262.887 286.77 237.552 346.834 246.494 C 367.105 300.89 385.875 349.324 402.392 393.288 C 305.54 381.365 208.688 415.643 111.836 404.465 Z " fill="rgb(255,255,255)"/><path d=" M 262.745 245.003 L 246.227 245.003 C 250.732 260.651 265.748 294.183 325.06 319.518 C 314.55 332.186 301.786 344.854 288.271 357.521 C 229.71 347.834 181.659 339.637 141.116 314.302 C 136.611 318.027 132.107 321.008 126.851 323.989 C 168.895 350.069 217.697 359.011 275.507 367.953 C 261.993 379.875 246.978 391.797 230.46 403.72 L 255.987 403.72 C 292.025 377.64 321.306 350.814 343.079 326.969 C 356.593 332.186 373.111 338.146 390.379 345.598 L 391.88 335.911 C 302.537 302.38 272.506 265.122 262.745 245.003 Z " fill="rgb(243,243,243)"/><path d=" M 377.616 328.46 C 367.856 302.38 357.345 275.555 346.834 246.494 C 319.805 242.768 292.777 245.748 264.997 249.475 C 276.259 272.574 304.789 299.399 377.616 328.46 Z " fill="rgb(65,90,107)"/><path d=" M 288.272 357.521 C 302.537 344.854 314.55 331.441 325.061 319.518 C 273.257 297.164 255.989 270.338 248.48 251.709 C 220.701 255.435 193.672 258.416 165.894 254.69 C 158.385 276.299 150.878 296.418 143.37 315.793 C 183.161 339.637 231.212 347.834 288.272 357.521 Z " fill="rgb(255,209,92)"/><g id="组"><path d=" M 343.079 326.97 C 322.808 349.324 296.531 373.169 264.246 397.759 C 310.045 392.543 357.345 387.327 402.392 393.288 C 396.386 376.895 389.629 360.502 383.622 342.618 C 368.607 336.656 355.092 332.186 343.079 326.97 Z " fill="rgb(102,198,185)"/><path d=" M 275.509 368.698 C 222.203 360.502 177.155 353.05 138.114 331.441 C 128.354 357.521 120.095 382.111 111.837 405.211 C 153.13 409.682 193.673 406.701 234.216 402.23 C 249.231 390.307 262.745 379.875 275.509 368.698 Z " fill="rgb(102,198,185)"/></g><path d=" M 334.022 240.532 L 259.694 314.302 L 185.365 240.532 C 144.072 199.549 144.072 133.976 185.365 93.738 C 226.659 52.754 292.728 52.754 333.271 93.738 C 374.565 133.976 374.565 200.294 334.022 240.532 Z " fill="rgb(243,112,90)"/><path d=" M 190.293 167.508 C 190.293 129.672 221.243 98.954 259.365 98.954 C 297.488 98.954 328.438 129.672 328.438 167.508 C 328.438 205.343 297.488 236.061 259.365 236.061 C 221.243 236.061 190.293 205.343 190.293 167.508 Z " fill="rgb(255,255,255)"/><path d=" M 209.813 154.095 C 209.813 185.391 259.365 215.197 259.365 215.197 C 259.365 215.197 308.918 185.391 308.918 154.095 C 308.918 139.937 297.656 128.759 283.39 128.759 C 272.88 128.759 263.87 135.466 259.365 144.408 C 255.612 135.466 246.602 128.759 235.34 128.759 C 221.075 128.759 209.813 139.937 209.813 154.095 Z " fill="rgb(243,112,90)"/><path d=" M 298.703 151.535 C 297.093 153.415 292.71 152.347 288.921 149.151 C 285.132 145.955 283.363 141.834 284.973 139.954 C 286.583 138.073 290.966 139.142 294.755 142.338 C 298.544 145.534 300.313 149.655 298.703 151.535 Z " fill="rgb(255,255,255)"/></g></svg>