<?xml version="1.0" standalone="no"?><!-- Generator: Gravit.io --><svg xmlns="http://www.w3.org/2000/svg" xmlns:xlink="http://www.w3.org/1999/xlink" style="isolation:isolate" viewBox="0 0 512 512"><defs><clipPath id="_clipPath_hvQD0VHNm8W8b2tNmCdnFqN60A7seeQi"><rect width="512" height="512"/></clipPath></defs><g clip-path="url(#_clipPath_hvQD0VHNm8W8b2tNmCdnFqN60A7seeQi)"><path d=" M 512 256 C 512 337.697 473.727 410.456 414.137 457.322 C 370.602 491.564 315.685 511.994 255.995 511.994 C 196.316 511.994 141.399 491.564 97.864 457.322 C 38.273 410.467 0 337.708 0 256 C 0 114.612 114.618 0.006 255.994 0.006 C 397.382 0.006 512 114.612 512 256 Z " fill="rgb(0,150,136)"/><g id="books"><g id="组"><g id="组"><path d=" M 404.049 412.975 L 145.215 412.752 C 117.387 412.728 94.847 390.468 94.871 363.032 L 94.879 353.505 C 94.903 326.069 117.481 303.848 145.308 303.872 L 404.143 304.095 L 404.049 412.975 Z " fill="rgb(255,235,183)"/></g><g id="组"><rect x="105.919" y="314.738" width="27.609" height="87.104" transform="matrix(1,0.001,-0.001,1,0.309,-0.103)" fill="rgb(92,84,106)"/></g><g id="组"><path d=" M 377.928 287.741 L 83.892 287.487 L 83.958 211.271 L 377.994 211.525 C 386.38 211.532 393.173 218.241 393.166 226.509 L 393.126 272.783 C 393.119 281.051 386.314 287.748 377.928 287.741 Z " fill="rgb(255,235,183)"/></g><g id="组"><rect x="122.66" y="113.434" width="281.612" height="81.66" transform="matrix(1,0.001,-0.001,1,0.133,-0.227)" fill="rgb(255,235,183)"/></g><g id="组"><path d=" M 404.191 423.863 L 150.188 423.644 C 113.652 423.613 83.952 394.283 83.983 358.259 C 84.014 322.235 113.764 292.957 150.3 292.988 L 404.303 293.207 C 410.402 293.213 415.343 298.092 415.337 304.105 C 415.332 310.118 410.383 314.989 404.284 314.983 L 150.282 314.764 C 125.924 314.743 106.09 334.264 106.07 358.278 C 106.049 382.292 125.849 401.847 150.207 401.868 L 404.209 402.087 C 410.308 402.092 415.249 406.972 415.244 412.985 C 415.238 418.998 410.289 423.868 404.191 423.863 Z " fill="rgb(0,195,122)"/></g><g id="组"><g id="组"><path d=" M 371.172 293.179 L 78.517 292.927 C 75.465 292.924 72.997 290.487 73 287.478 C 73.003 284.469 75.474 282.036 78.526 282.039 L 371.182 282.291 C 380.316 282.299 387.754 274.979 387.761 265.973 L 387.789 233.309 C 387.797 224.304 380.373 216.971 371.238 216.963 L 78.583 216.711 C 75.531 216.708 73.063 214.271 73.066 211.262 C 73.068 208.253 75.54 205.82 78.592 205.823 L 371.248 206.075 C 386.47 206.088 398.846 218.31 398.833 233.319 L 398.805 265.983 C 398.792 280.991 386.395 293.192 371.172 293.179 Z " fill="rgb(0,155,202)"/></g></g><g id="组"><path d=" M 404.283 140.776 L 150.281 140.557 C 147.231 140.554 144.761 138.114 144.764 135.108 L 144.764 135.108 C 144.766 132.101 147.241 129.666 150.29 129.669 L 404.293 129.888 L 404.283 140.776 Z " fill="rgb(230,190,148)"/></g><g id="组"><path d=" M 404.265 162.551 L 150.262 162.333 C 147.213 162.33 144.742 159.89 144.745 156.884 L 144.745 156.884 C 144.747 153.877 147.222 151.442 150.271 151.445 L 404.274 151.664 L 404.265 162.551 Z " fill="rgb(230,190,148)"/></g><g id="组"><path d=" M 404.246 184.327 L 150.243 184.109 C 147.194 184.106 144.723 181.666 144.726 178.66 L 144.726 178.66 C 144.729 175.653 147.203 173.218 150.253 173.221 L 404.255 173.439 L 404.246 184.327 Z " fill="rgb(230,190,148)"/></g><g id="组"><path d=" M 83.944 227.603 L 371.078 227.851 C 374.127 227.853 376.597 230.293 376.595 233.3 L 376.595 233.3 C 376.592 236.306 374.118 238.741 371.068 238.739 L 83.935 238.491 C 83.935 238.491 83.944 227.603 83.944 227.603 Z " fill="rgb(230,190,148)"/></g><g id="组"><path d=" M 83.925 249.379 L 371.059 249.627 C 374.108 249.629 376.579 252.069 376.576 255.076 L 376.576 255.076 C 376.573 258.082 374.099 260.517 371.049 260.515 L 83.916 260.267 C 83.916 260.267 83.925 249.379 83.925 249.379 Z " fill="rgb(230,190,148)"/></g><g id="组"><path d=" M 83.907 271.155 L 371.04 271.403 C 374.089 271.405 376.56 273.845 376.557 276.852 L 376.557 276.852 C 376.555 279.858 374.08 282.293 371.031 282.291 L 83.897 282.043 C 83.897 282.043 83.907 271.155 83.907 271.155 Z " fill="rgb(230,190,148)"/></g><g id="组"><path d=" M 409.9 206.108 L 144.854 205.88 C 126.584 205.864 111.736 191.199 111.751 173.187 L 111.789 129.635 C 111.804 111.623 126.678 96.984 144.948 97 L 409.994 97.228 C 416.093 97.234 421.033 102.113 421.028 108.126 C 421.023 114.139 416.074 119.01 409.975 119.004 L 144.929 118.776 C 138.838 118.771 133.881 123.65 133.876 129.654 L 133.838 173.206 C 133.833 179.208 138.782 184.099 144.873 184.104 L 409.919 184.332 C 416.018 184.338 420.958 189.217 420.953 195.23 C 420.948 201.243 415.999 206.114 409.9 206.108 Z " fill="rgb(255,79,25)"/></g><g id="组"><path d=" M 150.065 390.98 C 147.013 390.978 144.541 393.41 144.538 396.419 C 144.536 399.429 147.003 401.866 150.055 401.868 L 404.058 402.087 L 404.068 391.199 L 150.065 390.98 Z " fill="rgb(230,190,148)"/></g><g id="组"><path d=" M 150.084 369.204 C 147.031 369.202 144.56 371.634 144.557 374.643 C 144.555 377.653 147.022 380.09 150.074 380.092 L 404.077 380.311 L 404.086 369.423 L 150.084 369.204 Z " fill="rgb(230,190,148)"/></g><g id="组"><path d=" M 150.102 347.428 C 147.05 347.426 144.579 349.858 144.576 352.867 C 144.573 355.877 147.041 358.314 150.093 358.316 L 404.096 358.535 L 404.105 347.647 L 150.102 347.428 Z " fill="rgb(230,190,148)"/></g><g id="组"><path d=" M 150.121 325.652 C 147.069 325.65 144.597 328.082 144.595 331.092 C 144.592 334.101 147.06 336.538 150.112 336.54 L 404.115 336.759 L 404.124 325.871 L 150.121 325.652 Z " fill="rgb(230,190,148)"/></g></g></g></g></svg>