<?xml version="1.0" encoding="iso-8859-1"?>
<!-- Generator: Adobe Illustrator 19.0.0, SVG Export Plug-In . SVG Version: 6.00 Build 0)  -->
<svg version="1.1" id="Capa_1" xmlns="http://www.w3.org/2000/svg" xmlns:xlink="http://www.w3.org/1999/xlink" x="0px" y="0px"
	viewBox="0 0 512 512" style="enable-background:new 0 0 512 512;" xml:space="preserve">
	<path  class="settingrun"  style="fill:#E6595A;" d="M504.646,240.237l-53.383-44.765c-10.181-8.537-15.553-21.507-14.391-34.743l6.093-69.401
		c1.119-12.746-9.546-23.411-22.292-22.292l-69.401,6.093c-13.236,1.163-26.206-4.21-34.743-14.391L271.763,7.353
		c-8.222-9.804-23.304-9.804-31.526,0l-44.765,53.383c-8.537,10.181-21.508,15.553-34.743,14.391l-69.401-6.093
		c-12.746-1.119-23.411,9.546-22.292,22.292l6.093,69.401c1.162,13.236-4.21,26.206-14.391,34.743L7.353,240.237
		c-9.804,8.222-9.804,23.304,0,31.526l53.383,44.765c10.181,8.537,15.553,21.507,14.391,34.743l-6.093,69.401
		c-1.119,12.746,9.546,23.411,22.292,22.292l69.401-6.093c13.236-1.163,26.206,4.21,34.743,14.391l44.765,53.383
		c8.222,9.804,23.304,9.804,31.526,0l44.765-53.383c8.537-10.181,21.507-15.553,34.743-14.391l69.401,6.093
		c12.746,1.119,23.411-9.546,22.292-22.292l-6.093-69.401c-1.163-13.236,4.21-26.206,14.392-34.743l53.383-44.765
		C514.451,263.541,514.451,248.459,504.646,240.237z">
		<animateTransform attributeName="transform"
			attributeType="XML"
			type="rotate"
			from="0 256 256"
			to="360 256 256"
			dur="10s"
			repeatCount="indefinite"/>
		</path>
		<circle style="opacity:0.1;enable-background:new    ;" cx="243.918" cy="268.092" r="149.977"/>
		<circle style="fill:#F3C74F;" cx="256" cy="255.999" r="149.522"/>
		<g>
			<path style="fill:#394049;" d="M164.694,255.27c-4.492,0-8.134-3.642-8.134-8.134v-4.285c0-4.492,3.642-8.134,8.134-8.134
				c4.492,0,8.134,3.642,8.134,8.134v4.285C172.828,251.628,169.186,255.27,164.694,255.27z"/>
				<path style="fill:#394049;" d="M347.305,255.27c-4.492,0-8.134-3.642-8.134-8.134v-4.285c0-4.492,3.642-8.134,8.134-8.134
					c4.492,0,8.134,3.642,8.134,8.134v4.285C355.439,251.628,351.797,255.27,347.305,255.27z"/>
					<path class="mouth" style="fill:#394049;" d="M271.332,277.282c-5.855,0-11.217-2.156-15.333-5.715c-4.116,3.559-9.478,5.715-15.333,5.715
						c-12.939,0-23.466-10.526-23.466-23.466c0-4.492,3.642-8.134,8.134-8.134s8.134,3.642,8.134,8.134c0,3.969,3.23,7.198,7.198,7.198
						c3.969,0,7.199-3.229,7.199-7.198c0-4.492,3.642-8.134,8.134-8.134c4.492,0,8.134,3.642,8.134,8.134
						c0,3.969,3.23,7.198,7.199,7.198s7.198-3.229,7.198-7.198c0-4.492,3.642-8.134,8.134-8.134s8.134,3.642,8.134,8.134
						C294.798,266.756,284.272,277.282,271.332,277.282z">
								<animateTransform attributeName="transform"
									attributeType="XML"
									type="translate"
									values="0 40;0 10;0 40"
									dur="1s"
									repeatCount="indefinite" additive="sum" fill="freeze"/>

								</path>
							</g>
							<g>
								<path style="fill:#E6595A;" d="M177.761,286.033h-26.131c-4.492,0-8.134-3.642-8.134-8.134s3.642-8.134,8.134-8.134h26.131
									c4.492,0,8.134,3.642,8.134,8.134S182.253,286.033,177.761,286.033z"/>
									<path style="fill:#E6595A;" d="M360.371,286.033H334.24c-4.492,0-8.134-3.642-8.134-8.134s3.642-8.134,8.134-8.134h26.131
										c4.492,0,8.134,3.642,8.134,8.134S364.863,286.033,360.371,286.033z"/>
									</g>

								</svg>
