<svg xmlns="http://www.w3.org/2000/svg" style="isolation:isolate" viewBox="0 0 512 512" width="512" height="512"><defs><clipPath id="a"><path d="M0 0h512v512H0z"/></clipPath></defs><g clip-path="url(#a)"><path d="M81.745 275.314l161.125 161.14c2.5 2.5 5.9 3.913 9.44 3.913h172.566c11.893 0 17.854-14.377 9.44-22.776a1252390.875 1252390.875 0 0 0-161.513-161.606s112.25-112.251 161.513-161.576c8.415-8.399 2.453-22.776-9.44-22.776H252.309c-3.54 0-6.94 1.413-9.44 3.912l-73.126 73.126-87.999 87.984c-10.665 10.682-10.665 27.977.001 38.659z" fill="#FFCE00"/><path d="M81.745 275.314l161.125 161.14c2.5 2.5 5.9 3.913 9.44 3.913h71.65c11.893 0 17.854-14.377 9.44-22.776a1252390.875 1252390.875 0 0 0-161.513-161.606S284.137 143.734 333.4 94.409c8.415-8.399 2.453-22.776-9.44-22.776h-71.651c-3.54 0-6.94 1.413-9.44 3.912L81.744 236.654c-10.665 10.683-10.665 27.978.001 38.66z" fill="#FFA81E"/><path d="M124.793 275.314l161.125 161.14c2.5 2.5 5.9 3.913 9.44 3.913h41.981c-3.54 0-6.94-1.413-9.44-3.913L162.116 270.656c-10.666-10.682-10.666-18.662 0-29.343L327.899 75.546c2.5-2.5 5.9-3.912 9.44-3.912h-41.981c-3.54 0-6.94 1.413-9.44 3.912L124.793 236.655c-10.666 10.682-10.666 27.977 0 38.659z" fill="#F90"/></g></svg>