<svg xmlns="http://www.w3.org/2000/svg" style="isolation:isolate" viewBox="0 0 512 512" width="512" height="512"><defs><clipPath id="a"><path d="M0 0h512v512H0z"/></clipPath></defs><g clip-path="url(#a)"><path d="M430.255 275.314L269.13 436.454c-2.5 2.5-5.9 3.913-9.44 3.913H87.124c-11.893 0-17.854-14.377-9.44-22.776 49.278-49.325 161.513-161.606 161.513-161.606S126.947 143.734 77.684 94.409c-8.415-8.399-2.453-22.776 9.44-22.776h172.567c3.54 0 6.94 1.413 9.44 3.912l73.126 73.126 87.999 87.984c10.665 10.682 10.665 27.977-.001 38.659z" fill="#FFCE00"/><path d="M329.339 275.314l-161.125 161.14c-2.5 2.5-5.9 3.913-9.44 3.913h-71.65c-11.893 0-17.854-14.377-9.44-22.776 49.278-49.325 161.513-161.606 161.513-161.606S126.947 143.734 77.684 94.409c-8.415-8.399-2.453-22.776 9.44-22.776h71.651c3.54 0 6.94 1.413 9.44 3.912L329.34 236.654c10.665 10.683 10.665 27.978-.001 38.66z" fill="#FFA81E"/><path d="M329.339 275.314l-161.125 161.14c-2.5 2.5-5.9 3.913-9.44 3.913h-41.981c3.54 0 6.94-1.413 9.44-3.913l165.783-165.798c10.666-10.682 10.666-18.662 0-29.343L126.233 75.546c-2.5-2.5-5.9-3.912-9.44-3.912h41.981c3.54 0 6.94 1.413 9.44 3.912l161.125 161.109c10.666 10.682 10.666 27.977 0 38.659z" fill="#F90"/></g></svg>