<?xml version="1.0" standalone="no"?><!-- Generator: Gravit.io --><svg xmlns="http://www.w3.org/2000/svg" xmlns:xlink="http://www.w3.org/1999/xlink" style="isolation:isolate" viewBox="0 0 450 41.657" width="450" height="41.657"><defs><clipPath id="_clipPath_vKdXMKeJI4Un0XT5hhDBGfwlkw3gzjlj"><rect width="450" height="41.657"/></clipPath></defs><g clip-path="url(#_clipPath_vKdXMKeJI4Un0XT5hhDBGfwlkw3gzjlj)"><g id="组"><g id="组"><path d=" M 304.062 30.42 L 307.663 30.81 L 307.663 32.98 Q 306.361 33.24 305.363 33.327 Q 304.365 33.414 303.454 33.414 Q 302.196 33.414 301.176 33.262 Q 300.156 33.11 299.375 32.719 Q 298.594 32.329 298.073 31.613 Q 297.553 30.897 297.336 29.769 L 296.207 23.997 Q 295.773 21.871 294.689 21.047 Q 293.604 20.222 291.434 20.222 L 290.089 20.222 L 290.089 25.321 Q 290.089 27.859 290.176 30.42 L 293.777 30.81 L 293.777 32.98 L 280.239 32.98 L 280.239 30.81 L 283.754 30.42 Q 283.84 27.729 283.84 25.017 L 283.84 12.563 Q 283.84 9.851 283.754 7.117 L 280.239 6.727 L 280.239 4.557 L 293.777 4.557 Q 298.681 4.557 301.393 6.466 Q 304.105 8.376 304.105 11.717 Q 304.105 12.758 303.779 13.865 Q 303.454 14.972 302.695 15.991 Q 301.935 17.011 300.699 17.814 Q 299.462 18.617 297.639 19.094 Q 299.722 19.701 301.067 21.112 Q 302.413 22.522 302.89 24.865 L 304.062 30.42 L 304.062 30.42 Z  M 290.089 17.835 L 291.998 17.835 Q 293.647 17.835 294.797 17.38 Q 295.947 16.924 296.663 16.165 Q 297.379 15.405 297.704 14.364 Q 298.03 13.323 298.03 12.151 Q 298.03 9.547 296.598 8.246 Q 295.166 6.944 291.998 6.944 L 290.176 6.944 Q 290.089 9.634 290.089 12.346 L 290.089 17.835 L 290.089 17.835 Z " fill-rule="evenodd" fill="rgb(48,90,86)"/><path d=" M 330.575 30.55 L 333.092 31.07 L 333.092 32.98 L 325.107 33.414 L 324.803 29.812 Q 323.155 31.678 321.375 32.654 Q 319.596 33.631 317.513 33.631 Q 316.125 33.631 315.018 33.218 Q 313.912 32.806 313.109 31.873 Q 312.306 30.94 311.872 29.465 Q 311.438 27.989 311.482 25.82 L 311.655 14.755 L 309.269 14.321 L 309.269 12.585 L 317.079 11.804 L 317.6 12.151 L 317.383 18.313 L 317.383 24.995 Q 317.383 27.859 318.121 28.966 Q 318.859 30.072 320.03 30.072 Q 321.158 30.072 322.352 29.335 Q 323.545 28.597 324.673 27.512 L 324.847 14.755 L 322.46 14.321 L 322.46 12.672 L 330.184 11.804 L 330.705 12.151 L 330.575 18.313 L 330.575 30.55 L 330.575 30.55 Z " fill="rgb(48,90,86)"/><path d=" M 343.983 8.246 L 343.983 14.017 Q 345.285 12.758 346.76 12.064 Q 348.236 11.37 350.188 11.37 Q 352.011 11.37 353.595 12.064 Q 355.179 12.758 356.329 14.147 Q 357.479 15.536 358.129 17.597 Q 358.78 19.658 358.78 22.392 Q 358.78 24.995 358.064 27.078 Q 357.348 29.161 356.09 30.615 Q 354.832 32.068 353.161 32.85 Q 351.49 33.631 349.538 33.631 Q 347.628 33.631 346.218 33.001 Q 344.808 32.372 343.636 31.114 L 343.506 31.114 L 343.246 33.631 L 335.522 32.98 L 335.522 31.07 L 338.169 30.55 Q 338.212 28.901 338.212 27.078 L 338.212 5.816 L 334.957 5.425 L 334.957 3.689 L 343.549 1.737 L 344.157 2.084 L 343.983 8.246 Z  M 344.113 16.187 L 344.113 28.944 Q 344.981 29.552 345.893 29.92 Q 346.804 30.289 347.715 30.289 Q 349.711 30.289 351.1 28.402 Q 352.488 26.514 352.488 22.522 Q 352.488 18.53 351.295 16.642 Q 350.102 14.755 348.019 14.755 Q 347.021 14.755 346.044 15.145 Q 345.068 15.536 344.113 16.187 L 344.113 16.187 Z " fill-rule="evenodd" fill="rgb(48,90,86)"/><path d=" M 382.603 12.151 L 382.603 14.06 L 379.826 14.538 L 372.84 33.544 Q 371.191 38.057 369.412 40.291 Q 367.633 42.526 364.812 42.526 Q 363.944 42.526 363.141 42.331 Q 362.339 42.136 361.731 41.745 Q 361.124 41.355 360.755 40.79 Q 360.386 40.226 360.386 39.489 Q 360.733 38.36 361.471 37.905 Q 362.208 37.449 363.293 37.449 Q 364.031 37.449 364.79 37.71 Q 365.55 37.97 366.418 38.751 L 367.155 39.402 Q 368.066 38.577 368.826 37.449 Q 369.585 36.321 370.28 34.715 L 362.122 14.581 L 359.648 14.06 L 359.648 12.151 L 371.495 12.151 L 371.495 14.06 L 368.457 14.668 L 373.013 27.122 L 377.439 14.581 L 374.662 14.06 L 374.662 12.151 L 382.603 12.151 L 382.603 12.151 Z " fill="rgb(48,90,86)"/><path d=" M 220.226 4.557 L 233.851 4.557 Q 238.972 4.557 241.358 6.51 Q 243.745 8.463 243.745 11.674 Q 243.745 12.715 243.485 13.691 Q 243.224 14.668 242.595 15.492 Q 241.966 16.317 240.968 16.924 Q 239.97 17.532 238.538 17.922 Q 240.447 18.269 241.749 18.942 Q 243.051 19.615 243.854 20.526 Q 244.656 21.437 245.003 22.565 Q 245.351 23.694 245.351 24.909 Q 245.351 26.384 244.808 27.816 Q 244.266 29.248 242.769 30.398 Q 241.272 31.548 238.625 32.264 Q 235.978 32.98 231.769 32.98 L 220.226 32.98 L 220.226 30.81 L 223.741 30.42 Q 223.828 27.729 223.828 25.017 L 223.828 12.563 Q 223.828 9.851 223.741 7.117 L 220.226 6.727 L 220.226 4.557 L 220.226 4.557 Z  M 230.25 30.593 L 231.552 30.593 Q 233.808 30.593 235.283 30.203 Q 236.759 29.812 237.583 29.053 Q 238.408 28.293 238.733 27.23 Q 239.059 26.167 239.059 24.822 Q 239.059 21.828 237.453 20.504 Q 235.847 19.181 231.899 19.181 L 230.163 19.181 L 230.163 25.039 Q 230.163 27.859 230.25 30.593 L 230.25 30.593 Z  M 232.376 6.944 L 230.25 6.944 Q 230.163 9.417 230.163 11.891 L 230.163 16.881 L 231.769 16.881 Q 234.893 16.881 236.325 15.601 Q 237.757 14.321 237.757 11.847 Q 237.757 9.374 236.477 8.159 Q 235.197 6.944 232.376 6.944 L 232.376 6.944 Z " fill-rule="evenodd" fill="rgb(48,90,86)"/><path d=" M 268.956 12.151 L 268.956 14.06 L 266.179 14.538 L 259.193 33.544 Q 257.544 38.057 255.765 40.291 Q 253.986 42.526 251.165 42.526 Q 250.297 42.526 249.495 42.331 Q 248.692 42.136 248.084 41.745 Q 247.477 41.355 247.108 40.79 Q 246.739 40.226 246.739 39.489 Q 247.086 38.36 247.824 37.905 Q 248.562 37.449 249.647 37.449 Q 250.384 37.449 251.144 37.71 Q 251.903 37.97 252.771 38.751 L 253.508 39.402 Q 254.42 38.577 255.179 37.449 Q 255.939 36.321 256.633 34.715 L 248.475 14.581 L 246.001 14.06 L 246.001 12.151 L 257.848 12.151 L 257.848 14.06 L 254.81 14.668 L 259.367 27.122 L 263.793 14.581 L 261.016 14.06 L 261.016 12.151 L 268.956 12.151 L 268.956 12.151 Z " fill="rgb(48,90,86)"/><path d=" M 25 4.557 L 38.105 4.557 Q 41.273 4.557 43.898 5.468 Q 46.523 6.38 48.411 8.181 Q 50.298 9.981 51.318 12.585 Q 52.338 15.189 52.338 18.573 Q 52.338 22.088 51.21 24.778 Q 50.081 27.469 48.064 29.291 Q 46.046 31.114 43.269 32.047 Q 40.491 32.98 37.237 32.98 L 25 32.98 L 25 30.81 L 28.515 30.42 Q 28.602 27.729 28.602 24.93 L 28.602 12.563 Q 28.602 9.851 28.515 7.117 L 25 6.727 L 25 4.557 L 25 4.557 Z  M 35.024 30.593 L 36.586 30.593 Q 38.626 30.593 40.318 29.812 Q 42.01 29.031 43.204 27.534 Q 44.397 26.037 45.048 23.824 Q 45.699 21.611 45.699 18.747 Q 45.699 15.883 45.048 13.67 Q 44.397 11.457 43.182 9.96 Q 41.967 8.463 40.296 7.703 Q 38.626 6.944 36.543 6.944 L 35.024 6.944 Q 34.937 9.678 34.937 12.433 L 34.937 24.974 Q 34.937 27.816 35.024 30.593 L 35.024 30.593 Z  M 74.772 22.782 L 61.45 22.782 Q 61.581 26.644 63.338 28.445 Q 65.095 30.246 67.742 30.246 Q 69.652 30.246 70.888 29.4 Q 72.125 28.554 73.123 26.991 L 74.598 27.816 Q 73.731 30.68 71.344 32.155 Q 68.957 33.631 65.659 33.631 Q 63.316 33.631 61.364 32.893 Q 59.411 32.155 58.044 30.745 Q 56.677 29.335 55.918 27.274 Q 55.158 25.212 55.158 22.565 Q 55.158 20.092 55.983 18.052 Q 56.807 16.013 58.261 14.516 Q 59.715 13.019 61.711 12.194 Q 63.707 11.37 66.007 11.37 Q 68.09 11.37 69.76 12.043 Q 71.431 12.715 72.602 13.93 Q 73.774 15.145 74.403 16.837 Q 75.032 18.53 75.032 20.526 Q 75.032 21.741 74.772 22.782 L 74.772 22.782 Z  M 61.494 20.613 L 66.701 20.613 Q 68.263 20.613 68.849 19.962 Q 69.435 19.311 69.435 17.922 Q 69.435 15.839 68.567 14.689 Q 67.699 13.54 66.31 13.54 Q 65.573 13.54 64.792 13.887 Q 64.011 14.234 63.338 15.058 Q 62.665 15.883 62.166 17.25 Q 61.667 18.617 61.494 20.613 Z " fill-rule="evenodd" fill="rgb(48,90,86)"/><path d=" M 87.964 19.615 L 89.439 20.135 Q 91.131 20.743 92.259 21.459 Q 93.388 22.175 94.039 22.999 Q 94.69 23.824 94.95 24.757 Q 95.21 25.69 95.21 26.731 Q 95.21 28.293 94.559 29.552 Q 93.908 30.81 92.693 31.721 Q 91.478 32.633 89.786 33.132 Q 88.094 33.631 85.967 33.631 Q 83.711 33.631 81.997 33.11 Q 80.283 32.589 78.46 31.548 L 78.46 26.558 L 81.802 26.558 L 82.366 30.333 Q 83.364 30.897 84.21 31.135 Q 85.056 31.374 85.967 31.374 Q 88.05 31.374 89.027 30.68 Q 90.003 29.986 90.003 28.554 Q 90.003 27.946 89.808 27.49 Q 89.613 27.035 89.135 26.644 Q 88.658 26.254 87.855 25.863 Q 87.052 25.473 85.794 24.995 L 83.798 24.214 Q 81.194 23.216 79.871 21.632 Q 78.547 20.049 78.547 17.749 Q 78.547 14.885 80.739 13.127 Q 82.93 11.37 87.399 11.37 Q 89.352 11.37 90.871 11.804 Q 92.39 12.238 93.995 13.019 L 93.735 17.792 L 90.437 17.792 L 89.786 14.19 Q 89.222 13.974 88.614 13.8 Q 88.007 13.626 87.139 13.626 Q 85.577 13.626 84.622 14.342 Q 83.668 15.058 83.668 16.317 Q 83.668 16.794 83.841 17.206 Q 84.015 17.619 84.492 18.009 Q 84.969 18.4 85.816 18.79 Q 86.662 19.181 87.964 19.615 Z  M 103.845 7.768 Q 102.37 7.768 101.307 6.792 Q 100.244 5.816 100.244 4.297 Q 100.244 2.778 101.307 1.823 Q 102.37 0.869 103.845 0.869 Q 105.364 0.869 106.406 1.823 Q 107.447 2.778 107.447 4.297 Q 107.447 5.816 106.406 6.792 Q 105.364 7.768 103.845 7.768 Z  M 106.926 30.55 L 109.4 31.07 L 109.4 32.98 L 98.291 32.98 L 98.291 31.07 L 100.938 30.55 Q 100.982 28.901 100.982 27.078 L 100.982 21.697 Q 100.982 19.918 100.938 18.725 Q 100.895 17.532 100.851 16.23 L 97.944 15.839 L 97.944 14.19 L 106.362 11.37 L 107.013 11.804 L 106.883 18.009 L 106.883 27.1 Q 106.883 28.944 106.926 30.55 Z " fill="rgb(48,90,86)"/><path d=" M 132.832 11.804 L 132.832 14.972 L 128.71 14.972 Q 129.664 16.534 129.664 18.443 Q 129.664 20.005 129.057 21.307 Q 128.449 22.609 127.321 23.563 Q 126.193 24.518 124.609 25.039 Q 123.025 25.559 121.073 25.559 Q 119.337 25.559 117.775 25.082 Q 117.514 25.559 117.362 25.907 Q 117.211 26.254 117.211 26.731 Q 117.211 28.38 119.597 28.38 L 124.284 28.38 Q 128.797 28.38 130.706 29.92 Q 132.615 31.461 132.615 34.065 Q 132.615 35.627 131.856 37.015 Q 131.096 38.404 129.578 39.424 Q 128.059 40.443 125.694 41.051 Q 123.329 41.658 120.161 41.658 Q 115.431 41.658 113.37 40.574 Q 111.309 39.489 111.309 37.406 Q 111.309 36.061 112.177 34.976 Q 113.045 33.891 115.258 32.806 Q 113.999 32.199 113.435 31.222 Q 112.871 30.246 112.871 29.118 Q 112.871 27.642 113.717 26.514 Q 114.564 25.386 116.039 24.388 Q 114.39 23.433 113.435 21.914 Q 112.481 20.396 112.481 18.443 Q 112.481 16.881 113.088 15.579 Q 113.696 14.277 114.824 13.344 Q 115.952 12.411 117.536 11.891 Q 119.12 11.37 121.073 11.37 Q 124.631 11.37 126.931 13.062 L 132.181 11.37 L 132.832 11.804 L 132.832 11.804 Z  M 121.073 23.607 Q 122.721 23.607 123.589 22.24 Q 124.457 20.873 124.457 18.443 Q 124.457 16.013 123.589 14.668 Q 122.721 13.323 121.073 13.323 Q 119.424 13.323 118.577 14.668 Q 117.731 16.013 117.731 18.443 Q 117.731 20.873 118.577 22.24 Q 119.424 23.607 121.073 23.607 Z  M 124.197 33.631 L 119.467 33.631 Q 117.992 33.631 116.907 33.37 Q 116.299 34.629 116.299 35.887 Q 116.299 37.927 117.558 38.708 Q 118.816 39.489 120.899 39.489 Q 124.24 39.489 125.976 38.469 Q 127.712 37.449 127.712 35.93 Q 127.712 35.063 126.974 34.347 Q 126.236 33.631 124.197 33.631 Z " fill-rule="evenodd" fill="rgb(48,90,86)"/><path d=" M 157.306 30.55 L 159.779 31.07 L 159.779 32.98 L 148.671 32.98 L 148.671 31.07 L 151.318 30.55 Q 151.361 28.944 151.361 27.122 L 151.361 19.701 Q 151.361 17.228 150.84 16.078 Q 150.32 14.928 148.801 14.928 Q 147.542 14.928 146.349 15.601 Q 145.156 16.273 143.897 17.488 L 143.897 27.1 Q 143.897 28.944 143.941 30.55 L 146.414 31.07 L 146.414 32.98 L 135.306 32.98 L 135.306 31.07 L 137.952 30.55 Q 137.996 28.901 137.996 27.078 L 137.996 19.81 Q 137.996 19.137 137.974 18.551 L 137.931 17.423 Q 137.909 16.881 137.866 16.23 L 134.958 15.839 L 134.958 14.19 L 142.813 11.37 L 143.463 11.804 L 143.767 15.232 Q 144.678 14.19 145.481 13.474 Q 146.284 12.758 147.108 12.281 Q 147.933 11.804 148.822 11.587 Q 149.712 11.37 150.84 11.37 Q 153.965 11.37 155.614 13.214 Q 157.262 15.058 157.262 19.007 L 157.262 27.143 Q 157.262 28.988 157.306 30.55 L 157.306 30.55 Z " fill="rgb(48,90,86)"/><path d=" M 181.866 22.782 L 168.545 22.782 Q 168.675 26.644 170.432 28.445 Q 172.19 30.246 174.837 30.246 Q 176.746 30.246 177.983 29.4 Q 179.219 28.554 180.217 26.991 L 181.693 27.816 Q 180.825 30.68 178.438 32.155 Q 176.052 33.631 172.754 33.631 Q 170.411 33.631 168.458 32.893 Q 166.505 32.155 165.138 30.745 Q 163.771 29.335 163.012 27.274 Q 162.253 25.212 162.253 22.565 Q 162.253 20.092 163.077 18.052 Q 163.902 16.013 165.355 14.516 Q 166.809 13.019 168.805 12.194 Q 170.801 11.37 173.101 11.37 Q 175.184 11.37 176.854 12.043 Q 178.525 12.715 179.697 13.93 Q 180.868 15.145 181.498 16.837 Q 182.127 18.53 182.127 20.526 Q 182.127 21.741 181.866 22.782 L 181.866 22.782 Z  M 168.588 20.613 L 173.795 20.613 Q 175.357 20.613 175.943 19.962 Q 176.529 19.311 176.529 17.922 Q 176.529 15.839 175.661 14.689 Q 174.793 13.54 173.405 13.54 Q 172.667 13.54 171.886 13.887 Q 171.105 14.234 170.432 15.058 Q 169.76 15.883 169.261 17.25 Q 168.762 18.617 168.588 20.613 Z  M 205.776 30.55 L 208.293 31.07 L 208.293 32.98 L 200.395 33.414 L 200.048 30.853 Q 198.746 32.199 197.228 32.915 Q 195.709 33.631 193.713 33.631 Q 191.89 33.631 190.306 32.936 Q 188.722 32.242 187.573 30.853 Q 186.423 29.465 185.772 27.404 Q 185.121 25.343 185.121 22.609 Q 185.121 20.005 185.837 17.922 Q 186.553 15.839 187.811 14.386 Q 189.07 12.932 190.74 12.151 Q 192.411 11.37 194.364 11.37 Q 196.186 11.37 197.575 11.977 Q 198.963 12.585 200.092 13.713 L 200.092 5.859 L 196.62 5.425 L 196.62 3.689 L 205.342 1.737 L 205.95 2.084 L 205.776 8.246 L 205.776 30.55 L 205.776 30.55 Z  M 199.875 28.771 L 199.875 16.143 Q 198.963 15.492 198.074 15.102 Q 197.184 14.711 196.273 14.711 Q 195.318 14.711 194.45 15.189 Q 193.583 15.666 192.91 16.62 Q 192.237 17.575 191.825 19.029 Q 191.413 20.482 191.413 22.479 Q 191.413 26.427 192.736 28.337 Q 194.06 30.246 196.013 30.246 Q 196.967 30.246 197.944 29.834 Q 198.92 29.421 199.875 28.771 L 199.875 28.771 Z " fill-rule="evenodd" fill="rgb(48,90,86)"/></g><g id="组"><path d=" M 392.454 8.102 L 394.262 31.606 L 417.767 33.415 L 392.454 8.102 Z " fill="rgb(155,16,16)"/><path d=" M 405.111 20.758 L 394.262 31.606 L 392.454 8.102 L 405.111 20.758 Z " fill="rgb(183,28,28)"/><path d=" M 394.266 2.681 C 398.384 -1.436 408.197 1.7 416.181 9.688 C 424.169 17.672 427.305 27.485 423.188 31.603 C 419.07 35.721 409.257 32.585 401.272 24.597 C 393.284 16.612 390.148 6.799 394.266 2.681 Z " fill="rgb(198,40,40)"/><path d=" M 421.383 10.814 L 415.055 4.486 L 407.823 0.87 L 402.399 4.486 L 405.111 12.622 L 413.247 19.854 L 421.383 22.566 L 424.999 17.142 L 421.383 10.814 Z " fill="rgb(229,57,53)"/><path d=" M 402.399 4.486 L 407.823 0.87 L 397.878 0.87 L 402.399 4.486 Z  M 392.454 9.006 L 402.399 4.486 L 405.111 12.622 L 392.454 9.006 Z  M 413.247 19.854 L 401.283 24.586 L 405.111 12.622 L 413.247 19.854 Z  M 421.383 22.566 L 417.767 33.415 L 413.247 19.854 L 421.383 22.566 Z  M 424.999 17.142 L 424.999 27.086 L 421.383 22.566 L 424.999 17.142 Z " fill="rgb(255,82,82)"/></g></g></g></svg>