<?xml version="1.0" encoding="iso-8859-1"?>
<!-- Generator: Adobe Illustrator 19.0.0, SVG Export Plug-In . SVG Version: 6.00 Build 0)  -->
<svg version="1.1" id="Layer_1" xmlns="http://www.w3.org/2000/svg" xmlns:xlink="http://www.w3.org/1999/xlink" x="0px" y="0px"
	 viewBox="0 0 512 512" style="enable-background:new 0 0 512 512;" xml:space="preserve">
<path style="fill:#81E3E2;" d="M449.941,237.636c0.113-2.307,0.169-4.625,0.169-6.954c0-80.795-65.491-146.286-146.286-146.286
	c-5.716,0-11.343,0.326-16.89,0.968l92.846,342.241h33.758c54.373,0,98.462-44.088,98.462-98.462
	C512,287.62,486.299,252.107,449.941,237.636z"/>
<path style="fill:#ABECEC;" d="M416.183,237.636c36.358,14.471,62.059,49.985,62.059,91.507c0,54.373-44.088,98.462-98.462,98.462
	H98.462C44.088,427.604,0,383.516,0,329.143c0-41.59,25.78-77.149,62.228-91.575c-0.214-2.273-0.338-4.569-0.338-6.887
	c0-38.844,31.485-70.33,70.33-70.33c13.931,0,26.905,4.073,37.832,11.061c20.57-46.361,64.512-80.03,116.882-86.05
	c72.85,8.361,129.418,70.228,129.418,145.318C416.352,233.011,416.295,235.329,416.183,237.636z"/>
<g>
	<circle style="fill:#81E3E2;" cx="98.462" cy="329.143" r="8.44"/>
	<circle style="fill:#81E3E2;" cx="337.582" cy="230.681" r="8.44"/>
	<circle style="fill:#81E3E2;" cx="303.824" cy="196.923" r="8.44"/>
</g>
<g>
</g>
<g>
</g>
<g>
</g>
<g>
</g>
<g>
</g>
<g>
</g>
<g>
</g>
<g>
</g>
<g>
</g>
<g>
</g>
<g>
</g>
<g>
</g>
<g>
</g>
<g>
</g>
<g>
</g>
</svg>
