<svg xmlns="http://www.w3.org/2000/svg" viewBox="0 0 512 512"><path d="M449.941 237.636c.113-2.307.169-4.625.169-6.954 0-80.795-65.491-146.286-146.286-146.286-5.716 0-11.343.326-16.89.968l92.846 342.241h33.758c54.373 0 98.462-44.088 98.462-98.462 0-41.523-25.701-77.036-62.059-91.507z" fill="#81e3e2"/><path d="M416.183 237.636c36.358 14.471 62.059 49.985 62.059 91.507 0 54.373-44.088 98.462-98.462 98.462H98.462C44.088 427.604 0 383.516 0 329.143c0-41.59 25.78-77.149 62.228-91.575a73.429 73.429 0 0 1-.338-6.887c0-38.844 31.485-70.33 70.33-70.33a69.985 69.985 0 0 1 37.832 11.061c20.57-46.361 64.512-80.03 116.882-86.05 72.85 8.361 129.418 70.228 129.418 145.318 0 2.331-.057 4.649-.169 6.956z" fill="#abecec"/><g fill="#81e3e2"><circle cx="98.462" cy="329.143" r="8.44"/><circle cx="337.582" cy="230.681" r="8.44"/><circle cx="303.824" cy="196.923" r="8.44"/></g></svg>