<?xml version="1.0" encoding="iso-8859-1"?>
<!-- Generator: Adobe Illustrator 19.0.0, SVG Export Plug-In . SVG Version: 6.00 Build 0)  -->
<svg version="1.1" id="Capa_1" xmlns="http://www.w3.org/2000/svg" xmlns:xlink="http://www.w3.org/1999/xlink" x="0px" y="0px"
	 viewBox="0 0 512.469 512.469" style="enable-background:new 0 0 512.469 512.469;" xml:space="preserve">
<path style="fill:#F3F3F3;" d="M483.409,494.133c-149.333-22.4-299.733,34.133-451.2,13.867c-21.333-3.2-35.2-13.867-30.933-22.4
	c29.867-66.133,62.933-139.733,100.267-224c5.333-11.733,19.2-19.2,30.933-17.067c83.2,13.867,166.4-24.533,248.533-9.6
	c10.667,2.133,24.533,14.933,29.867,26.667c37.333,83.2,71.467,157.867,100.267,224
	C515.409,494.133,502.609,496.267,483.409,494.133z"/>
<path style="fill:#FFFFFF;" d="M51.409,488.8c22.4-64,48-134.4,76.8-214.4c85.333,11.733,171.733-24.533,257.067-11.733
	c28.8,77.867,55.467,147.2,78.933,210.133C326.609,455.733,189.009,504.8,51.409,488.8z"/>
<path style="fill:#F3F3F3;" d="M265.809,260.533h-23.467c6.4,22.4,27.733,70.4,112,106.667
	c-14.933,18.133-33.067,36.267-52.267,54.4c-83.2-13.867-151.467-25.6-209.067-61.867c-6.4,5.333-12.8,9.6-20.267,13.867
	c59.733,37.333,129.067,50.133,211.2,62.933c-19.2,17.067-40.533,34.133-64,51.2h36.267c51.2-37.333,92.8-75.733,123.733-109.867
	c19.2,7.467,42.667,16,67.2,26.667l2.133-13.867C322.342,342.667,279.676,289.333,265.809,260.533z"/>
<path style="fill:#415A6B;" d="M429.009,380c-13.867-37.333-28.8-75.733-43.733-117.333c-38.4-5.333-76.8-1.067-116.267,4.267
	C285.009,300,325.542,338.4,429.009,380z"/>
<path style="fill:#FFD15C;" d="M302.076,421.6c20.267-18.133,37.333-37.333,52.267-54.4c-73.6-32-98.133-70.4-108.8-97.067
	c-39.467,5.333-77.867,9.6-117.333,4.267c-10.667,30.933-21.333,59.733-32,87.467C152.742,396,221.009,407.733,302.076,421.6z"/>
<g>
	<path style="fill:#66C6B9;" d="M379.942,377.867c-28.8,32-66.133,66.133-112,101.333c65.067-7.467,132.267-14.933,196.267-6.4
		c-8.533-23.467-18.133-46.933-26.667-72.533C416.209,391.733,397.009,385.333,379.942,377.867z"/>
	<path style="fill:#66C6B9;" d="M283.943,437.6c-75.733-11.733-139.733-22.4-195.2-53.333c-13.867,37.333-25.6,72.533-37.333,105.6
		c58.667,6.4,116.267,2.133,173.867-4.267C246.609,468.533,265.809,453.6,283.943,437.6z"/>
</g>
<path style="fill:#F3705A;" d="M361.809,254.133l-105.6,105.6l-105.6-105.6C91.942,195.467,91.942,101.6,150.609,44
	c58.667-58.667,152.533-58.667,210.133,0C419.409,101.6,419.409,196.533,361.809,254.133z"/>
<circle style="fill:#FFFFFF;" cx="256.209" cy="149.6" r="98.133"/>
<path style="fill:#F3705A;" d="M185.809,130.4c0,44.8,70.4,87.467,70.4,87.467s70.4-42.667,70.4-87.467
	c0-20.267-16-36.267-36.267-36.267c-14.933,0-27.733,9.6-34.133,22.4c-5.333-12.8-18.133-22.4-34.133-22.4
	C201.809,94.133,185.809,110.133,185.809,130.4z"/>
<ellipse transform="matrix(-0.762 -0.6476 0.6476 -0.762 456.0217 404.5049)" style="fill:#FFFFFF;" cx="302.345" cy="118.451" rx="12.8" ry="6.4"/>
<g>
</g>
<g>
</g>
<g>
</g>
<g>
</g>
<g>
</g>
<g>
</g>
<g>
</g>
<g>
</g>
<g>
</g>
<g>
</g>
<g>
</g>
<g>
</g>
<g>
</g>
<g>
</g>
<g>
</g>
</svg>
