<svg xmlns="http://www.w3.org/2000/svg" style="isolation:isolate" viewBox="0 0 512 512"><defs><clipPath id="a"><path d="M0 0h512v512H0z"/></clipPath></defs><g clip-path="url(#a)"><path d="M512.006 254.69c0 81.697-38.273 154.456-97.863 201.322-43.535 34.242-98.452 54.672-158.142 54.672-59.679 0-114.596-20.43-158.131-54.672C38.279 409.157.006 336.398.006 254.69.006 113.302 114.624-1.304 256-1.304c141.388 0 256.006 114.606 256.006 255.994z" fill="#B693CE"/><path d="M415.906 408.191c-105.11-15.648-210.972 23.844-317.584 9.687-15.016-2.235-24.776-9.687-21.773-15.648 21.022-46.199 44.296-97.615 70.575-156.482 3.753-8.196 13.514-13.412 21.772-11.922 58.562 9.687 117.124-17.139 174.934-6.707 7.509 1.49 17.268 10.432 21.023 18.629 26.277 58.122 50.303 110.283 70.574 156.482 3.003 5.961-6.006 7.452-19.521 5.961z" fill="#F3F3F3"/><path d="M111.836 404.465c15.767-44.709 33.786-93.889 54.057-149.775 60.063 8.197 120.877-17.138 180.941-8.196 20.271 54.396 39.041 102.83 55.558 146.794-96.852-11.923-193.704 22.355-290.556 11.177z" fill="#FFF"/><path d="M262.745 245.003h-16.518c4.505 15.648 19.521 49.18 78.833 74.515-10.51 12.668-23.274 25.336-36.789 38.003-58.561-9.687-106.612-17.884-147.155-43.219-4.505 3.725-9.009 6.706-14.265 9.687 42.044 26.08 90.846 35.022 148.656 43.964-13.514 11.922-28.529 23.844-45.047 35.767h25.527c36.038-26.08 65.319-52.906 87.092-76.751 13.514 5.217 30.032 11.177 47.3 18.629l1.501-9.687c-89.343-33.531-119.374-70.789-129.135-90.908z" fill="#F3F3F3"/><path d="M377.616 328.46c-9.76-26.08-20.271-52.905-30.782-81.966-27.029-3.726-54.057-.746-81.837 2.981 11.262 23.099 39.792 49.924 112.619 78.985z" fill="#415A6B"/><path d="M288.272 357.521c14.265-12.667 26.278-26.08 36.789-38.003-51.804-22.354-69.072-49.18-76.581-67.809-27.779 3.726-54.808 6.707-82.586 2.981-7.509 21.609-15.016 41.728-22.524 61.103 39.791 23.844 87.842 32.041 144.902 41.728z" fill="#FFD15C"/><path d="M343.079 326.97c-20.271 22.354-46.548 46.199-78.833 70.789 45.799-5.216 93.099-10.432 138.146-4.471-6.006-16.393-12.763-32.786-18.77-50.67-15.015-5.962-28.53-10.432-40.543-15.648zm-67.57 41.728c-53.306-8.196-98.354-15.648-137.395-37.257-9.76 26.08-18.019 50.67-26.277 73.77 41.293 4.471 81.836 1.49 122.379-2.981 15.015-11.923 28.529-22.355 41.293-33.532z" fill="#66C6B9"/><path d="M334.022 240.532l-74.328 73.77-74.329-73.77c-41.293-40.983-41.293-106.556 0-146.794 41.294-40.984 107.363-40.984 147.906 0 41.294 40.238 41.294 106.556.751 146.794z" fill="#F3705A"/><path d="M190.293 167.508c0-37.836 30.95-68.554 69.072-68.554 38.123 0 69.073 30.718 69.073 68.554 0 37.835-30.95 68.553-69.073 68.553-38.122 0-69.072-30.718-69.072-68.553z" fill="#FFF"/><path d="M209.813 154.095c0 31.296 49.552 61.102 49.552 61.102s49.553-29.806 49.553-61.102c0-14.158-11.262-25.336-25.528-25.336-10.51 0-19.52 6.707-24.025 15.649-3.753-8.942-12.763-15.649-24.025-15.649-14.265 0-25.527 11.178-25.527 25.336z" fill="#F3705A"/><path d="M298.703 151.535c-1.61 1.88-5.993.812-9.782-2.384-3.789-3.196-5.558-7.317-3.948-9.197 1.61-1.881 5.993-.812 9.782 2.384 3.789 3.196 5.558 7.317 3.948 9.197z" fill="#FFF"/></g></svg>