<svg xmlns="http://www.w3.org/2000/svg" viewBox="0 0 512.469 512.469"><path d="M483.409 494.133c-149.333-22.4-299.733 34.133-451.2 13.867-21.333-3.2-35.2-13.867-30.933-22.4 29.867-66.133 62.933-139.733 100.267-224 5.333-11.733 19.2-19.2 30.933-17.067 83.2 13.867 166.4-24.533 248.533-9.6 10.667 2.133 24.533 14.933 29.867 26.667 37.333 83.2 71.467 157.867 100.267 224 4.266 8.533-8.534 10.667-27.734 8.533z" fill="#f3f3f3"/><path d="M51.409 488.8c22.4-64 48-134.4 76.8-214.4 85.333 11.733 171.733-24.533 257.067-11.733 28.8 77.867 55.467 147.2 78.933 210.133-137.6-17.067-275.2 32-412.8 16z" fill="#fff"/><path d="M265.809 260.533h-23.467c6.4 22.4 27.733 70.4 112 106.667-14.933 18.133-33.067 36.267-52.267 54.4-83.2-13.867-151.467-25.6-209.067-61.867-6.4 5.333-12.8 9.6-20.267 13.867 59.733 37.333 129.067 50.133 211.2 62.933-19.2 17.067-40.533 34.133-64 51.2h36.267c51.2-37.333 92.8-75.733 123.733-109.867 19.2 7.467 42.667 16 67.2 26.667l2.133-13.867c-126.932-47.999-169.598-101.333-183.465-130.133z" fill="#f3f3f3"/><path d="M429.009 380c-13.867-37.333-28.8-75.733-43.733-117.333-38.4-5.333-76.8-1.067-116.267 4.267 16 33.066 56.533 71.466 160 113.066z" fill="#415a6b"/><path d="M302.076 421.6c20.267-18.133 37.333-37.333 52.267-54.4-73.6-32-98.133-70.4-108.8-97.067-39.467 5.333-77.867 9.6-117.333 4.267-10.667 30.933-21.333 59.733-32 87.467C152.742 396 221.009 407.733 302.076 421.6z" fill="#ffd15c"/><path d="M379.942 377.867c-28.8 32-66.133 66.133-112 101.333 65.067-7.467 132.267-14.933 196.267-6.4-8.533-23.467-18.133-46.933-26.667-72.533-21.333-8.534-40.533-14.934-57.6-22.4zM283.943 437.6c-75.733-11.733-139.733-22.4-195.2-53.333-13.867 37.333-25.6 72.533-37.333 105.6 58.667 6.4 116.267 2.133 173.867-4.267 21.332-17.067 40.532-32 58.666-48z" fill="#66c6b9"/><path d="M361.809 254.133l-105.6 105.6-105.6-105.6C91.942 195.467 91.942 101.6 150.609 44c58.667-58.667 152.533-58.667 210.133 0 58.667 57.6 58.667 152.533 1.067 210.133z" fill="#f3705a"/><circle cx="256.209" cy="149.6" r="98.133" fill="#fff"/><path d="M185.809 130.4c0 44.8 70.4 87.467 70.4 87.467s70.4-42.667 70.4-87.467c0-20.267-16-36.267-36.267-36.267-14.933 0-27.733 9.6-34.133 22.4-5.333-12.8-18.133-22.4-34.133-22.4-20.267 0-36.267 16-36.267 36.267z" fill="#f3705a"/><ellipse transform="rotate(-139.641 302.344 118.45)" cx="302.345" cy="118.451" rx="12.8" ry="6.4" fill="#fff"/></svg>