<?xml version="1.0" standalone="no"?><!-- Generator: Gravit.io --><svg xmlns="http://www.w3.org/2000/svg" xmlns:xlink="http://www.w3.org/1999/xlink" style="isolation:isolate" viewBox="0 0 511 511"><defs><clipPath id="_clipPath_bGTkfxSOuOuck9CgioXsceJId521jTZ4"><rect width="511" height="511"/></clipPath></defs><g clip-path="url(#_clipPath_bGTkfxSOuOuck9CgioXsceJId521jTZ4)"><g id="组"><path class="cloud1" d=" M 408.259 119.154 C 381.228 119.154 356.882 130.589 339.767 148.887 C 330.604 138.33 317.08 131.654 301.998 131.654 C 274.384 131.654 251.996 154.042 251.996 181.656 C 251.996 182.069 252.002 182.488 252.013 182.902 C 223.476 188.69 202 213.914 202 244.157 C 202 278.669 229.983 306.657 264.501 306.657 L 408.259 306.657 C 460.034 306.657 502 264.681 502 212.907 C 502 161.126 460.034 119.154 408.259 119.154 Z " fill="rgb(215,220,226)"/><path class="cloud1" d=" M 466.365 139.333 C 478.995 155.304 486.55 175.493 486.55 197.439 C 486.55 249.219 444.574 291.195 392.788 291.195 L 249.035 291.195 C 235.727 291.195 223.392 287.027 213.255 279.937 C 224.553 296.088 243.293 306.656 264.502 306.656 L 408.259 306.656 C 460.034 306.656 502 264.68 502 212.905 C 502 183.076 488.068 156.504 466.365 139.333 Z " fill="rgb(204,209,217)"/></g><g id="组"><path class="cloud2" d=" M 98.839 122.077 C 125.022 122.077 148.603 133.161 165.185 150.883 C 174.062 140.656 187.165 134.187 201.771 134.187 C 228.53 134.187 250.218 155.877 250.218 182.63 C 250.218 183.036 250.207 183.437 250.202 183.838 C 277.844 189.445 298.656 213.883 298.656 243.182 C 298.656 276.618 271.545 303.735 238.104 303.735 L 98.839 303.735 C 48.668 303.735 8 263.077 8 212.907 C 8 162.74 48.668 122.077 98.839 122.077 Z " fill="rgb(170,178,188)"/><path class="cloud2"  d=" M 42.534 141.627 C 30.298 157.105 22.99 176.66 22.99 197.927 C 22.99 248.087 63.657 288.754 113.818 288.754 L 253.088 288.754 C 265.981 288.754 277.932 284.716 287.753 277.846 C 276.807 293.495 258.651 303.733 238.104 303.733 L 98.839 303.733 C 48.668 303.733 8 263.076 8 212.906 C 8 184.007 21.497 158.262 42.534 141.627 Z " fill="rgb(148,157,168)"/></g></g></svg>