<svg xmlns="http://www.w3.org/2000/svg" style="isolation:isolate" viewBox="0 0 511 511"><defs><clipPath id="a"><path d="M0 0h511v511H0z"/></clipPath></defs><g clip-path="url(#a)"><path class="cloud1" d="M408.259 119.154c-27.031 0-51.377 11.435-68.492 29.733-9.163-10.557-22.687-17.233-37.769-17.233-27.614 0-50.002 22.388-50.002 50.002 0 .413.006.832.017 1.246C223.476 188.69 202 213.914 202 244.157c0 34.512 27.983 62.5 62.501 62.5h143.758c51.775 0 93.741-41.976 93.741-93.75 0-51.781-41.966-93.753-93.741-93.753z" fill="#D7DCE2"/><path class="cloud1" d="M466.365 139.333c12.63 15.971 20.185 36.16 20.185 58.106 0 51.78-41.976 93.756-93.762 93.756H249.035a62.218 62.218 0 0 1-35.78-11.258c11.298 16.151 30.038 26.719 51.247 26.719h143.757c51.775 0 93.741-41.976 93.741-93.751 0-29.829-13.932-56.401-35.635-73.572z" fill="#CCD1D9"/><path class="cloud2" d="M98.839 122.077c26.183 0 49.764 11.084 66.346 28.806 8.877-10.227 21.98-16.696 36.586-16.696 26.759 0 48.447 21.69 48.447 48.443 0 .406-.011.807-.016 1.208 27.642 5.607 48.454 30.045 48.454 59.344 0 33.436-27.111 60.553-60.552 60.553H98.839C48.668 303.735 8 263.077 8 212.907c0-50.167 40.668-90.83 90.839-90.83z" fill="#AAB2BC"/><path class="cloud2" d="M42.534 141.627c-12.236 15.478-19.544 35.033-19.544 56.3 0 50.16 40.667 90.827 90.828 90.827h139.27a60.273 60.273 0 0 0 34.665-10.908c-10.946 15.649-29.102 25.887-49.649 25.887H98.839C48.668 303.733 8 263.076 8 212.906c0-28.899 13.497-54.644 34.534-71.279z" fill="#949DA8"/></g></svg>