<svg xmlns="http://www.w3.org/2000/svg" viewBox="0 0 299.637 299.637"><path d="M251.629 118.432c-5.983-32.735-34.571-57.568-69.038-57.568-24.214 0-45.563 12.257-58.186 30.9-3.661-1.751-7.706-2.809-12.042-2.809-15.516 0-28.091 12.575-28.091 28.091l.019.234-4.701-.234c-28.437 0-51.5 23.063-51.5 51.5 0 1.742.094 3.436.262 5.131C12.36 175.85 0 189.418 0 206.001c0 18.109 14.673 32.773 32.773 32.773h206c33.634 0 60.864-27.248 60.864-60.864-.001-29.206-20.591-53.588-48.008-59.478z" fill="#e4e7e7"/></svg>