<svg xmlns="http://www.w3.org/2000/svg" viewBox="0 0 504.137 504.137"><circle cx="252.064" cy="166.335" r="117.784" fill="#ffb133"/><path d="M369.848 166.335c0 65.048-52.736 117.768-117.784 117.768S134.28 231.383 134.28 166.335c0-65.063 52.736-95.279 117.784-95.279s117.784 30.216 117.784 95.279z" fill="#f49c00"/><g fill="#f28a00"><path d="M369.848 166.335c0 65.048-52.736 117.768-117.784 117.768S134.28 231.383 134.28 166.335M344.327 78.46a4.503 4.503 0 0 1-1.339-3.214c0-6.845 2.678-13.296 7.522-18.141s11.296-7.522 18.156-7.522c2.489.016 4.521 2.032 4.521 4.521a4.524 4.524 0 0 1-4.521 4.537c-4.443 0-8.617 1.725-11.737 4.86-3.135 3.135-4.876 7.294-4.876 11.737a4.525 4.525 0 0 1-4.521 4.537 4.496 4.496 0 0 1-3.205-1.315zM159.802 254.21c.819.827 1.339 1.953 1.339 3.198 0 6.845-2.678 13.32-7.507 18.141-4.86 4.86-11.311 7.522-18.156 7.522a4.531 4.531 0 0 1-4.553-4.537c0-2.473 2.032-4.521 4.553-4.521a16.5 16.5 0 0 0 11.737-4.86 16.53 16.53 0 0 0 4.844-11.737 4.524 4.524 0 0 1 4.537-4.521 4.53 4.53 0 0 1 3.206 1.315zM255.16 38.965a4.492 4.492 0 0 1-3.198-1.339c-4.86-4.844-7.522-11.296-7.522-18.141 0-6.861 2.662-13.32 7.522-18.156a4.512 4.512 0 0 1 6.396 0 4.54 4.54 0 0 1 0 6.396c-3.119 3.151-4.86 7.326-4.86 11.752s1.741 8.586 4.86 11.737a4.54 4.54 0 0 1 0 6.396 4.386 4.386 0 0 1-3.198 1.355zm-6.207 254.74a4.58 4.58 0 0 1 3.214 1.323c4.844 4.844 7.507 11.296 7.507 18.156 0 6.861-2.662 13.296-7.507 18.141a4.484 4.484 0 0 1-6.396 0 4.474 4.474 0 0 1 0-6.388 16.616 16.616 0 0 0 4.844-11.752c0-4.427-1.725-8.617-4.844-11.752a4.484 4.484 0 0 1 0-6.396 4.478 4.478 0 0 1 3.182-1.332zm130.481-124.29c0-1.142.449-2.292 1.323-3.182 4.844-4.844 11.311-7.522 18.141-7.522 6.877 0 13.32 2.678 18.156 7.522 1.772 1.772 1.788 4.647 0 6.396-1.757 1.772-4.616 1.772-6.396 0-3.135-3.135-7.31-4.844-11.752-4.844-4.419 0-8.602 1.709-11.721 4.844a4.531 4.531 0 0 1-6.412 0c-.89-.875-1.323-2.033-1.339-3.214zm-254.771-6.168c0 1.15-.433 2.324-1.308 3.198-4.829 4.86-11.28 7.522-18.141 7.522s-13.304-2.662-18.156-7.522c-1.772-1.788-1.772-4.647 0-6.396a4.484 4.484 0 0 1 6.396 0c3.151 3.119 7.31 4.86 11.752 4.86 4.419 0 8.602-1.741 11.721-4.86a4.503 4.503 0 0 1 6.412 0 4.46 4.46 0 0 1 1.324 3.198z"/><path d="M339.939 258.582a4.464 4.464 0 0 1 3.182-1.308c6.861-.016 13.32 2.662 18.172 7.491 4.844 4.876 7.507 11.327 7.507 18.172 0 2.473-2.032 4.521-4.521 4.521a4.511 4.511 0 0 1-4.521-4.521c0-4.443-1.741-8.602-4.876-11.752a16.575 16.575 0 0 0-11.752-4.86 4.521 4.521 0 0 1-4.521-4.521 4.655 4.655 0 0 1 1.33-3.222zM164.158 74.073a4.449 4.449 0 0 1-3.182 1.323c-6.845.032-13.304-2.662-18.141-7.491-4.86-4.86-7.538-11.296-7.538-18.172 0-2.505 2.032-4.521 4.553-4.521 2.473 0 4.521 2.016 4.521 4.521 0 4.443 1.741 8.602 4.86 11.768 3.135 3.119 7.294 4.844 11.737 4.829 2.505 0 4.537 2.048 4.537 4.521a4.472 4.472 0 0 1-1.347 3.222zm26.908-19.582c-1 .567-2.229.756-3.458.449-6.617-1.788-12.154-6.034-15.573-11.957-3.434-5.939-4.356-12.863-2.568-19.48.63-2.434 3.119-3.86 5.553-3.214a4.521 4.521 0 0 1 3.198 5.537c-1.166 4.309-.551 8.799 1.646 12.635 2.213 3.828 5.797 6.569 10.09 7.719 2.418.63 3.828 3.135 3.214 5.537a4.649 4.649 0 0 1-2.102 2.774zm121.997 223.704c1-.583 2.229-.788 3.45-.449 6.601 1.757 12.154 6.018 15.573 11.941 3.434 5.955 4.356 12.879 2.584 19.495a4.562 4.562 0 0 1-5.569 3.198c-2.402-.662-3.844-3.135-3.198-5.553 1.15-4.293.536-8.767-1.662-12.603a16.439 16.439 0 0 0-10.075-7.735c-2.418-.63-3.86-3.119-3.214-5.537a4.544 4.544 0 0 1 2.111-2.757zm50.846-172.875a4.547 4.547 0 0 1-.449-3.434c1.772-6.617 6.034-12.154 11.957-15.588 5.955-3.434 12.847-4.34 19.48-2.552a4.544 4.544 0 0 1 3.214 5.537 4.523 4.523 0 0 1-5.569 3.198 16.467 16.467 0 0 0-12.572 1.662c-3.875 2.213-6.632 5.797-7.767 10.09a4.482 4.482 0 0 1-5.537 3.198c-1.213-.307-2.158-1.095-2.757-2.111zm-223.72 122.03c.614 1 .772 2.229.465 3.434a25.596 25.596 0 0 1-11.926 15.588c-5.986 3.434-12.879 4.34-19.527 2.552a4.465 4.465 0 0 1-3.167-5.537 4.484 4.484 0 0 1 5.537-3.198 16.456 16.456 0 0 0 12.603-1.662 16.472 16.472 0 0 0 7.719-10.075 4.533 4.533 0 0 1 5.553-3.214 4.51 4.51 0 0 1 2.743 2.112zm234.094-25.041a4.495 4.495 0 0 1 2.127-2.757c5.923-3.434 12.847-4.34 19.48-2.568 6.617 1.788 12.17 6.034 15.573 11.957 1.245 2.166.536 4.939-1.646 6.199-2.166 1.26-4.923.504-6.183-1.662-2.213-3.844-5.782-6.585-10.09-7.751-4.277-1.142-8.751-.567-12.603 1.678-2.182 1.245-4.939.504-6.183-1.662a4.536 4.536 0 0 1-.475-3.434zm-244.468-71.94a4.56 4.56 0 0 1-2.111 2.773c-5.923 3.45-12.879 4.34-19.448 2.568-6.664-1.772-12.186-6.018-15.612-11.973-1.26-2.166-.504-4.939 1.662-6.183a4.542 4.542 0 0 1 6.199 1.662c2.213 3.828 5.766 6.585 10.09 7.735a16.315 16.315 0 0 0 12.572-1.678 4.52 4.52 0 0 1 6.183 1.678 4.496 4.496 0 0 1 .465 3.418z"/></g><path d="M143.276 99.98c-.567 1-1.536 1.772-2.757 2.111-6.617 1.772-13.525.859-19.464-2.568-5.939-3.426-10.185-8.972-11.957-15.588-.662-2.418.788-4.907 3.182-5.553a4.534 4.534 0 0 1 5.553 3.198 16.493 16.493 0 0 0 7.751 10.09c3.812 2.213 8.31 2.796 12.603 1.662 2.402-.646 4.892.803 5.553 3.198.34 1.205.127 2.434-.464 3.45zm217.529 132.726c.583-.985 1.552-1.804 2.773-2.095 6.617-1.812 13.54-.874 19.448 2.552 5.971 3.434 10.216 8.972 11.981 15.588.662 2.418-.788 4.923-3.214 5.537-2.418.63-4.892-.772-5.537-3.198-1.166-4.293-3.923-7.861-7.751-10.09-3.812-2.213-8.31-2.796-12.603-1.662-2.402.662-4.876-.772-5.537-3.182a4.518 4.518 0 0 1 .44-3.45zm-42.401-175.12a4.423 4.423 0 0 1-2.079-2.757c-1.788-6.617-.874-13.54 2.568-19.48 3.434-5.939 8.956-10.169 15.557-11.957 2.434-.646 4.923.788 5.569 3.198.614 2.434-.803 4.907-3.214 5.537-4.277 1.142-7.861 3.907-10.075 7.735-2.229 3.844-2.828 8.326-1.662 12.619a4.53 4.53 0 0 1-3.198 5.553c-1.221.332-2.434.119-3.466-.448zm-132.71 217.521c1 .567 1.772 1.552 2.095 2.757a25.28 25.28 0 0 1-2.552 19.448c-3.45 5.971-8.956 10.216-15.588 11.981a4.515 4.515 0 0 1-5.553-3.214 4.502 4.502 0 0 1 3.214-5.522c4.277-1.15 7.877-3.891 10.106-7.767 2.182-3.812 2.788-8.294 1.615-12.587-.63-2.418.788-4.876 3.23-5.553 1.203-.314 2.416-.11 3.433.457zm190.204-138.736a4.457 4.457 0 0 1 .449-3.434c3.419-5.923 8.972-10.185 15.588-11.981 6.632-1.741 13.54-.827 19.48 2.584 2.15 1.26 2.922 4.033 1.646 6.199-1.245 2.166-4.001 2.891-6.183 1.646-3.828-2.229-8.294-2.788-12.587-1.662-4.293 1.15-7.877 3.875-10.106 7.751-1.245 2.15-4.001 2.891-6.183 1.646a4.467 4.467 0 0 1-2.104-2.749zm-247.682 59.951a4.617 4.617 0 0 1-.465 3.45c-3.419 5.939-8.972 10.201-15.557 11.941-6.648 1.804-13.556.874-19.511-2.552a4.493 4.493 0 0 1-1.631-6.183c1.229-2.166 4.001-2.922 6.183-1.662 3.812 2.229 8.279 2.812 12.603 1.646 4.261-1.126 7.861-3.86 10.043-7.719 1.26-2.15 4.049-2.907 6.199-1.662 1.12.615 1.813 1.631 2.136 2.741z" fill="#f28a00"/><path d="M143.276 99.98c-.567 1-1.536 1.772-2.757 2.111-6.617 1.772-13.525.859-19.464-2.568-5.939-3.426-10.185-8.972-11.957-15.588-.662-2.418.788-4.907 3.182-5.553a4.534 4.534 0 0 1 5.553 3.198 16.493 16.493 0 0 0 7.751 10.09c3.812 2.213 8.31 2.796 12.603 1.662 2.402-.646 4.892.803 5.553 3.198.34 1.205.127 2.434-.464 3.45zm217.529 132.726c.583-.985 1.552-1.804 2.773-2.095 6.617-1.812 13.54-.874 19.448 2.552 5.971 3.434 10.216 8.972 11.981 15.588.662 2.418-.788 4.923-3.214 5.537-2.418.63-4.892-.772-5.537-3.198-1.166-4.293-3.923-7.861-7.751-10.09-3.812-2.213-8.31-2.796-12.603-1.662-2.402.662-4.876-.772-5.537-3.182a4.518 4.518 0 0 1 .44-3.45zm-42.401-175.12a4.423 4.423 0 0 1-2.079-2.757c-1.788-6.617-.874-13.54 2.568-19.48 3.434-5.939 8.956-10.169 15.557-11.957 2.434-.646 4.923.788 5.569 3.198.614 2.434-.803 4.907-3.214 5.537-4.277 1.142-7.861 3.907-10.075 7.735-2.229 3.844-2.828 8.326-1.662 12.619a4.53 4.53 0 0 1-3.198 5.553c-1.221.332-2.434.119-3.466-.448zm-132.71 217.521c1 .567 1.772 1.552 2.095 2.757a25.28 25.28 0 0 1-2.552 19.448c-3.45 5.971-8.956 10.216-15.588 11.981a4.515 4.515 0 0 1-5.553-3.214 4.502 4.502 0 0 1 3.214-5.522c4.277-1.15 7.877-3.891 10.106-7.767 2.182-3.812 2.788-8.294 1.615-12.587-.63-2.418.788-4.876 3.23-5.553 1.203-.314 2.416-.11 3.433.457zm190.204-138.736a4.457 4.457 0 0 1 .449-3.434c3.419-5.923 8.972-10.185 15.588-11.981 6.632-1.741 13.54-.827 19.48 2.584 2.15 1.26 2.922 4.033 1.646 6.199-1.245 2.166-4.001 2.891-6.183 1.646-3.828-2.229-8.294-2.788-12.587-1.662-4.293 1.15-7.877 3.875-10.106 7.751-1.245 2.15-4.001 2.891-6.183 1.646a4.467 4.467 0 0 1-2.104-2.749zm-247.682 59.951a4.617 4.617 0 0 1-.465 3.45c-3.419 5.939-8.972 10.201-15.557 11.941-6.648 1.804-13.556.874-19.511-2.552a4.493 4.493 0 0 1-1.631-6.183c1.229-2.166 4.001-2.922 6.183-1.662 3.812 2.229 8.279 2.812 12.603 1.646 4.261-1.126 7.861-3.86 10.043-7.719 1.26-2.15 4.049-2.907 6.199-1.662 1.12.615 1.813 1.631 2.136 2.741z" fill="#f28a00"/><path d="M140.22 227.365c.583 1 .74 2.229.433 3.45-1.772 6.617-6.034 12.154-11.957 15.573-5.955 3.434-12.847 4.34-19.495 2.584-2.418-.662-3.844-3.151-3.182-5.553.646-2.45 3.111-3.844 5.522-3.214 4.309 1.15 8.783.551 12.635-1.662 3.828-2.213 6.569-5.782 7.719-10.09.646-2.402 3.135-3.812 5.553-3.214a4.538 4.538 0 0 1 2.772 2.126zm223.689-122.013c-.567-1-.788-2.245-.417-3.45 1.741-6.632 6.002-12.154 11.91-15.573 5.955-3.434 12.863-4.34 19.495-2.568 2.418.646 3.844 3.135 3.198 5.553a4.493 4.493 0 0 1-5.553 3.167c-4.309-1.111-8.751-.52-12.587 1.678a16.434 16.434 0 0 0-7.751 10.075c-.614 2.418-3.119 3.844-5.537 3.23-1.214-.324-2.159-1.128-2.758-2.112zM191.05 54.506a4.473 4.473 0 0 1-3.434.433c-6.632-1.757-12.17-6.018-15.588-11.957-3.434-5.955-4.356-12.847-2.584-19.48a4.603 4.603 0 0 1 5.569-3.214c2.418.693 3.844 3.151 3.198 5.569-1.166 4.277-.551 8.767 1.662 12.603a16.342 16.342 0 0 0 10.075 7.735 4.52 4.52 0 0 1 3.214 5.553c-.332 1.222-1.112 2.16-2.112 2.758zm122.013 223.705c1-.583 2.229-.772 3.45-.449 6.617 1.757 12.17 6.002 15.573 11.941 3.434 5.955 4.356 12.863 2.552 19.48-.63 2.418-3.111 3.875-5.537 3.198-2.402-.63-3.844-3.111-3.198-5.522a16.47 16.47 0 0 0-1.646-12.642 16.495 16.495 0 0 0-10.09-7.696c-2.402-.662-3.86-3.111-3.198-5.569.314-1.197 1.11-2.15 2.094-2.741zM288.015 44.109a4.298 4.298 0 0 1-2.741-2.095c-3.45-5.939-4.34-12.863-2.584-19.495 1.788-6.601 6.034-12.154 11.981-15.573a4.528 4.528 0 0 1 6.183 1.678c1.245 2.15.488 4.907-1.662 6.152-3.86 2.229-6.601 5.797-7.751 10.09-1.142 4.293-.567 8.767 1.678 12.619a4.535 4.535 0 0 1-1.678 6.183 4.474 4.474 0 0 1-3.426.441zm-71.901 244.476c1.111.307 2.111 1.048 2.773 2.111 3.419 5.955 4.309 12.879 2.536 19.464-1.788 6.664-6.018 12.186-11.981 15.596a4.47 4.47 0 0 1-6.152-1.662c-1.276-2.15-.52-4.923 1.646-6.199 3.828-2.198 6.617-5.742 7.735-10.075 1.15-4.261.567-8.751-1.678-12.572-1.229-2.166-.488-4.955 1.678-6.199a4.577 4.577 0 0 1 3.443-.464zm-30.389-13.478c.985.583 1.741 1.552 2.064 2.788 1.804 6.617.874 13.525-2.552 19.464-3.45 5.939-8.956 10.169-15.573 11.957a4.562 4.562 0 0 1-5.569-3.182c-.646-2.45.803-4.923 3.198-5.553 4.309-1.15 7.893-3.907 10.09-7.751a16.427 16.427 0 0 0 1.646-12.603c-.63-2.387.819-4.876 3.23-5.569a4.663 4.663 0 0 1 3.466.449zM318.42 57.602c-.985-.583-1.788-1.552-2.079-2.773-1.804-6.617-.859-13.54 2.521-19.448 3.45-5.939 8.988-10.201 15.588-11.973 2.434-.662 4.923.788 5.537 3.198.646 2.418-.772 4.907-3.182 5.522-4.293 1.182-7.845 3.97-10.075 7.751-2.229 3.844-2.796 8.342-1.662 12.603.677 2.402-.788 4.892-3.198 5.585-1.205.299-2.434.086-3.45-.465zm-175.144 42.409c-.551.969-1.536 1.757-2.741 2.08-6.601 1.788-13.525.874-19.48-2.568-5.939-3.434-10.185-8.956-11.957-15.573-.646-2.418.803-4.907 3.182-5.569 2.45-.599 4.907.819 5.553 3.23A16.49 16.49 0 0 0 125.6 91.67c3.812 2.245 8.294 2.844 12.587 1.678 2.418-.662 4.923.772 5.553 3.198.356 1.22.127 2.433-.464 3.465zm217.561 132.711a4.34 4.34 0 0 1 2.757-2.079 25.148 25.148 0 0 1 19.432 2.536c5.971 3.434 10.216 8.956 11.981 15.588a4.476 4.476 0 0 1-3.214 5.522 4.5 4.5 0 0 1-5.537-3.182c-1.142-4.309-3.86-7.877-7.719-10.122a16.64 16.64 0 0 0-12.619-1.615 4.526 4.526 0 0 1-5.537-3.214 4.492 4.492 0 0 1 .456-3.434zM222.109 42.51a4.418 4.418 0 0 1-3.434-.433c-5.955-3.434-10.201-8.972-11.997-15.596-1.757-6.617-.859-13.54 2.584-19.48 1.276-2.135 4.017-2.907 6.183-1.646 2.182 1.245 2.891 4.017 1.662 6.183-2.245 3.844-2.812 8.294-1.694 12.619 1.205 4.269 3.915 7.853 7.775 10.059 2.166 1.276 2.875 4.017 1.646 6.199a4.523 4.523 0 0 1-2.725 2.095zm59.927 247.674a4.633 4.633 0 0 1 3.458.465c5.923 3.434 10.185 9.003 11.926 15.557 1.812 6.664.874 13.572-2.552 19.511-1.229 2.182-4.017 2.922-6.183 1.631-2.15-1.213-2.922-3.986-1.678-6.183 2.261-3.812 2.844-8.279 1.678-12.587-1.126-4.277-3.891-7.845-7.735-10.059-2.135-1.26-2.891-4.049-1.662-6.199.621-1.088 1.653-1.813 2.748-2.136z" fill="#f28a00"/><path d="M213.664 109.448c0 8.94-7.247 8.09-16.171 8.09-8.925 0-16.156.843-16.156-8.09 0-8.925 7.231-16.156 16.156-16.156 8.925 0 16.171 7.231 16.171 16.156z" fill="#09516d"/><path d="M213.664 109.448c0 8.94-7.247 8.09-16.171 8.09-8.925 0-16.156.843-16.156-8.09 0-8.925 7.231-9.618 16.156-9.618 8.925 0 16.171.693 16.171 9.618z" fill="#082130"/><path d="M322.791 109.448c0 8.94-7.247 8.09-16.171 8.09-8.925 0-16.156.843-16.156-8.09 0-8.925 7.231-16.156 16.156-16.156 8.925 0 16.171 7.231 16.171 16.156z" fill="#09516d"/><path d="M322.791 109.448c0 8.94-7.247 8.09-16.171 8.09-8.925 0-16.156.843-16.156-8.09 0-8.925 7.231-9.618 16.156-9.618 8.925 0 16.171.693 16.171 9.618z" fill="#082130"/><path d="M258.988 135.552a6.929 6.929 0 0 1-6.924 6.924c-3.828 0-6.94-3.096-6.94-6.924a6.935 6.935 0 0 1 6.94-6.94c3.813 0 6.924 3.096 6.924 6.94z" fill="#af3a6a"/><path d="M397.866 336.784c0 80.526-65.292 118.619-145.802 118.619-80.526 0-145.802-38.093-145.802-118.619s65.276-120.139 145.802-120.139c80.511 0 145.802 39.613 145.802 120.139z" fill="#92a4a5"/><path d="M397.866 336.784c0 80.526-65.292 101.321-145.802 101.321-80.526 0-145.802-20.803-145.802-101.321s65.276-145.802 145.802-145.802c80.511 0 145.802 65.276 145.802 145.802z" fill="#c7d2d3"/><g fill="#aeb9ba"><path d="M397.866 336.784c0 80.526-65.292 101.321-145.802 101.321-80.526 0-145.802-20.803-145.802-101.321s65.276-120.139 145.802-120.139c80.511 0 145.802 39.613 145.802 120.139z"/><path d="M251.883 369.032c0 54.894-44.489 69.081-99.399 69.081-54.894 0-99.383-14.186-99.383-69.081s44.489-99.391 99.375-99.391c54.911 0 99.407 44.497 99.407 99.391zm199.153 0c0 54.894-44.505 69.081-99.399 69.081-54.91 0-99.399-14.186-99.399-69.081s44.489-99.391 99.399-99.391c54.886 0 99.399 44.497 99.399 99.391z"/></g><path d="M206.142 304.032c0 10.673-8.68 9.665-19.354 9.665-10.673 0-19.322 1.016-19.322-9.665s8.649-19.338 19.322-19.338c10.674 0 19.354 8.656 19.354 19.338z" fill="#09516d"/><path d="M206.142 304.032c0 10.673-8.68 9.665-19.354 9.665-10.673 0-19.322 1.016-19.322-9.665s8.649-11.524 19.322-11.524c10.674 0 19.354.842 19.354 11.524z" fill="#082130"/><path d="M336.663 304.032c0 10.673-8.665 9.665-19.338 9.665s-19.338 1.016-19.338-9.665 8.665-19.338 19.338-19.338 19.338 8.656 19.338 19.338z" fill="#09516d"/><path d="M336.663 304.032c0 10.673-8.665 9.665-19.338 9.665s-19.338 1.016-19.338-9.665 8.665-11.524 19.338-11.524 19.338.842 19.338 11.524z" fill="#082130"/><path d="M287.203 328.151c0 8.799-15.738 15.951-35.139 15.951-19.417 0-35.155-7.152-35.155-15.951 0-8.814 15.738 1.063 35.155 1.063 19.401 0 35.139-9.878 35.139-1.063z" fill="#af3a6a"/><path d="M252.064 329.214c-15.691 0-28.956-6.428-33.477-4.261 4.387 6.538 17.613 11.335 33.477 11.335s29.089-4.797 33.461-11.335c-4.521-2.167-17.785 4.261-33.461 4.261z" fill="#821647"/><path d="M141.606 337.69c0 6.475-13.233-1.662-29.554-1.662-16.337 0-29.586 8.137-29.586 1.662s13.249-11.705 29.586-11.705c16.321-.001 29.554 5.23 29.554 11.705zm280.041 0c0 6.475-13.249-1.662-29.586-1.662-16.305 0-29.554 8.137-29.554 1.662s13.249-11.705 29.554-11.705c16.345-.001 29.586 5.23 29.586 11.705zm-210.582-75.658c0 4.214-8.633-1.079-19.243-1.079-10.634 0-19.259 5.293-19.259 1.079s8.633-7.633 19.259-7.633c10.61 0 19.243 3.419 19.243 7.633zm120.493 0c0 4.214-8.633-1.079-19.259-1.079-10.618 0-19.243 5.293-19.243 1.079s8.633-7.633 19.243-7.633c10.626 0 19.259 3.419 19.259 7.633z" fill="#c7d2d3"/><path d="M138.062 494.401c0 5.372-4.356 9.736-9.736 9.736s-9.752-4.372-9.752-9.736c0-5.388 4.372-27.68 9.752-27.68s9.736 22.292 9.736 27.68z" fill="#5ba9c1"/><path d="M128.326 466.721c5.388 0 9.736 22.292 9.736 27.68 0 5.372-4.356 9.736-9.736 9.736" fill="#2d99b2"/><path d="M187.56 494.401c0 5.372-4.372 9.736-9.736 9.736-5.388 0-9.736-4.372-9.736-9.736 0-5.388 4.356-27.68 9.736-27.68 5.365 0 9.736 22.292 9.736 27.68z" fill="#5ba9c1"/><path d="M177.817 466.721c5.372 0 9.736 22.292 9.736 27.68 0 5.372-4.372 9.736-9.736 9.736" fill="#2d99b2"/><path d="M237.051 494.401c0 5.372-4.356 9.736-9.736 9.736-5.372 0-9.752-4.372-9.752-9.736 0-5.388 4.387-27.68 9.752-27.68 5.38 0 9.736 22.292 9.736 27.68z" fill="#5ba9c1"/><path d="M227.307 466.721c5.388 0 9.736 22.292 9.736 27.68 0 5.372-4.356 9.736-9.736 9.736" fill="#2d99b2"/><path d="M286.558 494.401c0 5.372-4.372 9.736-9.752 9.736-5.38 0-9.72-4.372-9.72-9.736 0-5.388 4.34-27.68 9.72-27.68 5.38 0 9.752 22.292 9.752 27.68z" fill="#5ba9c1"/><path d="M276.806 466.721c5.388 0 9.752 22.292 9.752 27.68 0 5.372-4.372 9.736-9.752 9.736" fill="#2d99b2"/><path d="M336.033 494.401c0 5.372-4.356 9.736-9.72 9.736-5.388 0-9.752-4.372-9.752-9.736 0-5.388 4.372-27.68 9.752-27.68 5.364 0 9.72 22.292 9.72 27.68z" fill="#5ba9c1"/><path d="M326.312 466.721c5.372 0 9.72 22.292 9.72 27.68 0 5.372-4.356 9.736-9.72 9.736" fill="#2d99b2"/><path d="M385.555 494.401c0 5.372-4.372 9.736-9.752 9.736-5.38 0-9.736-4.372-9.736-9.736 0-5.388 4.356-27.68 9.736-27.68 5.38 0 9.752 22.292 9.752 27.68z" fill="#5ba9c1"/><path d="M375.803 466.721c5.388 0 9.752 22.292 9.752 27.68 0 5.372-4.372 9.736-9.752 9.736" fill="#2d99b2"/></svg>