<?xml version="1.0" encoding="iso-8859-1"?>
<!-- Generator: Adobe Illustrator 19.0.0, SVG Export Plug-In . SVG Version: 6.00 Build 0)  -->
<svg version="1.1" id="Capa_1" xmlns="http://www.w3.org/2000/svg" xmlns:xlink="http://www.w3.org/1999/xlink" x="0px" y="0px"
	 viewBox="0 0 512 512" style="enable-background:new 0 0 512 512;" xml:space="preserve">
<g>
	<path style="fill:#FFD15C;" d="M173.248,63.189c-60.768,0-110.059,49.269-110.059,110.059c0,60.779,49.291,110.059,110.059,110.059
		c60.779,0,110.059-49.28,110.059-110.059C283.317,112.459,234.027,63.189,173.248,63.189"/>
	<path style="fill:#FFD15C;" d="M173.248,51.936c2.336,0,4.224-1.888,4.224-4.224V4.224C177.483,1.899,175.584,0,173.248,0
		s-4.224,1.899-4.224,4.224v43.477C169.024,50.048,170.912,51.936,173.248,51.936"/>
	<path style="fill:#FFD15C;" d="M173.248,294.549c-2.336,0-4.224,1.888-4.224,4.224v43.477c0,2.347,1.899,4.235,4.224,4.235
		c2.325,0,4.224-1.899,4.224-4.235v-43.477C177.483,296.437,175.584,294.549,173.248,294.549"/>
	<path style="fill:#FFD15C;" d="M121.291,58.891c0.896,2.165,3.371,3.189,5.547,2.293c2.155-0.896,3.179-3.36,2.283-5.536
		l-16.629-40.171c-0.896-2.165-3.371-3.189-5.536-2.293s-3.2,3.371-2.304,5.536L121.291,58.891z"/>
	<path style="fill:#FFD15C;" d="M225.205,287.605c-0.896-2.155-3.371-3.189-5.547-2.293c-2.144,0.896-3.179,3.371-2.283,5.547
		l16.64,40.16c0.896,2.165,3.36,3.189,5.536,2.293s3.189-3.36,2.293-5.525L225.205,287.605z"/>
	<path style="fill:#FFD15C;" d="M81.493,87.467c1.653,1.653,4.32,1.653,5.995,0c1.643-1.643,1.643-4.32,0-5.984L56.725,50.752
		c-1.643-1.664-4.331-1.664-5.984,0c-1.653,1.643-1.653,4.32,0,5.984L81.493,87.467z"/>
	<path style="fill:#FFD15C;" d="M265.024,259.019c-1.664-1.653-4.331-1.653-5.995,0c-1.664,1.653-1.653,4.331,0,5.995l30.741,30.741
		c1.653,1.643,4.331,1.643,5.984,0c1.653-1.653,1.653-4.331,0-5.995L265.024,259.019z"/>
	<path style="fill:#FFD15C;" d="M15.477,112.48l40.181,16.64c2.155,0.896,4.629-0.128,5.525-2.293
		c0.896-2.165-0.128-4.64-2.293-5.536l-40.16-16.64c-2.165-0.896-4.651,0.139-5.547,2.293S13.312,111.584,15.477,112.48"/>
	<path style="fill:#FFD15C;" d="M331.019,234.005l-40.171-16.64c-2.155-0.896-4.64,0.128-5.536,2.293s0.139,4.651,2.304,5.547
		l40.16,16.629c2.155,0.896,4.64-0.128,5.536-2.283C334.208,237.387,333.184,234.901,331.019,234.005"/>
	<path style="fill:#FFD15C;" d="M51.947,173.248c0-2.347-1.909-4.235-4.235-4.235H4.224c-2.325,0-4.224,1.888-4.224,4.235
		c0,2.336,1.899,4.224,4.224,4.224h43.477C50.037,177.483,51.947,175.584,51.947,173.248"/>
	<path style="fill:#FFD15C;" d="M342.272,169.013h-43.477c-2.336,0-4.235,1.899-4.235,4.235s1.909,4.224,4.235,4.224h43.477
		c2.336,0,4.224-1.899,4.224-4.224C346.496,170.901,344.608,169.013,342.272,169.013"/>
	<path style="fill:#FFD15C;" d="M61.184,219.669c-0.896-2.165-3.371-3.189-5.547-2.293l-40.171,16.64
		c-2.165,0.896-3.189,3.371-2.293,5.547c0.896,2.155,3.371,3.179,5.547,2.283l40.16-16.629
		C61.056,224.309,62.08,221.835,61.184,219.669"/>
	<path style="fill:#FFD15C;" d="M285.323,126.827c0.896,2.165,3.36,3.189,5.536,2.293l40.171-16.64
		c2.165-0.896,3.189-3.371,2.293-5.536c-0.896-2.165-3.371-3.189-5.547-2.293l-40.16,16.64
		C285.451,122.187,284.427,124.661,285.323,126.827"/>
	<path style="fill:#FFD15C;" d="M81.493,259.019L50.752,289.76c-1.653,1.653-1.653,4.331,0,5.995c1.643,1.643,4.331,1.643,5.984,0
		l30.752-30.741c1.643-1.653,1.643-4.331,0-5.995C85.813,257.365,83.147,257.365,81.493,259.019"/>
	<path style="fill:#FFD15C;" d="M265.024,87.467l30.731-30.741c1.653-1.653,1.653-4.331,0-5.984c-1.643-1.664-4.32-1.664-5.984,0
		l-30.741,30.752c-1.653,1.653-1.653,4.331,0,5.984C260.683,89.12,263.349,89.12,265.024,87.467"/>
	<path style="fill:#FFD15C;" d="M126.837,285.312c-2.165-0.896-4.651,0.139-5.547,2.304l-16.629,40.16
		c-0.896,2.165,0.128,4.64,2.283,5.536c2.165,0.896,4.64-0.128,5.536-2.293l16.651-40.16
		C130.016,288.683,129.003,286.219,126.837,285.312"/>
	<path style="fill:#FFD15C;" d="M219.669,61.173c2.165,0.896,4.651-0.128,5.547-2.293l16.629-40.171
		c0.896-2.165-0.128-4.64-2.272-5.536c-2.165-0.896-4.651,0.128-5.547,2.293l-16.651,40.16
		C216.48,57.803,217.504,60.277,219.669,61.173"/>
</g>
<path style="fill:#F2F2F2;" d="M477.291,305.941c3.605-12.885,5.685-26.432,5.685-40.459c0-82.784-67.104-149.888-149.888-149.888
	c-57.909,0-108.053,32.896-133.013,80.96c-11.765-4.171-24.373-6.539-37.568-6.539c-60.053,0-108.992,46.997-112.352,106.219
	C20.459,310.965,0,341.515,0,376.907c0,49.781,40.352,90.123,90.133,90.123h58.955C167.061,494.112,197.813,512,232.736,512
	c34.944,0,65.675-17.888,83.648-44.971h105.493c49.771,0,90.123-40.341,90.123-90.123C512,348.053,498.4,322.443,477.291,305.941"/>
<path style="fill:#E4EAEF;" d="M50.155,317.557c3.36-59.211,52.299-106.219,112.352-106.219c13.195,0,25.813,2.4,37.568,6.56
	c24.96-48.075,75.104-80.96,133.024-80.96c79.456,0,144.288,61.877,149.376,140.053c0.309-3.808,0.501-7.637,0.501-11.509
	c0-82.773-67.104-149.877-149.877-149.877c-57.92,0-108.064,32.885-133.024,80.96c-11.765-4.171-24.373-6.56-37.568-6.56
	c-60.053,0-108.992,47.008-112.352,106.219C20.459,310.955,0,341.515,0,376.917c0,3.733,0.299,7.392,0.747,11.019
	C4.288,357.003,23.403,330.837,50.155,317.557"/>
<g>
</g>
<g>
</g>
<g>
</g>
<g>
</g>
<g>
</g>
<g>
</g>
<g>
</g>
<g>
</g>
<g>
</g>
<g>
</g>
<g>
</g>
<g>
</g>
<g>
</g>
<g>
</g>
<g>
</g>
</svg>
