<svg xmlns="http://www.w3.org/2000/svg" viewBox="0 0 512 512"><path d="M173.248 63.189c-60.768 0-110.059 49.269-110.059 110.059 0 60.779 49.291 110.059 110.059 110.059 60.779 0 110.059-49.28 110.059-110.059.01-60.789-49.28-110.059-110.059-110.059m0-11.253a4.22 4.22 0 0 0 4.224-4.224V4.224C177.483 1.899 175.584 0 173.248 0s-4.224 1.899-4.224 4.224v43.477a4.222 4.222 0 0 0 4.224 4.235m0 242.613a4.22 4.22 0 0 0-4.224 4.224v43.477a4.23 4.23 0 0 0 4.224 4.235 4.236 4.236 0 0 0 4.224-4.235v-43.477c.011-2.336-1.888-4.224-4.224-4.224M121.291 58.891a4.242 4.242 0 0 0 5.547 2.293 4.233 4.233 0 0 0 2.283-5.536l-16.629-40.171c-.896-2.165-3.371-3.189-5.536-2.293s-3.2 3.371-2.304 5.536l16.639 40.171zm103.914 228.714a4.25 4.25 0 0 0-5.547-2.293 4.255 4.255 0 0 0-2.283 5.547l16.64 40.16c.896 2.165 3.36 3.189 5.536 2.293s3.189-3.36 2.293-5.525l-16.639-40.182zM81.493 87.467c1.653 1.653 4.32 1.653 5.995 0 1.643-1.643 1.643-4.32 0-5.984L56.725 50.752a4.21 4.21 0 0 0-5.984 0c-1.653 1.643-1.653 4.32 0 5.984l30.752 30.731zm183.531 171.552a4.244 4.244 0 0 0-5.995 0c-1.664 1.653-1.653 4.331 0 5.995l30.741 30.741a4.249 4.249 0 0 0 5.984 0 4.244 4.244 0 0 0 0-5.995l-30.73-30.741zM15.477 112.48l40.181 16.64a4.224 4.224 0 0 0 5.525-2.293 4.233 4.233 0 0 0-2.293-5.536l-40.16-16.64c-2.165-.896-4.651.139-5.547 2.293s.129 4.64 2.294 5.536m315.542 121.525l-40.171-16.64c-2.155-.896-4.64.128-5.536 2.293s.139 4.651 2.304 5.547l40.16 16.629a4.24 4.24 0 0 0 5.536-2.283 4.245 4.245 0 0 0-2.293-5.546M51.947 173.248a4.238 4.238 0 0 0-4.235-4.235H4.224a4.23 4.23 0 0 0 0 8.459h43.477a4.232 4.232 0 0 0 4.246-4.224m290.325-4.235h-43.477c-2.336 0-4.235 1.899-4.235 4.235s1.909 4.224 4.235 4.224h43.477a4.227 4.227 0 0 0 4.224-4.224 4.222 4.222 0 0 0-4.224-4.235M61.184 219.669a4.242 4.242 0 0 0-5.547-2.293l-40.171 16.64a4.242 4.242 0 0 0-2.293 5.547c.896 2.155 3.371 3.179 5.547 2.283l40.16-16.629a4.246 4.246 0 0 0 2.304-5.548m224.139-92.842a4.23 4.23 0 0 0 5.536 2.293l40.171-16.64a4.233 4.233 0 0 0 2.293-5.536 4.242 4.242 0 0 0-5.547-2.293l-40.16 16.64a4.233 4.233 0 0 0-2.293 5.536M81.493 259.019L50.752 289.76a4.244 4.244 0 0 0 0 5.995c1.643 1.643 4.331 1.643 5.984 0l30.752-30.741a4.262 4.262 0 0 0 0-5.995 4.242 4.242 0 0 0-5.995 0M265.024 87.467l30.731-30.741a4.23 4.23 0 0 0 0-5.984c-1.643-1.664-4.32-1.664-5.984 0L259.03 81.494a4.23 4.23 0 0 0 0 5.984c1.653 1.642 4.319 1.642 5.994-.011M126.837 285.312a4.25 4.25 0 0 0-5.547 2.304l-16.629 40.16a4.237 4.237 0 0 0 2.283 5.536 4.233 4.233 0 0 0 5.536-2.293l16.651-40.16a4.254 4.254 0 0 0-2.294-5.547m92.832-224.139a4.245 4.245 0 0 0 5.547-2.293l16.629-40.171a4.241 4.241 0 0 0-2.272-5.536 4.245 4.245 0 0 0-5.547 2.293l-16.651 40.16a4.243 4.243 0 0 0 2.294 5.547" fill="#ffd15c"/><path d="M477.291 305.941c3.605-12.885 5.685-26.432 5.685-40.459 0-82.784-67.104-149.888-149.888-149.888-57.909 0-108.053 32.896-133.013 80.96-11.765-4.171-24.373-6.539-37.568-6.539-60.053 0-108.992 46.997-112.352 106.219C20.459 310.965 0 341.515 0 376.907c0 49.781 40.352 90.123 90.133 90.123h58.955c17.973 27.082 48.725 44.97 83.648 44.97 34.944 0 65.675-17.888 83.648-44.971h105.493c49.771 0 90.123-40.341 90.123-90.123 0-28.853-13.6-54.463-34.709-70.965" fill="#f2f2f2"/><path d="M50.155 317.557c3.36-59.211 52.299-106.219 112.352-106.219 13.195 0 25.813 2.4 37.568 6.56 24.96-48.075 75.104-80.96 133.024-80.96 79.456 0 144.288 61.877 149.376 140.053.309-3.808.501-7.637.501-11.509 0-82.773-67.104-149.877-149.877-149.877-57.92 0-108.064 32.885-133.024 80.96-11.765-4.171-24.373-6.56-37.568-6.56-60.053 0-108.992 47.008-112.352 106.219C20.459 310.955 0 341.515 0 376.917c0 3.733.299 7.392.747 11.019 3.541-30.933 22.656-57.099 49.408-70.379" fill="#e4eaef"/></svg>