<svg xmlns="http://www.w3.org/2000/svg" viewBox="0 0 512 512"><path d="M256 0c141.386 0 256 114.614 256 256S397.386 512 256 512 0 397.386 0 256 114.614 0 256 0z" fill="#838383"/><path d="M149.042 201.588c0 77.886 63.145 141.029 141.029 141.029 77.89 0 141.026-63.143 141.026-141.029S367.961 60.561 290.071 60.561c-77.884 0-141.029 63.142-141.029 141.027z" fill="#8f8f8f"/><path d="M213.946 92.133a3.195 3.195 0 0 1 0 6.391 3.196 3.196 0 0 1 0-6.391zm103.457-17.154a1.75 1.75 0 1 1 0 3.5 1.75 1.75 0 0 1 0-3.5zM257.392 19.23a2.784 2.784 0 0 1 2.783 2.783 2.784 2.784 0 0 1-5.566 0 2.785 2.785 0 0 1 2.783-2.783zm161.707 411.368c.964 0 1.75.783 1.75 1.748a1.75 1.75 0 0 1-3.498 0c0-.965.782-1.748 1.748-1.748zm-296.982-5.67a1.749 1.749 0 1 1-.002 3.498 1.749 1.749 0 0 1 .002-3.498zm186.075 63.524zm162.712-244.07a1.75 1.75 0 1 1-.002 3.498 1.75 1.75 0 0 1 .002-3.498zm-28.498-33.07a1.749 1.749 0 1 1-.002 3.498 1.749 1.749 0 0 1 .002-3.498zm10.223 72.725c.967 0 1.748.781 1.748 1.75a1.748 1.748 0 1 1-3.496 0c0-.969.784-1.75 1.748-1.75zm-103.76 126.557a1.747 1.747 0 1 1 .002 3.494 1.747 1.747 0 0 1-.002-3.494zM85.039 107.13c.967 0 1.748.781 1.748 1.748a1.748 1.748 0 1 1-3.496 0c0-.967.784-1.748 1.748-1.748zm74.895-47.668a1.749 1.749 0 1 1-1.75 1.748 1.748 1.748 0 0 1 1.75-1.748zM21.692 247.88a1.75 1.75 0 0 1 0 3.5 1.75 1.75 0 0 1 0-3.5zm75.742 55.227a1.75 1.75 0 1 1-.002 3.498 1.75 1.75 0 0 1 .002-3.498zm7.364 63.31a1.75 1.75 0 1 1 .001 3.499 1.75 1.75 0 0 1-.001-3.499zm289.828-289.83zm21.403 29.979a6.83 6.83 0 1 1 0 13.661 6.83 6.83 0 0 1 0-13.661zM187.602 444.88a3.198 3.198 0 0 1 3.196 3.195 3.195 3.195 0 1 1-3.196-3.195zm256.277-110.951c6.874 0 12.447 5.575 12.447 12.448 0 6.876-5.573 12.452-12.447 12.452-6.876 0-12.45-5.575-12.45-12.452 0-6.873 5.574-12.448 12.45-12.448zM99.855 195.951a8.053 8.053 0 0 1 8.052 8.053 8.052 8.052 0 1 1-16.105 0 8.054 8.054 0 0 1 8.053-8.053zm40.677-76.497a3.2 3.2 0 0 1 3.196 3.198 3.198 3.198 0 0 1-3.196 3.195 3.197 3.197 0 0 1 0-6.393z" fill="#fafbfc"/><path d="M338.838 83.688c44.454 0 80.49 36.038 80.49 80.493 0 44.454-36.036 80.492-80.49 80.492-44.456 0-80.493-36.038-80.493-80.492 0-44.455 36.037-80.493 80.493-80.493z" fill="#fbfbfb"/><path d="M338.838 93.639c38.958 0 70.542 31.583 70.542 70.542 0 38.961-31.584 70.542-70.542 70.542-38.962 0-70.542-31.581-70.542-70.542 0-38.96 31.58-70.542 70.542-70.542z" fill="#fff"/><path d="M371.711 101.754a70.913 70.913 0 0 1 28.003 26.771 19.389 19.389 0 0 1-12.663 4.68c-10.75 0-19.466-8.714-19.466-19.464a19.41 19.41 0 0 1 4.126-11.987zm-81.285 43.238c10.75 0 19.466 8.714 19.466 19.466 0 10.75-8.716 19.464-19.466 19.464-10.75 0-19.466-8.714-19.466-19.464 0-10.753 8.715-19.466 19.466-19.466zm53.05 1.5c10.748 0 19.466 8.718 19.466 19.466 0 10.752-8.718 19.468-19.466 19.468-10.752 0-19.468-8.716-19.468-19.468.001-10.748 8.716-19.466 19.468-19.466z" fill="#efefef"/><path d="M73.22 435.216c14.328-18.959 28.749-36.425 43.501-52.171 11.698-12.493 32.701-13.322 46.177-4.506 65.323 42.729 103.025 86.626 128.279 131.044A258.191 258.191 0 0 1 256 512c-71.598 0-136.322-29.405-182.78-76.784z" fill="#6c4c40"/><path d="M150.123 373.435c4.604.909 8.989 2.627 12.775 5.104 65.323 42.729 103.025 86.626 128.279 131.044A258.191 258.191 0 0 1 256 512c-39.305 0-76.534-8.867-109.814-24.695 11.066-7.676 20.535-17.258 10.283-36.034-22.568-41.325-6.346-77.836-6.346-77.836z" fill="#4b342c"/><path d="M271.617 511.512c25.969-64.305 62.626-131.967 133.014-210.236 3.258-3.622 6.79-6.469 10.395-8.514a261.45 261.45 0 0 1 71.52 74.647c-39.288 81.143-120.156 138.397-214.929 144.103z" fill="#6c4c40"/><path d="M429.533 444.19c7.538-18.064 9.093-36.696-7.36-45.549-30.305-16.307-9.547-79.425-1.118-101.564a261.412 261.412 0 0 1 65.491 70.332c-14.087 29.088-33.518 55.105-57.013 76.781z" fill="#5c4036"/><path d="M155.854 238.385a2.64 2.64 0 1 1-.002 5.28 2.64 2.64 0 0 1 .002-5.28zm77.363 43.4a2.64 2.64 0 0 1 2.639 2.641 2.64 2.64 0 1 1-2.639-2.641zm-15.095-51.823a2.64 2.64 0 1 1-.002 5.28 2.64 2.64 0 0 1 .002-5.28zm73.962 54.341a2.64 2.64 0 1 1 .001 5.28 2.64 2.64 0 0 1-.001-5.28zm-132.327 17.61a2.64 2.64 0 1 1 .001 5.28 2.64 2.64 0 0 1-.001-5.28zm99.622 65.409a2.64 2.64 0 1 1 .002 5.28 2.64 2.64 0 0 1-.002-5.28zm54.338-41.259a2.64 2.64 0 1 1 .001 5.28 2.64 2.64 0 0 1-.001-5.28zm-97.608 8.556a2.64 2.64 0 1 1-2.641 2.639 2.64 2.64 0 0 1 2.641-2.639zM52.588 287.823a2.642 2.642 0 1 1-.001 5.283 2.642 2.642 0 0 1 .001-5.283zm311.948-8.552a2.64 2.64 0 1 1 .001 5.28 2.64 2.64 0 0 1-.001-5.28zM208.059 155.377a2.64 2.64 0 1 1 .002 5.28 2.64 2.64 0 0 1-.002-5.28zm-143.271 7.672a2.64 2.64 0 1 1-.002 5.28 2.64 2.64 0 0 1 .002-5.28z" fill="#fff"/></svg>