<svg xmlns="http://www.w3.org/2000/svg" viewBox="0 0 511.999 511.999"><path d="M232.675 297.794c-17.034 0-30.81-1.407-42.675-8.274-15.303-8.853-24.308-25.068-33.018-40.748l-.057-.103c-1.552-2.795-3.158-5.684-4.758-8.45-1.662-2.872-3.45-5.812-5.178-8.657-8.708-14.33-18.579-30.571-18.579-48.752 0-18.183 9.87-34.424 18.578-48.752 1.737-2.859 3.524-5.8 5.177-8.656 1.627-2.813 3.247-5.73 4.814-8.55 8.709-15.682 17.715-31.897 33.02-40.753 11.866-6.865 25.643-8.272 42.679-8.272 3.132 0 6.313.044 9.524.089a686.882 686.882 0 0 0 18.818 0c3.205-.044 6.377-.088 9.502-.088 17.049 0 30.835 1.407 42.7 8.271 15.305 8.855 24.312 25.071 33.022 40.755 1.567 2.821 3.188 5.74 4.813 8.547 1.639 2.832 3.41 5.748 5.124 8.57 8.761 14.415 18.631 30.656 18.631 48.839 0 18.181-9.87 34.423-18.577 48.751-1.741 2.863-3.526 5.802-5.178 8.657-1.627 2.813-3.247 5.73-4.814 8.55-8.709 15.682-17.715 31.897-33.02 40.753-11.867 6.865-25.643 8.272-42.679 8.272-3.132 0-6.313-.044-9.524-.089-3.14-.043-6.282-.086-9.409-.086s-6.269.043-9.409.086c-3.212.045-6.391.089-9.524.089l-.003.001z" fill="#8ec155"/><path d="M324.607 243.733c-3.132 0-6.313-.044-9.524-.089-3.14-.043-6.283-.086-9.409-.086-3.127 0-6.269.043-9.409.086-3.212.045-6.391.089-9.524.089h-.004c-17.034 0-30.81-1.407-42.675-8.274-15.303-8.853-24.308-25.068-33.018-40.748l-.057-.103c-1.552-2.795-3.158-5.684-4.758-8.45-1.662-2.872-3.45-5.812-5.178-8.657-8.708-14.33-18.579-30.571-18.579-48.752 0-18.183 9.87-34.424 18.578-48.752 1.737-2.859 3.524-5.8 5.177-8.656.289-.498.574-1.01.861-1.514-6.152 1.25-11.812 3.219-17.089 6.273-15.304 8.855-24.311 25.071-33.02 40.753-1.566 2.82-3.186 5.738-4.814 8.55-1.652 2.856-3.439 5.797-5.177 8.656-8.708 14.329-18.578 30.569-18.578 48.752 0 18.181 9.87 34.423 18.579 48.752 1.728 2.844 3.516 5.785 5.178 8.657 1.6 2.766 3.205 5.655 4.758 8.45l.057.103c8.709 15.68 17.714 31.894 33.018 40.748 11.865 6.867 25.641 8.274 42.675 8.274h.004c3.133 0 6.313-.044 9.524-.089 3.14-.043 6.282-.086 9.409-.086s6.269.043 9.409.086c3.212.045 6.393.089 9.524.089 17.034 0 30.811-1.407 42.679-8.272 15.304-8.855 24.311-25.071 33.02-40.753a705.036 705.036 0 0 1 3.953-7.037c-7.68 1.561-16.131 2-25.59 2z" fill="#89a534"/><path d="M467.827 500.471c-3.139-31.645-23.247-61.9-56.62-85.189-35.337-24.661-83.302-40.299-135.06-44.034l-11.582-.836-24.96-.033-11.521.796c-52.343 3.62-100.787 19.368-136.411 44.346-33.16 23.251-53.147 53.42-56.278 84.95-.611 6.173 4.239 11.528 10.444 11.528h411.549c6.202 0 11.052-5.355 10.439-11.528z" fill="#8ec155"/><g fill="#6da02b"><path d="M87.366 500.469c3.131-31.53 23.117-61.699 56.278-84.95 35.066-24.586 82.556-40.22 133.955-44.157-.484-.037-.965-.081-1.45-.115l-11.582-.836-24.96-.033-11.521.796c-52.343 3.62-100.787 19.368-136.411 44.346-33.16 23.251-53.147 53.42-56.278 84.95-.613 6.173 4.237 11.528 10.441 11.528h51.968c-6.204.001-11.053-5.354-10.44-11.529z"/><path d="M269.663 408.785l-18.541-18.541a3.59 3.59 0 0 0-5.148.074L135.703 507.219a3.586 3.586 0 0 1-2.449 1.122l-37.716 1.711a3.584 3.584 0 0 0-3.025 1.946h73.617l103.463-98.071a3.587 3.587 0 0 0 .07-5.142z"/></g><path d="M233.271 411.046l4.672-174.593a3.29 3.29 0 0 0-.859-2.307l-31.785-34.803a3.291 3.291 0 0 1-.213-4.18l10.821-14.584a3.29 3.29 0 0 1 5.073-.258l12.728 13.936c1.989 2.178 5.619.84 5.719-2.108l.419-12.379a3.29 3.29 0 0 0-.859-2.33l-19.368-21.209a3.291 3.291 0 0 1-.213-4.18l10.821-14.583a3.29 3.29 0 0 1 5.073-.258l14.784 16.189a3.29 3.29 0 0 0 4.86 0l32.923-36.052a3.29 3.29 0 0 1 5.073.259l10.819 14.586a3.291 3.291 0 0 1-.213 4.18l-38.702 42.38a3.29 3.29 0 0 0-.859 2.33l.788 23.279c.1 2.948 3.73 4.286 5.719 2.108l7.247-7.935a3.29 3.29 0 0 1 5.073.258l10.824 14.58a3.291 3.291 0 0 1-.212 4.181l-26.301 28.799a3.293 3.293 0 0 0-.859 2.316l4.738 162.371a3.29 3.29 0 0 1-3.289 3.387H236.56a3.292 3.292 0 0 1-3.289-3.38z" fill="#a88d68"/><path d="M332.648 176.722a7.845 7.845 0 0 1-5.565-2.305l-12.83-12.831a7.868 7.868 0 0 1 .001-11.128 7.869 7.869 0 0 1 11.128.001l12.83 12.831a7.868 7.868 0 0 1-.001 11.128 7.84 7.84 0 0 1-5.563 2.304zm-167.54-6.048a7.87 7.87 0 0 1-3.007-15.145l24.562-10.142a7.867 7.867 0 0 1 10.277 4.269 7.87 7.87 0 0 1-4.269 10.277l-24.562 10.142a7.83 7.83 0 0 1-3.001.599zm86.49-61.875a7.843 7.843 0 0 1-2.495-.408l-23.529-7.865a7.87 7.87 0 0 1-4.969-9.958 7.871 7.871 0 0 1 9.958-4.968l23.529 7.865a7.87 7.87 0 0 1-2.494 15.334zm51.114 143.204a7.87 7.87 0 0 1-3.233-15.048l17.11-7.699a7.87 7.87 0 0 1 6.457 14.353l-17.11 7.699a7.847 7.847 0 0 1-3.224.695zm-94.957 4.275a7.85 7.85 0 0 1-5.732-2.476l-13.687-14.543a7.868 7.868 0 0 1 .337-11.123 7.868 7.868 0 0 1 11.123.338l13.687 14.543a7.868 7.868 0 0 1-5.728 13.261z" fill="#dddd4a"/><path d="M431.999 59.802a7.87 7.87 0 0 1-5.565-13.433l34.623-34.623a7.87 7.87 0 0 1 11.129 11.129l-34.623 34.623a7.848 7.848 0 0 1-5.564 2.304zm-70.295 69.246a7.87 7.87 0 0 1-5.565-13.433l43.016-43.016a7.87 7.87 0 0 1 11.129 11.129l-43.016 43.016a7.848 7.848 0 0 1-5.564 2.304zm55.082 128.525a7.87 7.87 0 0 1-5.565-13.433l62.426-62.426a7.87 7.87 0 0 1 11.129 11.129l-62.426 62.426a7.848 7.848 0 0 1-5.564 2.304zm-62.426 69.77a7.87 7.87 0 0 1-5.565-13.433l28.328-28.328a7.87 7.87 0 0 1 11.129 11.129l-28.328 28.328a7.848 7.848 0 0 1-5.564 2.304zm-243.41-90.229a7.87 7.87 0 0 1-5.564-13.433l46.164-46.164a7.87 7.87 0 0 1 11.128 11.129l-46.164 46.164a7.848 7.848 0 0 1-5.564 2.304zm-78.164 77.114a7.87 7.87 0 0 1-5.564-13.433l58.229-58.23a7.87 7.87 0 0 1 11.128 11.129l-58.23 58.23a7.844 7.844 0 0 1-5.563 2.304zm45.115-162.623a7.87 7.87 0 0 1-5.564-13.433l99.148-99.148a7.87 7.87 0 0 1 11.128 11.129l-99.148 99.148a7.85 7.85 0 0 1-5.564 2.304zm-45.115 38.82a7.87 7.87 0 0 1-5.564-13.433l19.41-19.41a7.87 7.87 0 0 1 11.128 11.129l-19.41 19.41a7.848 7.848 0 0 1-5.564 2.304zm4.197-126.951a7.87 7.87 0 0 1-5.564-13.433L79.157 2.304a7.87 7.87 0 0 1 11.128 11.129L42.547 61.17a7.85 7.85 0 0 1-5.564 2.304zm89.18 290.623a7.87 7.87 0 0 1-5.564-13.433l46.689-46.689a7.87 7.87 0 0 1 11.128 11.129l-46.689 46.689a7.848 7.848 0 0 1-5.564 2.304z" fill="#8bf2e6"/><path d="M252.065 154.425a3.262 3.262 0 0 1-1.981-1.026L235.3 137.21a3.29 3.29 0 0 0-5.073.258l-10.821 14.583a3.289 3.289 0 0 0 .213 4.18l19.368 21.209a3.29 3.29 0 0 1 .859 2.33l-.42 12.379c-.1 2.948-3.73 4.286-5.719 2.108L220.98 180.32a3.29 3.29 0 0 0-5.073.258l-10.821 14.584a3.29 3.29 0 0 0 .213 4.18l31.785 34.802c.574.63.882 1.456.859 2.307l-4.672 174.593a3.29 3.29 0 0 0 3.29 3.379h15.504V154.425z" fill="#916f47"/></svg>