<svg xmlns="http://www.w3.org/2000/svg" viewBox="0 0 512 512"><path d="M350.398 294.491c-1.122 0-2.26-.058-3.382-.17-12.764-1.289-29.937-19.313-36.728-27.002-3.089-3.497-2.545-8.885 1.18-11.694h.001c7.657-5.775 26.841-19.205 39.572-19.205.62 0 1.232.03 1.821.09 8.273.836 15.757 4.625 21.066 10.666 5.318 6.054 7.817 13.643 7.037 21.372-1.496 14.79-14.637 25.943-30.567 25.943-.001 0 .001 0 0 0z" fill="#a3400f"/><path d="M467.457 81.829c-20.698 0-37.537-16.838-37.537-37.537s16.838-37.537 37.537-37.537c20.698 0 37.537 16.838 37.537 37.537s-16.839 37.537-37.537 37.537z" fill="#ff7e45"/><path d="M490.802 58.484c-20.698 0-37.537-16.838-37.537-37.537 0-4.255.722-8.342 2.032-12.158-14.746 5.063-25.378 19.061-25.378 35.504 0 20.698 16.838 37.537 37.537 37.537 16.443 0 30.441-10.631 35.505-25.379a37.354 37.354 0 0 1-12.159 2.033z" fill="#ed5e26"/><path d="M459.539 496.445c-2.959-29.87-22.127-58.419-53.974-80.388-33.851-23.353-79.703-38-129.108-41.244l-8.786-.578h-27.939l-.088.134-8.759.662c-48.555 3.674-93.552 18.429-126.704 41.549-31.385 21.886-50.285 50.25-53.22 79.866-.467 4.712 3.234 8.798 7.969 8.798h392.641c4.734-.001 8.435-4.087 7.968-8.799z" fill="#d3c04f"/><g fill="#c6a812"><path d="M100.541 496.445c2.936-29.616 21.836-57.98 53.22-79.866 33.041-23.044 77.853-37.774 126.224-41.509-1.175-.09-2.35-.18-3.529-.257l-8.786-.578h-27.939l-.088.134-8.759.662c-48.555 3.674-93.552 18.429-126.704 41.549-31.385 21.886-50.285 50.25-53.22 79.866-.467 4.712 3.234 8.798 7.969 8.798h49.58c-4.734-.001-8.434-4.087-7.968-8.799zm246.255-26.015c-4.089 0-7.474-.944-10.064-2.805-4.456-3.203-7.699-7.541-9.133-12.214-1.448-4.721-.88-9.221 1.601-12.67 2.546-3.541 6.938-5.572 12.049-5.572 4.695 0 9.644 1.7 13.939 4.786 5.719 4.112 7.338 12.491 7.69 18.795l.017.307a7.627 7.627 0 0 1-5.605 7.782l-.296.081c-2.524.689-6.339 1.51-10.198 1.51zm-57.058 24.187c-.205 0-.41-.005-.613-.015-11.389-.579-20.278-8.129-19.836-16.834.215-4.244 2.581-8.115 6.659-10.901 3.661-2.499 8.415-3.876 13.388-3.876.457 0 .916.012 1.376.035 7.028.357 12.929 6.522 16.64 11.63l.181.249a7.628 7.628 0 0 1-.495 9.579l-.205.229c-4.056 4.518-10.315 9.904-17.095 9.904z"/><path d="M147.668 486.519c-3.398 0-6.959-.779-10.298-2.255-6.444-2.851-9.751-10.72-11.39-16.821l-.079-.295a7.63 7.63 0 0 1 3.872-8.761l.272-.14c2.952-1.521 8.719-4.072 14.179-4.072 2.169 0 4.163.394 5.925 1.172 5.024 2.22 9.09 5.798 11.452 10.076 2.388 4.323 2.757 8.845 1.038 12.73-2.281 5.159-8.018 8.366-14.971 8.366z"/><path d="M169.957 505.243l98.709-93.565a3.426 3.426 0 0 0 .066-4.907l-17.689-17.689a3.426 3.426 0 0 0-4.912.071l-105.205 111.53a3.419 3.419 0 0 1-2.335 1.07l-35.983 1.633a3.42 3.42 0 0 0-2.886 1.857h70.235z"/></g><path d="M355.182 459.824c-4.089 0-7.474-.944-10.064-2.805-4.456-3.203-7.7-7.541-9.133-12.214-1.448-4.721-.88-9.221 1.601-12.67 2.545-3.541 6.938-5.572 12.049-5.572 4.695 0 9.644 1.7 13.939 4.786 5.719 4.112 7.338 12.491 7.69 18.795l.017.307a7.627 7.627 0 0 1-5.605 7.782l-.296.081c-2.523.689-6.338 1.51-10.198 1.51.001 0 .001 0 0 0zm-57.057 24.186c-.205 0-.41-.005-.613-.015-11.389-.579-20.278-8.129-19.836-16.834.215-4.244 2.581-8.115 6.659-10.901 3.661-2.499 8.415-3.876 13.388-3.876.457 0 .916.012 1.376.035 7.028.357 12.929 6.522 16.64 11.63l.181.249a7.628 7.628 0 0 1-.495 9.579l-.205.229c-4.057 4.518-10.315 9.904-17.095 9.904zm-67.947-38.903c-5.223 0-10.655-2.28-14.293-4.194l-.271-.142a7.628 7.628 0 0 1-3.799-8.794l.082-.296c1.693-6.088 5.068-13.931 11.535-16.723 3.284-1.418 6.785-2.168 10.121-2.168 7.046 0 12.83 3.255 15.095 8.495 1.685 3.901 1.277 8.418-1.147 12.721-2.399 4.257-6.496 7.8-11.535 9.976-1.729.746-3.676 1.125-5.788 1.125zm-74.123 30.804c-3.398 0-6.959-.779-10.298-2.255-6.444-2.851-9.751-10.72-11.39-16.821l-.079-.295a7.63 7.63 0 0 1 3.872-8.761l.272-.14c2.952-1.521 8.719-4.072 14.179-4.072 2.169 0 4.163.394 5.925 1.172 5.024 2.22 9.09 5.798 11.452 10.076 2.388 4.323 2.757 8.845 1.038 12.73-2.281 5.161-8.019 8.366-14.971 8.366z" fill="#a3400f"/><path d="M362.394 457.019c-4.456-3.203-7.7-7.541-9.133-12.214-1.448-4.721-.88-9.221 1.601-12.67 1.033-1.438 2.383-2.612 3.95-3.516-3.002-1.335-6.141-2.056-9.176-2.056-5.111 0-9.502 2.031-12.049 5.572-2.48 3.449-3.048 7.95-1.601 12.67 1.433 4.673 4.677 9.011 9.133 12.214 2.589 1.86 5.975 2.805 10.064 2.805 3.646 0 7.238-.732 9.751-1.394a13.44 13.44 0 0 1-2.54-1.411zm-67.443 10.142c.215-4.244 2.581-8.115 6.659-10.901 1.146-.783 2.41-1.441 3.745-1.996-1.952-1.046-4.048-1.732-6.256-1.845a27.502 27.502 0 0 0-1.376-.035c-4.973 0-9.727 1.376-13.388 3.876-4.079 2.785-6.443 6.655-6.659 10.901-.441 8.706 8.447 16.256 19.836 16.834.202.01.407.015.613.015 2.661 0 5.239-.837 7.637-2.118-6.689-2.925-11.125-8.527-10.811-14.731zm-61.791-26.249l-.271-.143a7.628 7.628 0 0 1-3.799-8.794l.082-.295c1.693-6.088 5.068-13.931 11.535-16.723.362-.156.729-.301 1.095-.441-2.392-1.115-5.202-1.727-8.249-1.727-3.336 0-6.837.75-10.121 2.168-6.468 2.793-9.843 10.635-11.535 16.723l-.082.295a7.63 7.63 0 0 0 3.799 8.794l.271.143c3.638 1.914 9.071 4.194 14.293 4.194 2.112 0 4.06-.379 5.787-1.125a27.2 27.2 0 0 0 1.907-.915 45.049 45.049 0 0 1-4.712-2.154zm-70.128 32.744c-6.444-2.851-9.751-10.72-11.39-16.821l-.079-.295a7.63 7.63 0 0 1 3.872-8.761l.272-.14a45.46 45.46 0 0 1 4.582-2.046 27.62 27.62 0 0 0-1.754-.855c-1.762-.778-3.756-1.172-5.925-1.172-5.46 0-11.227 2.552-14.179 4.072l-.272.14a7.627 7.627 0 0 0-3.872 8.761l.079.295c1.64 6.101 4.946 13.971 11.39 16.821 3.339 1.476 6.901 2.255 10.298 2.255 3.041 0 5.849-.614 8.237-1.735a27.59 27.59 0 0 1-1.259-.519z" fill="#7f2b05"/><path d="M237.813 408.637l4.412-164.918a3.417 3.417 0 0 0-.895-2.4l-29.521-32.324a3.423 3.423 0 0 1-.221-4.349l7.547-10.172a3.423 3.423 0 0 1 5.278-.268l13.114 14.359c2.07 2.266 5.847.875 5.951-2.193l.567-16.721a3.421 3.421 0 0 0-.894-2.425l-17.679-19.361a3.424 3.424 0 0 1-.221-4.35l7.548-10.169a3.424 3.424 0 0 1 5.278-.268l13.501 14.782a3.425 3.425 0 0 0 5.057 0l30.806-33.732a3.424 3.424 0 0 1 5.278.268l7.548 10.169a3.424 3.424 0 0 1-.221 4.35l-36.126 39.559a3.423 3.423 0 0 0-.894 2.425l.919 27.121c.104 3.068 3.881 4.46 5.951 2.193l7.886-8.634a3.424 3.424 0 0 1 5.278.268l7.547 10.171a3.424 3.424 0 0 1-.221 4.35l-24.29 26.598c-.6.657-.92 1.52-.894 2.409l4.472 153.254a3.424 3.424 0 0 1-3.422 3.524h-25.017a3.425 3.425 0 0 1-3.422-3.516z" fill="#a88d68"/><path d="M67.953 293.026c-14.395 0-26.106-11.71-26.106-26.105s11.711-26.106 26.106-26.106h83.695a7.506 7.506 0 0 1 7.507 7.507 7.506 7.506 0 0 1-7.507 7.507H67.953c-6.116 0-11.092 4.976-11.092 11.092 0 6.115 4.976 11.091 11.092 11.091s11.092-4.976 11.092-11.091a7.506 7.506 0 0 1 7.507-7.507 7.506 7.506 0 0 1 7.507 7.507c.001 14.394-11.711 26.105-26.106 26.105zM119.1 225.14H26.106C11.711 225.14 0 213.429 0 199.034s11.711-26.105 26.106-26.105 26.106 11.71 26.106 26.105c0 4.147-3.361 7.507-7.507 7.507s-7.507-3.36-7.507-7.507c0-6.115-4.976-11.091-11.092-11.091s-11.092 4.975-11.092 11.091 4.976 11.092 11.092 11.092H119.1a7.506 7.506 0 0 1 7.507 7.507 7.506 7.506 0 0 1-7.507 7.507z" fill="#d3c04f"/><path d="M131.17 113.313c-1.116 0-2.248-.057-3.364-.169-12.769-1.289-29.943-19.313-36.734-27.002-3.089-3.497-2.544-8.886 1.181-11.694 7.656-5.774 26.842-19.203 39.59-19.203.608 0 1.209.029 1.786.087 8.289.837 15.773 4.626 21.083 10.667 5.318 6.054 7.817 13.643 7.037 21.372-1.494 14.789-14.64 25.942-30.579 25.942 0 0 .001 0 0 0z" fill="#a3400f"/><path d="M370.379 274.511c-.001 0 .001 0 0 0-1.123 0-2.261-.058-3.383-.17-12.764-1.289-29.937-19.313-36.728-27.002a7.978 7.978 0 0 1-1.68-3.051c-7.043 3.983-13.425 8.55-17.121 11.337-3.726 2.81-4.269 8.197-1.18 11.694 6.791 7.69 23.963 25.713 36.728 27.002 1.122.112 2.26.17 3.382.17.001 0 0 0 0 0 14.265 0 26.287-8.947 29.717-21.438a32.96 32.96 0 0 1-9.735 1.458zM151.152 93.333c-.001 0 0 0 0 0-1.116 0-2.248-.057-3.364-.169-12.769-1.289-29.943-19.313-36.734-27.002a7.978 7.978 0 0 1-1.679-3.048c-7.045 3.982-13.426 8.548-17.121 11.334-3.726 2.81-4.27 8.197-1.181 11.694 6.791 7.69 23.963 25.713 36.734 27.002 1.116.112 2.248.169 3.364.169.001 0 0 0 0 0 14.273 0 26.301-8.949 29.731-21.44a33.033 33.033 0 0 1-9.75 1.46z" fill="#7f2b05"/><path d="M504.493 293.036h-48.047c-4.146 0-7.507-3.36-7.507-7.507s3.361-7.507 7.507-7.507h48.047c4.146 0 7.507 3.36 7.507 7.507s-3.361 7.507-7.507 7.507z" fill="#d3c04f"/><path d="M253.077 168.797a3.375 3.375 0 0 1-1.498-.939l-13.501-14.783a3.425 3.425 0 0 0-5.278.268l-7.548 10.169a3.424 3.424 0 0 0 .221 4.35l17.679 19.361c.604.661.924 1.531.894 2.424l-.567 16.722c-.104 3.067-3.881 4.46-5.951 2.193l-13.114-14.359a3.424 3.424 0 0 0-5.278.269l-7.547 10.172a3.423 3.423 0 0 0 .221 4.349l29.521 32.324c.598.655.918 1.515.895 2.4l-4.412 164.917a3.424 3.424 0 0 0 3.423 3.516h11.841V168.797z" fill="#916f47"/></svg>