<svg xmlns="http://www.w3.org/2000/svg" viewBox="0 0 512 512"><defs><linearGradient id="d"><stop offset="0" stop-color="#FF977B"><animate id="a" calcMode="linear" dur="1s" attributeName="offset" fill="freeze" from="0" to="1"/></stop><stop offset="0" stop-color="#FFF"><animate calcMode="linear" dur="1s" attributeName="offset" fill="freeze" from="0" to="1"/></stop></linearGradient></defs><defs><linearGradient id="e"><stop offset="0" stop-color="#F95948"><animate calcMode="linear" dur="0.7s" attributeName="offset" fill="freeze" from="0" to="1"/></stop><stop offset="0" stop-color="#FFF"><animate calcMode="linear" dur="0.7s" attributeName="offset" fill="freeze" from="0" to="1"/></stop></linearGradient></defs><defs><linearGradient id="f"><stop offset="0" stop-color="#FF977B"><animate calcMode="linear" dur="1s" attributeName="offset" fill="freeze" from="0" to="1" begin="a.end"/></stop><stop offset="0" stop-color="#FFF"><animate calcMode="linear" dur="1s" attributeName="offset" fill="freeze" from="0" to="1" begin="a.end"/></stop></linearGradient></defs><defs><linearGradient id="g"><stop offset="0" stop-color="#AEEF66"><animate calcMode="linear" dur="0.7s" attributeName="offset" fill="freeze" from="0" to="1" begin="b.end"/></stop><stop offset="0" stop-color="#FFF"><animate calcMode="linear" dur="0.7s" attributeName="offset" fill="freeze" from="0" to="1" begin="b.end"/></stop></linearGradient></defs><defs><linearGradient id="h"><stop offset="0" stop-color="#8EC155"><animate calcMode="linear" dur="0.5s" attributeName="offset" fill="freeze" from="0" to="1" begin="b.end"/></stop><stop offset="0" stop-color="#FFF"><animate calcMode="linear" dur="0.5s" attributeName="offset" fill="freeze" from="0" to="1" begin="b.end"/></stop></linearGradient></defs><defs><linearGradient id="i"><stop offset="0" stop-color="#AEEF66"><animate id="b" calcMode="linear" dur="1s" attributeName="offset" fill="freeze" from="0" to="1"/></stop><stop offset="0" stop-color="#FFF"><animate calcMode="linear" dur="1s" attributeName="offset" fill="freeze" from="0" to="1"/></stop></linearGradient></defs><defs><linearGradient id="j"><stop offset="0" stop-color="#FFF873"><animate id="c" calcMode="linear" dur="0.85s" attributeName="offset" fill="freeze" from="0" to="1"/></stop><stop offset="0" stop-color="#FFF"><animate calcMode="linear" dur="0.85s" attributeName="offset" fill="freeze" from="0" to="1"/></stop></linearGradient></defs><defs><linearGradient id="k"><stop offset="0" stop-color="#FFF873"><animate calcMode="linear" dur="1s" attributeName="offset" fill="freeze" from="0" to="1" begin="c.end"/></stop><stop offset="0" stop-color="#FFF"><animate calcMode="linear" dur="1s" attributeName="offset" fill="freeze" from="0" to="1" begin="c.end"/></stop></linearGradient></defs><path class="rainbow rainbow1" fill="url(#d)" d="M53.113 355.84c0-51.12 21.798-100.071 59.804-134.299l10.563-9.661 53.074 76.301-8.451 9.896c-14.061 15.929-21.805 36.443-21.805 57.763v33.115l-5.709 1.816c-28.957 9.211-54.531 22.867-73.957 39.49l-13.518 11.568-.001-85.989z"/><path class="rainbow rainbow2" fill="url(#e)" d="M67.242 355.84c0-51.12 21.798-100.071 59.804-134.299l1.927-1.763-5.494-7.898-10.563 9.661C74.91 255.769 53.113 304.72 53.113 355.84v85.989l13.518-11.568c.2-.171.41-.337.611-.507V355.84z"/><path class="rainbow rainbow3" fill="url(#f)" d="M401.072 430.326a171.805 171.805 0 0 0-13.186-10.182c-17.369-12.126-37.819-21.988-60.782-29.312l-5.703-1.819V355.84c0-21.538-7.888-42.215-22.212-58.22l-5.648-6.31 6.494-5.435c10.555-8.834 17.769-21.824 24.747-34.385 1.6-2.883 3.114-5.607 4.705-8.359 1.65-2.849 3.386-5.705 5.065-8.467 2.296-3.78 4.664-7.677 6.88-11.657l4.972-8.93 7.633 6.797c38.479 34.261 60.548 83.454 60.548 134.966v86.032l-13.513-11.546z"/><path class="rainbow rainbow4" fill="url(#g)" d="M341.994 396.087a261.245 261.245 0 0 0-14.891-5.255l-5.703-1.819V355.84c0-21.538-7.889-42.215-22.212-58.22l-5.648-6.31 6.494-5.435c3.259-2.727 6.347-5.968 9.441-9.907l5.964-7.594 6.521 7.123c20.109 21.967 31.184 50.5 31.184 80.343v44.565l-11.15-4.318z"/><path class="rainbow rainbow5" fill="url(#h)" d="M329.698 357.53c0-23.823-7.889-46.695-22.212-64.398l-5.648-6.98 6.494-6.012c3.012-2.787 5.877-6.068 8.736-9.987l-1.628-1.779-5.964 7.594c-3.093 3.939-6.182 7.18-9.441 9.907l-6.494 5.435 5.648 6.31c14.323 16.005 22.212 36.682 22.212 58.22v33.173l5.703 1.819c.863.275 1.73.563 2.595.85V357.53z"/><path class="rainbow rainbow6" fill="url(#i)" d="M114.553 355.84c0-29.525 10.858-57.824 30.576-79.683l12.857-14.201 18.567 26.225-8.451 9.896c-14.061 15.929-21.805 36.443-21.805 57.763v33.115l-5.709 1.816a259.765 259.765 0 0 0-14.889 5.247l-11.146 4.309V355.84z"/><path class="rainbow rainbow7" fill="url(#j)" d="M83.833 355.84c0-39.818 16.319-78.746 44.772-106.802l11.519-11.207 16.578 28.168-8.498 8.352c-21.039 22.038-32.626 50.978-32.626 81.489v44.291l-4.731 2.205a220.576 220.576 0 0 0-14.808 7.581l-12.205 6.857V355.84h-.001z"/><path class="rainbow rainbow8" fill="url(#k)" d="M371.661 409.991a221.383 221.383 0 0 0-14.808-7.584l-4.732-2.205V355.84c0-30.818-11.805-59.981-33.239-82.116l-4.388-4.532 3.26-5.401c2.431-4.027 4.768-8.233 7.028-12.301l5.912-10.619 7.666 7.454c28.919 28.12 45.504 67.308 45.504 107.515v61.007l-12.203-6.856z"/><path class="moon" d="M449.913 76.8c-21.174 0-38.4-17.226-38.4-38.4S428.738 0 449.913 0s38.4 17.226 38.4 38.4-17.226 38.4-38.4 38.4z" fill="#ffe44c"/><path class="moon" d="M472.448 48.827c-21.174 0-38.4-17.226-38.4-38.4 0-2.497.248-4.937.706-7.302-13.656 5.891-23.241 19.483-23.241 35.275 0 21.174 17.226 38.4 38.4 38.4 18.677 0 34.274-13.405 37.695-31.098a38.19 38.19 0 0 1-15.16 3.125z" fill="#ffc84d"/><path d="M216.284 298.841c-16.626 0-30.071-1.373-41.651-8.075-14.936-8.641-23.725-24.466-32.225-39.77l-.055-.1a532.71 532.71 0 0 0-4.644-8.247c-1.622-2.803-3.367-5.673-5.053-8.449-8.499-13.986-18.133-29.837-18.133-47.582 0-17.747 9.633-33.597 18.132-47.582 1.696-2.79 3.44-5.661 5.052-8.448 1.588-2.745 3.169-5.592 4.698-8.345 8.5-15.306 17.29-31.132 32.227-39.775 11.581-6.7 25.028-8.073 41.654-8.073 3.057 0 6.161.043 9.296.087a669.977 669.977 0 0 0 18.366 0c3.128-.043 6.224-.086 9.274-.086 16.64 0 30.095 1.373 41.675 8.072 14.938 8.643 23.728 24.469 32.229 39.777 1.53 2.754 3.112 5.602 4.697 8.341 1.599 2.764 3.328 5.611 5.001 8.364 8.55 14.069 18.184 29.92 18.184 47.667 0 17.745-9.633 33.596-18.131 47.581-1.699 2.794-3.442 5.663-5.053 8.449-1.588 2.745-3.169 5.592-4.698 8.345-8.5 15.306-17.29 31.132-32.227 39.775-11.582 6.7-25.028 8.073-41.654 8.073-3.057 0-6.161-.043-9.296-.087-3.065-.042-6.132-.084-9.183-.084s-6.118.042-9.183.084c-3.134.044-6.237.087-9.296.087l-.003.001z" fill="#8bb240"/><path d="M299.04 253.047c-3.057 0-6.161-.043-9.296-.087a671.404 671.404 0 0 0-9.183-.084c-3.051 0-6.118.042-9.183.084-3.134.044-6.237.087-9.296.087h-.004c-16.626 0-30.071-1.373-41.651-8.075-14.936-8.641-23.725-24.466-32.225-39.77l-.055-.1c-1.515-2.728-3.082-5.548-4.644-8.247-1.622-2.803-3.367-5.673-5.053-8.449-8.499-13.986-18.133-29.837-18.133-47.582 0-17.747 9.633-33.597 18.132-47.582 1.696-2.79 3.44-5.661 5.052-8.448a503.941 503.941 0 0 0 4.301-7.632c-4.664 1.214-9.039 2.916-13.169 5.306-14.937 8.643-23.727 24.47-32.227 39.775-1.529 2.753-3.11 5.6-4.698 8.345-1.613 2.787-3.357 5.658-5.052 8.448-8.499 13.985-18.132 29.835-18.132 47.582 0 17.745 9.633 33.596 18.133 47.582 1.687 2.776 3.431 5.646 5.053 8.449 1.562 2.699 3.128 5.519 4.644 8.247l.055.1c8.5 15.304 17.289 31.129 32.225 39.77 11.58 6.702 25.026 8.075 41.651 8.075h.004c3.058 0 6.161-.043 9.296-.087 3.065-.042 6.132-.084 9.183-.084s6.118.042 9.183.084c3.134.044 6.239.087 9.296.087 16.626 0 30.072-1.373 41.654-8.073 14.937-8.643 23.727-24.469 32.227-39.775l.397-.713c-8.415 2.189-17.79 2.767-28.485 2.767z" fill="#6d961d"/><path class="apple" d="M299.385 200.704c-9.316 0-16.896-7.58-16.896-16.896s7.58-16.896 16.896-16.896 16.896 7.58 16.896 16.896-7.58 16.896-16.896 16.896zM232.825 128c-9.316 0-16.896-7.58-16.896-16.896s7.58-16.896 16.896-16.896 16.896 7.58 16.896 16.896S242.141 128 232.825 128z" fill="#f95948"/><path class="apple" d="M232.825 94.208c-9.316 0-16.896 7.58-16.896 16.896S223.508 128 232.825 128s16.896-7.58 16.896-16.896-7.58-16.896-16.896-16.896zm-74.752 118.784c-7.058 0-12.8-5.742-12.8-12.8 0-7.058 5.742-12.8 12.8-12.8 7.058 0 12.8 5.742 12.8 12.8 0 7.058-5.742 12.8-12.8 12.8z" fill="#f95948"/><path class="apple" d="M310.002 190.086c-9.316 0-16.896-7.58-16.896-16.896 0-1.883.324-3.691.895-5.383-6.682 2.255-11.512 8.569-11.512 16.001 0 9.316 7.58 16.896 16.896 16.896 7.432 0 13.746-4.831 16.001-11.512-1.694.572-3.5.894-5.384.894zm-66.56-72.704c-9.316 0-16.896-7.58-16.896-16.896 0-1.883.324-3.69.895-5.383-6.682 2.255-11.512 8.569-11.512 16.001 0 9.316 7.58 16.896 16.896 16.896 7.432 0 13.746-4.831 16.001-11.512-1.694.572-3.5.894-5.384.894zm-74.752 84.992c-7.058 0-12.8-5.742-12.8-12.8 0-.685.07-1.353.173-2.009-6.104.969-10.791 6.254-10.791 12.627 0 7.058 5.742 12.8 12.8 12.8 6.373 0 11.657-4.687 12.627-10.791-.656.104-1.323.173-2.009.173z" fill="#e03a32"/><path d="M445.792 500.749c-3.064-30.886-22.689-60.414-55.261-83.145-34.489-24.069-81.303-39.332-131.819-42.977l-11.304-.816-24.361-.032-11.245.777c-51.086 3.533-98.369 18.903-133.137 43.281-32.365 22.693-51.872 52.138-54.927 82.911C23.142 506.774 27.875 512 33.93 512h401.671c6.056 0 10.789-5.225 10.191-11.251z" fill="#78a530"/><path d="M74.461 500.748c3.055-30.773 22.562-60.218 54.927-82.911 34.224-23.996 80.574-39.255 130.74-43.097-.472-.036-.942-.079-1.415-.113l-11.304-.816-24.361-.032-11.245.777c-51.086 3.533-98.369 18.903-133.137 43.281-32.365 22.693-51.872 52.138-54.927 82.911C23.142 506.774 27.875 512 33.93 512h50.721c-6.055 0-10.788-5.226-10.19-11.252z" fill="#729328"/><path class="apple2" d="M156.127 478.72c-9.316 0-16.896-7.58-16.896-16.896s7.58-16.896 16.896-16.896 16.896 7.58 16.896 16.896-7.581 16.896-16.896 16.896zm151.552 5.12c-9.316 0-16.896-7.58-16.896-16.896s7.58-16.896 16.896-16.896 16.896 7.58 16.896 16.896-7.581 16.896-16.896 16.896zm-64.512-27.648c-12.14 0-22.016-9.876-22.016-22.016s9.876-22.016 22.016-22.016 22.016 9.876 22.016 22.016-9.876 22.016-22.016 22.016z" fill="#729328"/><path d="M253.219 411.263l-18.096-18.096a3.503 3.503 0 0 0-5.025.073L122.473 507.335a3.504 3.504 0 0 1-2.389 1.095l-36.811 1.67a3.495 3.495 0 0 0-2.952 1.9h71.85l100.98-95.717a3.503 3.503 0 0 0 .068-5.02z" fill="#729328"/><path d="M216.865 413.47l4.56-170.403a3.213 3.213 0 0 0-.839-2.252l-31.022-33.968a3.214 3.214 0 0 1-.208-4.08l10.562-14.234a3.212 3.212 0 0 1 4.951-.252l12.422 13.602c1.941 2.126 5.485.82 5.582-2.057l.409-12.082a3.202 3.202 0 0 0-.839-2.274l-18.903-20.7a3.214 3.214 0 0 1-.208-4.08l10.562-14.233a3.212 3.212 0 0 1 4.951-.252l14.429 15.8a3.21 3.21 0 0 0 4.743 0l32.133-35.187a3.211 3.211 0 0 1 4.951.253l10.56 14.236a3.214 3.214 0 0 1-.208 4.08l-37.773 41.362a3.218 3.218 0 0 0-.839 2.274l.769 22.721c.097 2.877 3.64 4.183 5.582 2.057l7.073-7.745a3.212 3.212 0 0 1 4.951.252l10.565 14.231a3.214 3.214 0 0 1-.207 4.081l-25.67 28.108a3.214 3.214 0 0 0-.839 2.26l4.624 158.474a3.212 3.212 0 0 1-3.21 3.305h-30.404a3.21 3.21 0 0 1-3.21-3.297z" fill="#a88d68"/><path class="apple2" d="M163.193 464.896c-9.316 0-16.896-7.58-16.896-16.896s7.58-16.896 16.896-16.896 16.896 7.58 16.896 16.896-7.58 16.896-16.896 16.896zm151.552 5.12c-9.316 0-16.896-7.58-16.896-16.896s7.58-16.896 16.896-16.896 16.896 7.58 16.896 16.896-7.58 16.896-16.896 16.896z" fill="#f95948"/><path d="M234.766 162.913a3.183 3.183 0 0 1-1.492-.907l-14.429-15.8a3.212 3.212 0 0 0-4.951.252l-10.561 14.233a3.211 3.211 0 0 0 .208 4.08l18.903 20.7c.565.62.866 1.436.839 2.274l-.409 12.082c-.097 2.877-3.64 4.183-5.582 2.057l-12.422-13.602a3.212 3.212 0 0 0-4.951.252l-10.562 14.234a3.211 3.211 0 0 0 .208 4.08l31.022 33.967c.56.614.861 1.421.839 2.252l-4.56 170.403a3.212 3.212 0 0 0 3.21 3.298h14.69V162.913z" fill="#916f47"/><path class="apple2" d="M250.233 442.368c-12.14 0-22.016-9.876-22.016-22.016s9.876-22.016 22.016-22.016c12.14 0 22.016 9.876 22.016 22.016s-9.877 22.016-22.016 22.016z" fill="#f95948"/><path class="apple2" d="M177.743 450.346c-9.316 0-16.896-7.58-16.896-16.896 0-.743.065-1.47.159-2.188-8.284 1.078-14.709 8.165-14.709 16.738 0 9.316 7.58 16.896 16.896 16.896 8.573 0 15.659-6.425 16.737-14.709-.717.094-1.444.159-2.187.159zm151.552 5.12c-9.316 0-16.896-7.58-16.896-16.896 0-.743.064-1.47.159-2.188-8.284 1.078-14.709 8.165-14.709 16.738 0 9.316 7.58 16.896 16.896 16.896 8.573 0 15.659-6.425 16.737-14.709-.717.094-1.444.159-2.187.159zm-64.512-27.648c-12.14 0-22.016-9.876-22.016-22.016 0-2.258.344-4.436.978-6.488-8.983 2.776-15.528 11.155-15.528 21.038 0 12.14 9.876 22.016 22.016 22.016 9.883 0 18.262-6.545 21.038-15.529a21.91 21.91 0 0 1-6.488.979z" fill="#e03a32"/></svg>