<svg xmlns="http://www.w3.org/2000/svg" viewBox="0 0 512 512"><path d="M472.519 76.8c-21.174 0-38.4-17.226-38.4-38.4S451.344 0 472.519 0s38.4 17.226 38.4 38.4-17.226 38.4-38.4 38.4z" fill="#ffe44c"/><path d="M495.054 48.827c-21.174 0-38.4-17.226-38.4-38.4 0-2.497.248-4.937.706-7.302-13.656 5.891-23.241 19.483-23.241 35.275 0 21.174 17.226 38.4 38.4 38.4 18.677 0 34.274-13.405 37.695-31.098a38.19 38.19 0 0 1-15.16 3.125z" fill="#ffc84d"/><path d="M438.329 264.192c-20.327 0-36.864-16.537-36.864-36.864s16.537-36.864 36.864-36.864c17.115 0 32.108 11.974 35.926 28.575a24.184 24.184 0 0 1 12.296-3.351c13.373 0 24.252 10.879 24.252 24.252s-10.879 24.251-24.252 24.251h-48.222zM37.945 114.688c-20.327 0-36.864-16.537-36.864-36.864S17.618 40.96 37.945 40.96c17.115 0 32.109 11.974 35.926 28.575a24.181 24.181 0 0 1 12.296-3.351c13.373 0 24.252 10.879 24.252 24.252s-10.879 24.251-24.252 24.251H37.945z" fill="#c3fff9"/><path d="M435.694 227.328c0-14.141 8.008-26.441 19.723-32.622a36.633 36.633 0 0 0-17.087-4.242c-20.327 0-36.864 16.537-36.864 36.864s16.537 36.864 36.864 36.864h34.227c-20.327 0-36.863-16.537-36.863-36.864zM35.31 77.824c0-14.141 8.008-26.441 19.723-32.622a36.633 36.633 0 0 0-17.087-4.242c-20.327 0-36.864 16.537-36.864 36.864s16.537 36.864 36.864 36.864h34.227c-20.327 0-36.863-16.537-36.863-36.864z" fill="#8bf2e6"/><path d="M237.46 302.937c-16.626 0-30.071-1.373-41.651-8.075-14.936-8.641-23.725-24.466-32.225-39.77l-.055-.1c-1.515-2.728-3.082-5.548-4.644-8.247-1.622-2.803-3.367-5.673-5.053-8.449-8.499-13.986-18.133-29.837-18.133-47.582 0-17.747 9.633-33.597 18.132-47.582 1.696-2.79 3.44-5.661 5.052-8.448 1.588-2.745 3.169-5.592 4.698-8.345 8.5-15.306 17.29-31.132 32.227-39.775 11.581-6.7 25.028-8.073 41.654-8.073 3.057 0 6.161.043 9.296.087a669.977 669.977 0 0 0 18.366 0c3.128-.043 6.224-.086 9.274-.086 16.64 0 30.095 1.373 41.675 8.072 14.938 8.643 23.728 24.469 32.229 39.777 1.53 2.754 3.112 5.602 4.697 8.341 1.599 2.764 3.328 5.611 5.001 8.364 8.55 14.069 18.184 29.92 18.184 47.667 0 17.745-9.633 33.596-18.131 47.581-1.699 2.795-3.442 5.663-5.053 8.449-1.588 2.745-3.169 5.592-4.698 8.345-8.5 15.306-17.29 31.132-32.227 39.775-11.582 6.7-25.028 8.073-41.654 8.073-3.057 0-6.161-.043-9.296-.087-3.065-.042-6.132-.084-9.183-.084s-6.118.042-9.183.084c-3.134.044-6.237.087-9.296.087.001.001-.001.001-.003.001z" fill="#78a530"/><path d="M321.775 255.584c-3.057 0-6.161-.043-9.296-.087a671.404 671.404 0 0 0-9.183-.084c-3.051 0-6.118.042-9.183.084-3.134.044-6.237.087-9.296.087h-.004c-16.626 0-30.071-1.373-41.651-8.075-14.936-8.641-23.725-24.466-32.225-39.77l-.055-.1a532.71 532.71 0 0 0-4.644-8.247c-1.622-2.803-3.367-5.673-5.053-8.449-8.499-13.986-18.133-29.837-18.133-47.582 0-17.747 9.633-33.597 18.132-47.582 1.696-2.79 3.44-5.661 5.052-8.448a427.956 427.956 0 0 0 3.551-6.287c-4.972 1.224-9.608 2.992-13.979 5.52-14.937 8.643-23.727 24.47-32.227 39.775-1.529 2.753-3.11 5.6-4.698 8.345-1.613 2.787-3.357 5.658-5.052 8.448-8.499 13.985-18.132 29.835-18.132 47.582 0 17.745 9.633 33.596 18.133 47.582 1.687 2.776 3.431 5.646 5.053 8.449 1.562 2.699 3.128 5.519 4.644 8.247l.055.1c8.5 15.304 17.289 31.129 32.225 39.77 11.58 6.702 25.026 8.075 41.651 8.075h.004c3.058 0 6.161-.043 9.296-.087 3.065-.042 6.132-.084 9.183-.084s6.118.042 9.183.084c3.134.044 6.239.087 9.296.087 16.626 0 30.072-1.373 41.654-8.073 14.937-8.643 23.727-24.47 32.227-39.775.377-.679.765-1.371 1.147-2.058-8.204 2.019-17.323 2.553-27.675 2.553z" fill="#6d961d"/><path class="leaves" d="M334.351 206.764c-2.81 0-5.077-.648-6.929-1.98-3.158-2.27-5.445-5.365-6.439-8.713-1.008-3.398-.57-6.65 1.234-9.159 1.802-2.506 4.743-3.957 8.281-4.086.211-.006.359-.009.507-.009 3.332 0 6.816 1.186 9.81 3.339 2.847 2.046 4.545 5.652 5.191 11.024l.9 7.48-7.379 1.521c-1.873.387-3.614.583-5.176.583zM187.096 179.2c-4.109 0-8.543-1.324-12.485-3.728-5.12-3.121-7.472-9.618-8.544-14.518l-1.673-7.65 7.567-2.016c2.038-.543 5.13-1.19 8.287-1.19 3.341 0 6.213.72 8.538 2.14 4.355 2.655 7.734 6.35 9.509 10.399 1.802 4.11 1.742 8.101-.169 11.235-1.91 3.132-5.428 5.013-9.908 5.295-.399.023-.757.033-1.122.033zm67.193-54.513c-3.655 0-7.575-1.164-11.038-3.277-3.729-2.274-6.273-6.772-7.561-13.369l-1.434-7.347 7.187-2.089c1.989-.579 4.988-1.268 7.98-1.268 2.861 0 5.342.629 7.373 1.869 8.239 5.024 11.908 14.094 8.174 20.216-2.042 3.346-5.935 5.265-10.681 5.265z" fill="#b8d150"/><path d="M466.969 500.749c-3.064-30.886-22.689-60.414-55.261-83.145-34.489-24.069-81.303-39.332-131.819-42.977l-11.304-.816-24.361-.032-11.245.777c-51.086 3.533-98.369 18.903-133.137 43.281-32.365 22.693-51.872 52.138-54.927 82.911C44.319 506.774 49.052 512 55.108 512H456.78c6.054 0 10.787-5.225 10.189-11.251z" fill="#78a530"/><g fill="#729328"><path d="M95.639 500.748c3.055-30.773 22.562-60.218 54.927-82.911 34.224-23.996 80.574-39.255 130.74-43.097-.472-.036-.942-.079-1.415-.113l-11.304-.816-24.361-.032-11.245.777c-51.086 3.533-98.369 18.903-133.137 43.281-32.365 22.693-51.872 52.138-54.927 82.911C44.319 506.774 49.052 512 55.108 512h50.721c-6.056 0-10.788-5.226-10.19-11.252z"/><path d="M273.956 411.263l-18.096-18.096a3.503 3.503 0 0 0-5.025.073L143.211 507.335a3.504 3.504 0 0 1-2.389 1.095l-36.811 1.67a3.495 3.495 0 0 0-2.952 1.9h71.85l100.98-95.717a3.504 3.504 0 0 0 .067-5.02z"/></g><path d="M238.042 413.47l4.56-170.403a3.213 3.213 0 0 0-.839-2.252l-31.022-33.968a3.214 3.214 0 0 1-.208-4.08l10.562-14.234a3.212 3.212 0 0 1 4.951-.252l12.422 13.602c1.941 2.126 5.485.82 5.582-2.057l.409-12.082a3.202 3.202 0 0 0-.839-2.274l-18.903-20.7a3.214 3.214 0 0 1-.208-4.08l10.562-14.233a3.212 3.212 0 0 1 4.951-.252l14.429 15.8a3.21 3.21 0 0 0 4.743 0l32.133-35.187a3.211 3.211 0 0 1 4.951.253l10.56 14.236a3.214 3.214 0 0 1-.208 4.08l-37.773 41.362a3.218 3.218 0 0 0-.839 2.274l.769 22.721c.097 2.877 3.64 4.183 5.582 2.057l7.073-7.745a3.212 3.212 0 0 1 4.951.252l10.565 14.231a3.214 3.214 0 0 1-.207 4.081l-25.67 28.108a3.214 3.214 0 0 0-.839 2.26l4.624 158.474a3.212 3.212 0 0 1-3.21 3.305h-30.404a3.21 3.21 0 0 1-3.21-3.297z" fill="#a88d68"/><path d="M255.943 162.913a3.183 3.183 0 0 1-1.492-.907l-14.429-15.8a3.212 3.212 0 0 0-4.951.252L224.51 160.69a3.211 3.211 0 0 0 .208 4.08l18.903 20.7c.565.62.866 1.436.839 2.274l-.409 12.082c-.097 2.877-3.64 4.183-5.582 2.057l-12.422-13.602a3.212 3.212 0 0 0-4.951.252l-10.562 14.234a3.211 3.211 0 0 0 .208 4.08l31.022 33.967c.56.614.861 1.421.839 2.252l-4.56 170.403a3.212 3.212 0 0 0 3.21 3.298h14.69V162.913z" fill="#916f47"/></svg>