<svg xmlns="http://www.w3.org/2000/svg" viewBox="0 0 512 512"><path d="M235.139 282.207c-16.469 0-29.787-1.36-41.258-7.999-14.795-8.559-23.501-24.235-31.921-39.394l-.055-.099c-1.5-2.702-3.053-5.496-4.6-8.169-1.607-2.776-3.335-5.619-5.006-8.369-8.419-13.854-17.962-29.555-17.962-47.133 0-17.579 9.542-33.28 17.961-47.133 1.68-2.764 3.407-5.607 5.005-8.368 1.573-2.719 3.139-5.539 4.654-8.266 8.42-15.161 17.127-30.838 31.923-39.4 11.472-6.637 24.791-7.997 41.261-7.997 3.028 0 6.103.043 9.208.086a657.35 657.35 0 0 0 18.193 0 665.36 665.36 0 0 1 9.187-.085c16.483 0 29.811 1.36 41.281 7.996 14.797 8.561 23.504 24.238 31.925 39.402 1.515 2.728 3.083 5.549 4.653 8.263 1.584 2.738 3.297 5.558 4.954 8.285 8.47 13.936 18.012 29.638 18.012 47.217 0 17.577-9.542 33.279-17.96 47.132-1.683 2.768-3.409 5.609-5.006 8.369-1.573 2.719-3.139 5.539-4.654 8.266-8.42 15.161-17.127 30.838-31.923 39.4-11.473 6.637-24.791 7.997-41.261 7.997-3.028 0-6.103-.043-9.208-.086a658.737 658.737 0 0 0-9.096-.083c-3.023 0-6.061.042-9.096.083-3.105.044-6.178.086-9.208.086l-.003-.001z" fill="#b8d150"/><path d="M322.793 245.447c-3.028 0-6.103-.043-9.208-.086-3.036-.042-6.074-.083-9.096-.083s-6.061.042-9.096.083c-3.105.044-6.178.086-9.208.086h-.004c-16.469 0-29.787-1.36-41.258-7.999-14.795-8.559-23.501-24.235-31.921-39.394l-.055-.099c-1.5-2.702-3.053-5.496-4.6-8.169-1.607-2.776-3.335-5.619-5.006-8.369-8.419-13.854-17.962-29.555-17.962-47.133 0-17.579 9.542-33.28 17.961-47.133 1.68-2.764 3.407-5.607 5.005-8.368 1.573-2.719 3.139-5.539 4.654-8.266 1.84-3.313 3.698-6.647 5.625-9.929-9.238.946-17.375 3.026-24.745 7.289-14.796 8.561-23.503 24.238-31.923 39.4-1.514 2.727-3.081 5.547-4.654 8.266-1.598 2.761-3.325 5.604-5.005 8.368-8.419 13.853-17.961 29.553-17.961 47.133 0 17.577 9.542 33.279 17.962 47.133 1.671 2.75 3.399 5.593 5.006 8.369 1.547 2.674 3.099 5.467 4.6 8.169l.055.099c8.42 15.159 17.126 30.835 31.921 39.394 11.471 6.639 24.789 7.999 41.258 7.999h.004c3.029 0 6.103-.043 9.208-.086 3.036-.042 6.074-.083 9.096-.083 3.023 0 6.061.042 9.096.083 3.105.044 6.18.086 9.208.086 16.469 0 29.788-1.36 41.261-7.997 11.563-6.691 19.403-17.73 26.297-29.47-5.143.527-10.624.707-16.515.707z" fill="#acbf37"/><path d="M462.48 478.15c-3.035-30.594-22.474-59.843-54.739-82.359-34.164-23.842-80.535-38.96-130.573-42.571l-11.197-.808-24.131-.031-11.138.77c-50.604 3.499-97.439 18.724-131.88 42.873-32.059 22.479-51.382 51.645-54.409 82.128-.592 5.969 4.096 11.145 10.094 11.145h397.878c5.999-.002 10.687-5.178 10.095-11.147z" fill="#b8d150"/><g fill="#9aad2a"><path d="M94.657 478.149c3.026-30.483 22.349-59.65 54.409-82.128 33.901-23.77 79.813-38.884 129.505-42.69-.468-.035-.933-.078-1.402-.112l-11.197-.808-24.131-.031-11.138.77c-50.604 3.499-97.439 18.724-131.88 42.873-32.059 22.479-51.382 51.645-54.409 82.128-.592 5.969 4.096 11.145 10.094 11.145h50.242c-5.998-.001-10.686-5.177-10.093-11.147z"/><path d="M270.785 389.509l-17.925-17.925a3.47 3.47 0 0 0-4.977.072L141.275 484.674a3.466 3.466 0 0 1-2.366 1.084l-36.463 1.654c-1.27.057-2.368.8-2.924 1.882h71.171l100.026-94.813a3.47 3.47 0 0 0 .066-4.972z"/></g><path d="M235.714 391.695l4.517-168.793a3.184 3.184 0 0 0-.831-2.231l-30.729-33.647a3.183 3.183 0 0 1-.206-4.041l10.462-14.099a3.182 3.182 0 0 1 4.904-.25l12.305 13.473c1.923 2.106 5.433.812 5.529-2.038l.405-11.968a3.18 3.18 0 0 0-.831-2.253l-18.724-20.505a3.183 3.183 0 0 1-.206-4.041l10.462-14.098a3.182 3.182 0 0 1 4.904-.25l14.293 15.651a3.18 3.18 0 0 0 4.698 0l31.83-34.854a3.18 3.18 0 0 1 4.904.251l10.46 14.101a3.181 3.181 0 0 1-.206 4.041l-37.417 40.972a3.184 3.184 0 0 0-.831 2.253l.762 22.506c.096 2.85 3.606 4.144 5.529 2.038l7.006-7.671a3.181 3.181 0 0 1 4.904.25l10.465 14.096a3.181 3.181 0 0 1-.205 4.042l-25.427 27.842a3.183 3.183 0 0 0-.831 2.239l4.581 156.977a3.181 3.181 0 0 1-3.18 3.274h-30.116a3.182 3.182 0 0 1-3.18-3.267z" fill="#a88d68"/><path d="M330.36 168.229a7.583 7.583 0 0 1-5.379-2.227l-12.405-12.405a7.608 7.608 0 0 1 10.758-10.759l12.405 12.405a7.608 7.608 0 0 1-5.379 12.986zm-161.976-5.847a7.609 7.609 0 0 1-7.034-4.706 7.607 7.607 0 0 1 4.127-9.935l23.746-9.806a7.605 7.605 0 0 1 9.935 4.127 7.607 7.607 0 0 1-4.127 9.935l-23.746 9.806a7.55 7.55 0 0 1-2.901.579zm83.619-59.82a7.588 7.588 0 0 1-2.413-.395l-22.746-7.603a7.608 7.608 0 0 1 4.824-14.43l22.746 7.603a7.608 7.608 0 0 1-2.411 14.825zm49.417 138.447a7.608 7.608 0 0 1-3.126-14.547l16.541-7.443a7.609 7.609 0 0 1 6.243 13.876l-16.541 7.443a7.601 7.601 0 0 1-3.117.671zm-91.804 4.133a7.586 7.586 0 0 1-5.541-2.393l-13.233-14.06a7.608 7.608 0 0 1 11.08-10.429l13.233 14.06a7.608 7.608 0 0 1-5.539 12.822z" fill="#a88662"/><path d="M446.226 298.094c-11.322 0-20.533-9.211-20.533-20.533s9.211-20.533 20.533-20.533h58.167c4.201 0 7.607 3.405 7.607 7.607s-3.406 7.607-7.607 7.607h-39.801a7.583 7.583 0 0 1 2.168 5.318c0 11.323-9.212 20.534-20.534 20.534zm0-25.851c-2.932 0-5.318 2.387-5.318 5.318s2.386 5.318 5.318 5.318a5.325 5.325 0 0 0 5.319-5.318c0-2.07.827-3.947 2.168-5.318h-7.487zm35.546-21.329h-64.63c-11.322 0-20.533-9.211-20.533-20.533s9.211-20.533 20.533-20.533c11.322 0 20.533 9.211 20.533 20.533 0 2.07-.827 3.947-2.168 5.318h46.264c4.201 0 7.607 3.405 7.607 7.607s-3.405 7.608-7.606 7.608zm-64.63-25.851a5.325 5.325 0 0 0-5.318 5.318 5.325 5.325 0 0 0 5.318 5.318h7.486a7.583 7.583 0 0 1-2.168-5.318 5.323 5.323 0 0 0-5.318-5.318z" fill="#b8d150"/><path d="M253.447 143.506a3.138 3.138 0 0 1-1.478-.899l-14.293-15.651a3.181 3.181 0 0 0-4.904.25l-10.462 14.098a3.179 3.179 0 0 0 .206 4.041l18.724 20.505c.561.614.858 1.422.831 2.253l-.405 11.968c-.096 2.85-3.606 4.144-5.529 2.038l-12.305-13.473a3.181 3.181 0 0 0-4.904.25l-10.462 14.099a3.179 3.179 0 0 0 .206 4.041l30.729 33.646c.555.609.853 1.408.831 2.231l-4.517 168.793a3.182 3.182 0 0 0 3.181 3.267h14.552V143.506h-.001z" fill="#916f47"/><path d="M108.305 71.712c0 13.247-10.777 24.023-24.023 24.023H36.516C16.38 95.736 0 79.355 0 59.22s16.38-36.516 36.516-36.516c16.954 0 31.805 11.861 35.586 28.305a23.953 23.953 0 0 1 12.181-3.319c13.246 0 24.022 10.776 24.022 24.022z" fill="#c3fff9"/><path d="M37.577 59.22c0-13.257 7.102-24.884 17.701-31.283-5.535-3.33-11.979-5.233-18.762-5.233C16.38 22.704 0 39.085 0 59.22s16.38 36.516 36.516 36.516h37.577c-20.136 0-36.516-16.381-36.516-36.516z" fill="#8bf2e6"/></svg>