<?xml version="1.0" standalone="no"?><!-- Generator: Gravit.io --><svg xmlns="http://www.w3.org/2000/svg" xmlns:xlink="http://www.w3.org/1999/xlink" style="isolation:isolate" viewBox="0 0 512 512" width="512" height="512"><defs><clipPath id="_clipPath_vf4yTiQwWIXFTBGJTMOhSj09AwY9aYBY"><rect width="512" height="512"/></clipPath></defs><g clip-path="url(#_clipPath_vf4yTiQwWIXFTBGJTMOhSj09AwY9aYBY)"><g id="组"><path d=" M 45.252 31.96 C 43.938 30.2 42.379 28.64 40.617 27.324 L 31.519 20.533 L 40.617 13.742 C 42.38 12.426 43.94 10.865 45.252 9.106 L 52.045 0 L 58.839 9.104 C 60.153 10.864 61.712 12.424 63.474 13.74 L 72.572 20.531 L 63.474 27.322 C 61.711 28.638 60.151 30.199 58.839 31.958 L 52.045 41.062 L 45.252 31.96 L 45.252 31.96 Z " fill="rgb(255,228,76)"/><path d=" M 453.161 255.516 C 451.847 253.756 450.288 252.196 448.526 250.88 L 439.428 244.089 L 448.526 237.298 C 450.289 235.982 451.849 234.421 453.161 232.662 L 459.955 223.558 L 466.749 232.662 C 468.063 234.422 469.622 235.982 471.384 237.298 L 480.482 244.089 L 471.384 250.88 C 469.621 252.196 468.061 253.757 466.749 255.516 L 459.955 264.62 L 453.161 255.516 L 453.161 255.516 Z " fill="rgb(255,228,76)"/></g><path d=" M 249.792 364.699 C 245.404 364.699 241.846 361.598 241.846 357.772 L 241.846 225.927 C 241.846 222.1 245.404 219 249.792 219 C 254.18 219 257.738 222.101 257.738 225.927 L 257.738 357.771 C 257.739 361.597 254.181 364.699 249.792 364.699 Z " fill="rgb(150,109,60)"/><g id="组"><path d=" M 221.167 229.711 C 156.494 238.57 96.884 193.323 88.025 128.65 L 85.255 108.429 C 84.619 103.789 87.865 99.513 92.505 98.878 L 112.726 96.108 C 177.399 87.249 237.009 132.495 245.868 197.168 L 249.789 225.792 L 221.167 229.713 L 221.166 229.711 L 221.167 229.711 Z " fill="rgb(142,193,85)"/><path d=" M 132.968 122.494 L 130.198 102.273 C 129.82 99.508 130.825 96.882 132.675 95.068 C 126.113 94.858 119.449 95.187 112.727 96.108 L 92.506 98.878 C 87.866 99.513 84.62 103.789 85.256 108.429 L 88.026 128.65 C 96.885 193.323 156.495 238.57 221.168 229.711 L 249.792 225.79 L 249.636 224.651 C 191.6 224.51 141.069 181.627 132.968 122.494 Z " fill="rgb(132,171,79)"/></g><path d=" M 248.054 512 C 227.97 512 208.936 506.411 194.415 496.257 C 187.51 499.782 180.09 501.57 172.36 501.57 C 162.89 501.57 153.682 498.809 145.695 493.579 C 138.996 503.492 128.083 509.393 116.398 509.393 C 96.687 509.393 80.651 492.778 80.651 472.357 C 80.651 451.936 96.687 435.321 116.398 435.321 C 118.969 435.321 121.556 435.613 124.092 436.193 C 129.975 413.646 149.751 397.945 172.36 397.945 C 172.589 397.945 172.818 397.951 173.046 397.96 L 173.138 397.963 C 182.437 373.369 213.17 356.223 248.054 356.223 C 282.938 356.223 313.669 373.368 322.97 397.963 L 323.054 397.961 C 323.291 397.951 323.519 397.945 323.748 397.945 C 346.357 397.945 366.131 413.645 372.016 436.192 C 374.542 435.616 377.133 435.321 379.71 435.321 C 399.421 435.321 415.457 451.936 415.457 472.357 C 415.457 492.778 399.421 509.393 379.71 509.393 C 368.025 509.393 357.112 503.493 350.413 493.579 C 342.428 498.809 333.219 501.57 323.748 501.57 C 316.018 501.57 308.599 499.782 301.693 496.257 C 287.173 506.411 268.139 512 248.054 512 Z " fill="rgb(168,141,104)"/><path d=" M 152.339 472.356 C 152.339 451.935 168.375 435.32 188.086 435.32 C 190.657 435.32 193.244 435.612 195.78 436.192 C 201.663 413.645 221.439 397.944 244.048 397.944 C 244.277 397.944 244.506 397.95 244.734 397.959 L 244.826 397.962 C 250.716 382.387 265.207 369.807 283.897 362.669 C 273.073 358.536 260.845 356.222 248.053 356.222 C 213.171 356.222 182.438 373.368 173.137 397.962 L 173.045 397.959 C 172.817 397.951 172.588 397.944 172.359 397.944 C 149.75 397.944 129.976 413.644 124.091 436.192 C 121.553 435.612 118.968 435.32 116.397 435.32 C 96.686 435.32 80.65 451.935 80.65 472.356 C 80.65 492.777 96.686 509.392 116.397 509.392 C 128.082 509.392 138.995 503.492 145.694 493.578 C 151.751 497.545 158.513 500.088 165.558 501.086 C 157.5 494.29 152.339 483.938 152.339 472.356 Z " fill="rgb(145,111,71)"/><g id="组"><path d=" M 276.677 229.667 C 341.346 238.557 400.977 193.338 409.867 128.669 L 412.646 108.45 C 413.284 103.81 410.04 99.533 405.401 98.895 L 385.181 96.115 C 320.512 87.226 260.881 132.444 251.991 197.113 L 248.057 225.735 L 276.678 229.669 L 276.678 229.667 L 276.677 229.667 Z " fill="rgb(142,193,85)"/><path d=" M 364.927 122.492 L 367.706 102.272 C 368.086 99.508 367.081 96.881 365.232 95.066 C 371.795 94.86 378.458 95.191 385.18 96.115 L 405.4 98.895 C 410.04 99.533 413.283 103.81 412.645 108.449 L 409.866 128.669 C 400.976 193.338 341.345 238.557 276.676 229.667 L 248.054 225.732 L 248.21 224.594 C 306.247 224.481 356.798 181.622 364.927 122.492 Z " fill="rgb(132,171,79)"/></g></g></svg>