<svg xmlns="http://www.w3.org/2000/svg" style="isolation:isolate" viewBox="0 0 512 512" width="512" height="512"><defs><clipPath id="a"><path d="M0 0h512v512H0z"/></clipPath></defs><g clip-path="url(#a)"><path d="M45.252 31.96a22.83 22.83 0 0 0-4.635-4.636l-9.098-6.791 9.098-6.791a22.78 22.78 0 0 0 4.635-4.636L52.045 0l6.794 9.104a22.83 22.83 0 0 0 4.635 4.636l9.098 6.791-9.098 6.791a22.78 22.78 0 0 0-4.635 4.636l-6.794 9.104-6.793-9.102zm407.909 223.556a22.83 22.83 0 0 0-4.635-4.636l-9.098-6.791 9.098-6.791a22.78 22.78 0 0 0 4.635-4.636l6.794-9.104 6.794 9.104a22.83 22.83 0 0 0 4.635 4.636l9.098 6.791-9.098 6.791a22.78 22.78 0 0 0-4.635 4.636l-6.794 9.104-6.794-9.104z" fill="#FFE44C"/><path d="M249.792 364.699c-4.388 0-7.946-3.101-7.946-6.927V225.927c0-3.827 3.558-6.927 7.946-6.927s7.946 3.101 7.946 6.927v131.844c.001 3.826-3.557 6.928-7.946 6.928z" fill="#966D3C"/><path d="M221.167 229.711C156.494 238.57 96.884 193.323 88.025 128.65l-2.77-20.221a8.478 8.478 0 0 1 7.25-9.551l20.221-2.77c64.673-8.859 124.283 36.387 133.142 101.06l3.921 28.624-28.622 3.921-.001-.002h.001z" fill="#8EC155"/><path d="M132.968 122.494l-2.77-20.221a8.46 8.46 0 0 1 2.477-7.205c-6.562-.21-13.226.119-19.948 1.04l-20.221 2.77a8.478 8.478 0 0 0-7.25 9.551l2.77 20.221c8.859 64.673 68.469 109.92 133.142 101.061l28.624-3.921-.156-1.139c-58.036-.141-108.567-43.024-116.668-102.157z" fill="#84AB4F"/><path d="M248.054 512c-20.084 0-39.118-5.589-53.639-15.743-6.905 3.525-14.325 5.313-22.055 5.313-9.47 0-18.678-2.761-26.665-7.991-6.699 9.913-17.612 15.814-29.297 15.814-19.711 0-35.747-16.615-35.747-37.036 0-20.421 16.036-37.036 35.747-37.036 2.571 0 5.158.292 7.694.872 5.883-22.547 25.659-38.248 48.268-38.248.229 0 .458.006.686.015l.092.003c9.299-24.594 40.032-41.74 74.916-41.74s65.615 17.145 74.916 41.74l.084-.002c.237-.01.465-.016.694-.016 22.609 0 42.383 15.7 48.268 38.247a34.68 34.68 0 0 1 7.694-.871c19.711 0 35.747 16.615 35.747 37.036 0 20.421-16.036 37.036-35.747 37.036-11.685 0-22.598-5.9-29.297-15.814-7.985 5.23-17.194 7.991-26.665 7.991-7.73 0-15.149-1.788-22.055-5.313C287.173 506.411 268.139 512 248.054 512z" fill="#A88D68"/><path d="M152.339 472.356c0-20.421 16.036-37.036 35.747-37.036 2.571 0 5.158.292 7.694.872 5.883-22.547 25.659-38.248 48.268-38.248.229 0 .458.006.686.015l.092.003c5.89-15.575 20.381-28.155 39.071-35.293-10.824-4.133-23.052-6.447-35.844-6.447-34.882 0-65.615 17.146-74.916 41.74l-.092-.003a19.57 19.57 0 0 0-.686-.015c-22.609 0-42.383 15.7-48.268 38.248a34.565 34.565 0 0 0-7.694-.872c-19.711 0-35.747 16.615-35.747 37.036 0 20.421 16.036 37.036 35.747 37.036 11.685 0 22.598-5.9 29.297-15.814 6.057 3.967 12.819 6.51 19.864 7.508-8.058-6.796-13.219-17.148-13.219-28.73z" fill="#916F47"/><path d="M276.677 229.667c64.669 8.89 124.3-36.329 133.19-100.998l2.779-20.219a8.479 8.479 0 0 0-7.245-9.555l-20.22-2.78c-64.669-8.889-124.3 36.329-133.19 100.998l-3.934 28.622 28.621 3.934v-.002h-.001z" fill="#8EC155"/><path d="M364.927 122.492l2.779-20.22c.38-2.764-.625-5.391-2.474-7.206a118.95 118.95 0 0 1 19.948 1.049l20.22 2.78a8.478 8.478 0 0 1 7.245 9.554l-2.779 20.22c-8.89 64.669-68.521 109.888-133.19 100.998l-28.622-3.935.156-1.138c58.037-.113 108.588-42.972 116.717-102.102z" fill="#84AB4F"/></g></svg>