<svg xmlns="http://www.w3.org/2000/svg" viewBox="0 0 512 512"><path d="M45.252 31.96a22.83 22.83 0 0 0-4.635-4.636l-9.098-6.791 9.098-6.791a22.78 22.78 0 0 0 4.635-4.636L52.045 0l6.794 9.104a22.83 22.83 0 0 0 4.635 4.636l9.098 6.791-9.098 6.791a22.78 22.78 0 0 0-4.635 4.636l-6.794 9.104-6.793-9.102zm407.909 223.556a22.83 22.83 0 0 0-4.635-4.636l-9.098-6.791 9.098-6.791a22.78 22.78 0 0 0 4.635-4.636l6.794-9.104 6.794 9.104a22.83 22.83 0 0 0 4.635 4.636l9.098 6.791-9.098 6.791a22.78 22.78 0 0 0-4.635 4.636l-6.794 9.104-6.794-9.104z" fill="#ffe44c"/><path d="M249.792 364.699a7.946 7.946 0 0 1-7.946-7.946V205.511a7.946 7.946 0 1 1 15.892 0v151.241a7.946 7.946 0 0 1-7.946 7.947z" fill="#966d3c"/><path d="M337.052 353.747c-6.718 0-12.184-5.466-12.184-12.184v-9.536c0-6.718 5.466-12.184 12.184-12.184s12.184 5.466 12.184 12.184v9.536c.001 6.718-5.465 12.184-12.184 12.184z" fill="#c3fff9"/><path d="M337.052 341.563v-9.536c0-4.498 2.457-8.425 6.092-10.536a12.102 12.102 0 0 0-6.092-1.649c-6.718 0-12.184 5.466-12.184 12.184v9.536c0 6.718 5.466 12.184 12.184 12.184 2.221 0 4.297-.607 6.092-1.649-3.635-2.109-6.092-6.037-6.092-10.534z" fill="#5eddcb"/><path d="M346.323 100.677c-53.605 0-97.06 43.456-97.06 97.06V239.4a8.362 8.362 0 0 0 8.362 8.362h41.663c6.684 0 13.351-.687 19.895-2.049l6.745-1.405 42.484-25.423c18.015-18.181 27.937-42.396 27.937-68.183v-41.544a8.479 8.479 0 0 0-8.479-8.479h-41.547z" fill="#8ec155"/><path d="M287.315 239.401v-41.662c0-53.606 43.456-97.06 97.06-97.06h-38.053c-53.605 0-97.06 43.456-97.06 97.06v41.662a8.363 8.363 0 0 0 8.362 8.363h38.053a8.364 8.364 0 0 1-8.362-8.363z" fill="#84ab4f"/><path d="M337.582 295.474c-7.011 0-12.714-5.703-12.714-12.714v-72.115l25.428-2.939v75.054c0 7.011-5.703 12.714-12.714 12.714z" fill="#c3fff9"/><path d="M324.92 210.638a.057.057 0 0 0-.051.057v71.675c0 6.595 4.86 12.386 11.423 13.038 3.119.31 6.037-.519 8.396-2.115a.058.058 0 0 0 0-.096c-3.302-2.299-5.47-6.119-5.47-10.438v-44.232c0-4.691 3.277-8.687 7.844-9.762a42.036 42.036 0 0 0 3.195-.884.06.06 0 0 0 .041-.056v-20.053a.058.058 0 0 0-.065-.057l-25.313 2.923z" fill="#5eddcb"/><path d="M336.764 218.13c-12.277 0-22.264-8.08-22.264-18.012s9.988-18.012 22.264-18.012 22.264 8.08 22.264 18.012c.001 9.932-9.987 18.012-22.264 18.012z" fill="#c3fff9"/><path d="M333.968 200.118c0-7.106 5.125-13.245 12.53-16.174a26.462 26.462 0 0 0-9.735-1.837c-12.277 0-22.264 8.08-22.264 18.012s9.988 18.012 22.264 18.012a26.49 26.49 0 0 0 9.735-1.837c-7.405-2.931-12.53-9.07-12.53-16.176z" fill="#8bf2e6"/><path d="M221.432 226.033c-65.277 0-118.195-52.918-118.195-118.195v-20.41a8.479 8.479 0 0 1 8.479-8.479h20.41c65.277 0 118.195 52.918 118.195 118.195v28.891h-28.89v-.002z" fill="#8ec155"/><path d="M148.6 107.838v-20.41a8.458 8.458 0 0 1 3.432-6.802 118.925 118.925 0 0 0-19.905-1.677h-20.41a8.479 8.479 0 0 0-8.479 8.479v20.41c0 65.277 52.918 118.195 118.195 118.195h28.891v-1.149c-57.48-8.016-101.724-57.36-101.724-117.046z" fill="#84ab4f"/><path d="M248.054 512c-20.084 0-39.118-5.589-53.639-15.743-6.905 3.525-14.325 5.313-22.055 5.313-9.47 0-18.678-2.761-26.665-7.991-6.699 9.913-17.612 15.814-29.297 15.814-19.711 0-35.747-16.615-35.747-37.036 0-20.421 16.036-37.036 35.747-37.036 2.571 0 5.158.292 7.694.872 5.883-22.547 25.659-38.248 48.268-38.248.229 0 .458.006.686.015l.092.003c9.299-24.594 40.032-41.74 74.916-41.74s65.615 17.145 74.916 41.74l.084-.002c.237-.01.465-.016.694-.016 22.609 0 42.383 15.7 48.268 38.247a34.68 34.68 0 0 1 7.694-.871c19.711 0 35.747 16.615 35.747 37.036 0 20.421-16.036 37.036-35.747 37.036-11.685 0-22.598-5.9-29.297-15.814-7.985 5.23-17.194 7.991-26.665 7.991-7.73 0-15.149-1.788-22.055-5.313C287.173 506.411 268.139 512 248.054 512z" fill="#a88d68"/><path d="M152.339 472.356c0-20.421 16.036-37.036 35.747-37.036 2.571 0 5.158.292 7.694.872 5.883-22.547 25.659-38.248 48.268-38.248.229 0 .458.006.686.015l.092.003c5.89-15.575 20.381-28.155 39.071-35.293-10.824-4.133-23.052-6.447-35.844-6.447-34.882 0-65.615 17.146-74.916 41.74l-.092-.003a19.57 19.57 0 0 0-.686-.015c-22.609 0-42.383 15.7-48.268 38.248a34.565 34.565 0 0 0-7.694-.872c-19.711 0-35.747 16.615-35.747 37.036 0 20.421 16.036 37.036 35.747 37.036 11.685 0 22.598-5.9 29.297-15.814 6.057 3.967 12.819 6.51 19.864 7.508-8.058-6.796-13.219-17.148-13.219-28.73z" fill="#916f47"/></svg>