<svg xmlns="http://www.w3.org/2000/svg" viewBox="0 0 512 512"><path class="settingrun" d="M486.496 208.726h-35.188c-5.904 0-11.073-3.875-12.826-9.514a189.77 189.77 0 0 0-13.297-32.058c-2.754-5.232-1.847-11.636 2.334-15.816l24.894-24.894c9.96-9.96 9.96-26.109 0-36.069l-30.788-30.788c-9.96-9.96-26.108-9.96-36.069 0l-24.894 24.894c-4.181 4.181-10.584 5.088-15.816 2.334a189.887 189.887 0 0 0-32.058-13.297c-5.638-1.753-9.513-6.922-9.513-12.826V25.506c0-14.086-11.419-25.505-25.505-25.505h-43.541c-14.086 0-25.504 11.419-25.504 25.504v35.187c0 5.904-3.875 11.073-9.513 12.826a189.77 189.77 0 0 0-32.058 13.297c-5.232 2.754-11.635 1.847-15.816-2.334l-24.894-24.894c-9.96-9.96-26.108-9.96-36.069 0L59.586 90.376c-9.96 9.96-9.96 26.109 0 36.069l24.894 24.894c4.181 4.181 5.088 10.584 2.334 15.816a189.887 189.887 0 0 0-13.297 32.058c-1.753 5.638-6.922 9.513-12.826 9.513H25.504C11.419 208.726 0 220.145 0 234.23v43.541c0 14.086 11.419 25.504 25.504 25.504h35.187c5.904 0 11.073 3.875 12.826 9.513a189.77 189.77 0 0 0 13.297 32.058c2.754 5.232 1.847 11.635-2.334 15.816l-24.894 24.894c-9.96 9.96-9.96 26.109 0 36.069l30.788 30.788c9.96 9.96 26.108 9.96 36.069 0l24.894-24.894c4.181-4.181 10.584-5.088 15.816-2.334a189.887 189.887 0 0 0 32.058 13.297c5.638 1.753 9.513 6.922 9.513 12.826v35.187c0 14.086 11.419 25.504 25.504 25.504h43.541c14.086 0 25.504-11.419 25.504-25.504v-35.187c0-5.904 3.875-11.073 9.513-12.826a189.804 189.804 0 0 0 32.058-13.297c5.232-2.754 11.635-1.847 15.816 2.334l24.894 24.894c9.96 9.96 26.108 9.96 36.069 0l30.788-30.788c9.96-9.96 9.96-26.109 0-36.069l-24.894-24.894c-4.181-4.181-5.088-10.584-2.334-15.816a189.921 189.921 0 0 0 13.297-32.058c1.753-5.638 6.922-9.514 12.826-9.514h35.188c14.086 0 25.504-11.419 25.504-25.504v-43.541c.002-14.084-11.417-25.503-25.502-25.503z" fill="#ed718b"><animateTransform attributeName="transform" attributeType="XML" type="rotate" from="0 256 256" to="360 256 256" dur="10s" repeatCount="indefinite"/></path><path class="settingrun" d="M151.337 84.481l-24.894-24.894c-7.58-7.58-18.741-9.384-28.034-5.428a25.415 25.415 0 0 1 8.034 5.428l31.35 31.783c4.181 4.181 10.584 5.088 15.816 2.334a192.977 192.977 0 0 1 4.327-2.202c-.032-.031 5.522-2.86 8.196-4.203-5.024 2.139-10.883 1.095-14.795-2.818zm2.272 333.816c-5.232-2.754-11.636-1.847-15.816 2.334l-31.35 31.783a25.431 25.431 0 0 1-8.034 5.428c.031-.013.073.01.119.052 9.269 3.891 20.368 2.068 27.915-5.479l24.894-24.894c3.912-3.913 9.771-4.957 14.795-2.818-2.675-1.343-8.228-4.172-8.196-4.203a197.329 197.329 0 0 1-4.327-2.203zm184.921.492c-10.179 5.358-34.582 16.223-45.742 19.693-5.638 1.753-9.513 6.922-9.513 12.826v35.187c0 14.086-11.419 25.504-25.504 25.504h20c14.086 0 25.504-11.419 25.504-25.504v-35.187c0-5.904 3.875-11.073 9.513-12.826a189.804 189.804 0 0 0 32.058-13.297c5.232-2.754 11.635-1.847 15.816 2.334-12.355-12.86-16.958-11.454-22.132-8.73zm147.966-210.063h-20c14.086 0 25.504 11.419 25.504 25.504v43.541c0 14.086-11.419 25.504-25.504 25.504h20c14.086 0 25.504-11.419 25.504-25.504V234.23c0-14.085-11.419-25.504-25.504-25.504zM344.846 86.815a189.887 189.887 0 0 0-32.058-13.297c-5.638-1.753-9.513-6.922-9.513-12.826V25.506c0-14.086-11.419-25.505-25.505-25.505h-20c14.086 0 25.504 11.419 25.504 25.504v35.187c0 5.904 3.875 11.073 9.513 12.826 11.16 3.471 35.563 14.335 45.742 19.693 5.174 2.724 9.777 4.131 22.132-8.731-4.18 4.182-10.583 5.089-15.815 2.335zm82.673 273.849c-4.181-4.181-5.088-10.584-2.334-15.816a189.921 189.921 0 0 0 13.297-32.058c1.75-5.627 6.901-9.496 12.79-9.512l.02-.002c-6.661.003-13.323.001-19.984.001-5.904 0-11.073 3.875-12.826 9.514a189.77 189.77 0 0 1-13.297 32.058c-2.754 5.232-1.847 11.636 2.334 15.816l24.894 24.894c9.96 9.96 9.96 26.109 0 36.069l-30.788 30.788a25.431 25.431 0 0 1-8.034 5.428l.001.001c9.293 3.956 20.453 2.151 28.033-5.428l30.788-30.788c9.96-9.96 9.96-26.109 0-36.069l-24.894-24.896zm4.894-270.288c9.96 9.96 9.96 26.109 0 36.069l-24.894 24.894c-4.181 4.181-5.088 10.584-2.334 15.816a189.921 189.921 0 0 1 13.297 32.058c1.753 5.638 6.922 9.514 12.826 9.514 6.177 0 12.354.019 18.53-.006l.06-.077c-5.304-.562-9.805-4.247-11.417-9.43a189.77 189.77 0 0 0-13.297-32.058c-2.754-5.232-1.847-11.636 2.334-15.816l24.894-24.894c9.96-9.96 9.96-26.109 0-36.069l-30.788-30.788c-7.595-7.595-18.785-9.391-28.089-5.404 3.032 1.203 5.783 3.098 8.089 5.404l30.789 30.787z" opacity=".1"><animateTransform attributeName="transform" attributeType="XML" type="rotate" from="0 256 256" to="360 256 256" dur="10s" repeatCount="indefinite"/></path><circle cx="267.58" cy="267.581" r="115.86" opacity=".1"/><circle cx="256" cy="256" r="115.86" fill="#fff"/><path d="M331.46 168.086c17.417 20.273 27.947 46.636 27.947 75.46 0 63.988-51.873 115.861-115.861 115.861-28.824 0-55.187-10.529-75.46-27.947 21.249 24.733 52.75 40.401 87.915 40.401 63.988 0 115.861-51.873 115.861-115.861-.001-35.163-15.669-66.665-40.402-87.914z" opacity=".1"/><path d="M309.888 268.11l-73.674 36.837c-10.092 5.046-21.967-2.293-21.967-13.577v-73.674c0-11.284 11.875-18.623 21.967-13.576l73.674 36.837c11.188 5.594 11.188 21.561 0 27.153z" fill="#ed718b"/></svg>