<svg xmlns="http://www.w3.org/2000/svg" viewBox="0 0 512 512"><circle cx="256" cy="256" r="256" fill="#b26483"/><circle cx="256" cy="272" r="173.865" fill="#ce6b8a"/><circle cx="256" cy="272" r="104" fill="#ff7998"/><path d="M30.829 134.11l3.838 16.552 114.667 40.592 7.168-12.436-2.093-8.743a51.869 51.869 0 0 0 2.957-17.32c0-19.42-10.674-36.323-26.458-45.237.285-2.203.482-4.433.482-6.714 0-21.412-13.025-39.666-31.523-47.617-28.275 21.8-51.902 49.334-69.038 80.923z" fill="#9b5a6f" opacity=".55"/><path d="M.548 272C8.814 405.924 119.994 512 256 512s247.186-106.076 255.452-240H.548z" fill="#ff4f70"/><path d="M208 272c0-26.51 21.49-48 48-48s48 21.49 48 48" fill="#fff"/><path d="M157.366 178.731c-.296 0-.569.08-.864.087-3.979-19.802-21.455-34.721-42.429-34.721-.998 0-1.931.227-2.912.293-7.055-20.318-26.318-34.927-49.039-34.927-6.532 0-12.722 1.328-18.481 3.529C17.484 151.758 1.738 198.089.202 248h157.164C176.494 248 192 232.493 192 213.366c0-19.128-15.506-34.635-34.634-34.635zm312.502-63.385c-20.114 2.186-36.777 15.764-43.258 34.253-.984-.056-1.959-.15-2.958-.15-22.666 0-41.883 14.574-48.921 34.843-.974-.082-1.91-.292-2.905-.292-19.082 0-34.551 15.469-34.551 34.551-9.541 0-17.275 7.734-17.275 17.275 0 9.541 7.734 17.275 17.275 17.275h174.651c-.566-50.858-15.951-98.139-42.058-137.755z" fill="#9b5a6f"/><path d="M199.215 6.399a45.098 45.098 0 0 0-5.08 20.802c0 25.036 20.296 45.333 45.333 45.333.426 0 .821-.113 1.243-.125 4 15.679 18.097 27.325 35.023 27.325C275.734 119.763 291.971 136 312 136c13.847 0 25.736-7.85 31.846-19.258 8.917 6.39 19.813 10.191 31.62 10.191 30.044 0 54.399-24.355 54.399-54.399 0-1.624-.268-3.175-.407-4.763C383.844 25.715 322.935 0 256 0c-19.525 0-38.512 2.259-56.785 6.399z" fill="#9b5a6f" opacity=".55"/><path d="M256 406.667c74.375 0 134.667-60.292 134.667-134.667H121.333c0 74.374 60.292 134.667 134.667 134.667z" fill="#ffbc94" opacity=".38"/><path d="M256 338.214c36.569 0 66.214-29.645 66.214-66.214H189.786c0 36.569 29.645 66.214 66.214 66.214z" fill="#ffe6b4" opacity=".38"/><path fill="#674447" d="M181.682 365.163h-75.169l-18.282-23.516h111.732zm-29.856-99.069h-9.311v65.177h50.652c-.001 0-13.036-65.177-41.341-65.177z"/><path d="M144.03 277.356h7.702v53.915h-41.9c.001 0 10.784-53.915 34.198-53.915z" fill="#674447"/><path fill="#674447" d="M141.863 245.051h4.469v96.596h-4.469z"/><path d="M341.248 299.859h-84.474l-12.314-17.384h105.48v8.692c0 4.8-3.891 8.692-8.692 8.692z" fill="#9b5a6f"/><path fill="#9b5a6f" d="M253.514 285.01l17.746-17.746h67.363l6.518 15.211-23.54 15.573z"/><path fill="#9b5a6f" d="M292.628 262.737h14.486v6.7h-14.486zm-11.951-4.375h2.406v11.075h-2.406z"/><path d="M294 356.342v13.359h10v47.777h8.127v-9.761l26.51-16.025 26.509 16.025v9.762h8.127v-8.821l28.065-16.965 24.954 15.085v10.702h8.127v-9.118l27.574-16.669 7.97 4.818c1.099-1.67 2.134-3.385 3.194-5.082l-5.363-3.242 11.358-6.866a256.049 256.049 0 0 0 5.508-10.342l-22.667 13.702-24.776-14.978h48.088l.002-.004c2.179-4.388 4.265-8.829 6.195-13.355H294zm18.127 44.363v-25.038l20.709 12.519-20.709 12.519zm1.733-31.003h49.553l-24.776 14.978-24.777-14.978zm51.286 31.003l-20.709-12.519 20.709-12.519v25.038zm8.127.94v-26.919l22.265 13.459-22.265 13.46zm3.289-31.943h49.553l-24.776 14.978-24.777-14.978zm49.73 30.062l-19.154-11.579 19.154-11.579v23.158zm29.901-11.578l-21.774 13.163v-26.325l21.774 13.162z" fill="#674447"/></svg>