<svg xmlns="http://www.w3.org/2000/svg" viewBox="0 0 512 512"><path d="M256.005 0C397.384 0 512 114.616 512 256.005 512 397.384 397.384 512 256.005 512 114.616 512 0 397.384 0 256.005 0 114.616 114.616 0 256.005 0z" fill="#b1e9f1"/><path d="M193.462 14.867c31.677 0 57.366 25.68 57.366 57.366 0 31.677-25.689 57.366-57.366 57.366-31.687 0-57.376-25.689-57.376-57.366-.001-31.687 25.689-57.366 57.376-57.366z" fill="#ffcb00"/><path d="M116.892 70.309a26.2 26.2 0 0 1 11.78 2.794 21.173 21.173 0 0 1 14.867-6.066c10.022 0 18.422 6.935 20.669 16.273a16.81 16.81 0 0 1 10.862 10.139 16.363 16.363 0 0 1 1.836-.098c9.25 0 16.771 7.511 16.771 16.781 0 9.26-7.521 16.771-16.771 16.771-2.891 0-5.607-.733-7.971-2.012-2.041 6.964-8.478 12.053-16.107 12.053a16.707 16.707 0 0 1-11.917-4.972 16.688 16.688 0 0 1-11.917 4.972 16.737 16.737 0 0 1-11.458-4.522 16.716 16.716 0 0 1-12.376 5.46 16.685 16.685 0 0 1-11.77-4.825 19.488 19.488 0 0 1-4.298.469c-11.038 0-19.985-8.947-19.985-19.985s8.947-19.985 19.985-19.985c.596 0 1.192.039 1.778.088 1.426-13.118 12.532-23.335 26.022-23.335zm174.394-39.853c4.239 0 8.234 1.006 11.77 2.784a21.191 21.191 0 0 1 14.867-6.066c10.022 0 18.432 6.945 20.678 16.273a16.801 16.801 0 0 1 10.862 10.149 16.18 16.18 0 0 1 1.827-.107c9.26 0 16.771 7.511 16.771 16.781 0 9.26-7.511 16.771-16.771 16.771-2.882 0-5.597-.733-7.971-2.012-2.032 6.964-8.469 12.053-16.097 12.053a16.69 16.69 0 0 1-11.917-4.972 16.69 16.69 0 0 1-11.917 4.972 16.737 16.737 0 0 1-11.458-4.522 16.696 16.696 0 0 1-12.376 5.46 16.667 16.667 0 0 1-11.77-4.825 19.578 19.578 0 0 1-4.308.469c-11.038 0-19.975-8.947-19.975-19.985s8.938-19.975 19.975-19.975c.606 0 1.201.029 1.788.078 1.417-13.119 12.533-23.326 26.022-23.326z" fill="#fff"/><path d="M.254 267.13h511.492C505.924 403.353 393.663 512 256.005 512S6.085 403.353.254 267.13z" fill="#7fc583"/><path d="M403.059 194.516a2.603 2.603 0 0 1-1.709-.654l-31.472-27.887a2.57 2.57 0 0 1-.215-3.634 2.573 2.573 0 0 1 3.643-.225l31.462 27.887a2.59 2.59 0 0 1 .225 3.643c-.517.568-1.22.87-1.934.87zm2.208 6.262a2.584 2.584 0 0 1-2.383-1.592 2.572 2.572 0 0 1 1.397-3.37l41.884-17.348a2.579 2.579 0 1 1 1.973 4.767l-41.884 17.348a2.756 2.756 0 0 1-.987.195z" fill="#8b6e62"/><path d="M391.924 165.32c-.117 13.47-11.135 24.293-24.595 24.175-13.47-.117-24.293-11.135-24.175-24.605.117-13.47 11.126-24.293 24.595-24.175 13.47.117 24.292 11.136 24.175 24.605z" fill="#689d38"/><path d="M402.395 288.131h-.039c-2.852-.02-5.138-2.354-5.118-5.206l1.26-159.753a5.165 5.165 0 0 1 5.167-5.118h.039a5.159 5.159 0 0 1 5.118 5.196l-1.27 159.763a5.155 5.155 0 0 1-5.157 5.118z" fill="#8b6e62"/><path d="M445.374 125.458c-.195 23.052-19.047 41.572-42.099 41.367-23.042-.205-41.562-19.047-41.357-42.099.195-23.042 19.047-41.562 42.09-41.367 23.051.205 41.571 19.057 41.366 42.099z" fill="#9bcb64"/><path d="M445.374 125.458c-.195 22.808-18.647 41.171-41.367 41.367V83.359c23.052.205 41.572 19.057 41.367 42.099z" fill="#7cb142"/><path d="M477.188 170.869c-.156 17.68-14.613 31.882-32.292 31.726-17.68-.156-31.882-14.613-31.736-32.292.156-17.68 14.613-31.882 32.292-31.726 17.68.155 31.882 14.612 31.736 32.292z" fill="#689d38"/><path d="M302.861 177.325a2.55 2.55 0 0 1-1.69-.635l-30.104-26.207c-1.074-.938-1.192-2.569-.254-3.643s2.569-1.182 3.643-.244l30.104 26.207a2.582 2.582 0 0 1 .244 3.643 2.55 2.55 0 0 1-1.943.879zm2.149 5.929a2.58 2.58 0 0 1-1.007-4.953l39.618-16.82a2.593 2.593 0 0 1 3.389 1.368 2.577 2.577 0 0 1-1.367 3.38l-39.628 16.82a2.56 2.56 0 0 1-1.005.205z" fill="#8b6e62"/><path d="M292.077 149.575c0 12.786-10.373 23.15-23.159 23.15s-23.15-10.364-23.15-23.15c0-12.786 10.364-23.16 23.15-23.16 12.786 0 23.159 10.374 23.159 23.16z" fill="#9bcb64"/><path d="M302.861 267.121a5.152 5.152 0 0 1-5.157-5.157V109.497c0-2.842 2.305-5.157 5.157-5.157s5.167 2.315 5.167 5.157v152.466a5.161 5.161 0 0 1-5.167 5.158z" fill="#8b6e62"/><path d="M342.489 111.285c0 21.89-17.738 39.628-39.628 39.628-21.88 0-39.618-17.738-39.618-39.628 0-21.88 17.738-39.618 39.618-39.618 21.89 0 39.628 17.738 39.628 39.618z" fill="#689d38"/><path d="M342.489 111.285c0 21.89-17.738 39.628-39.628 39.628V71.667c21.89 0 39.628 17.738 39.628 39.618z" fill="#54892e"/><path d="M373.063 154.126c0 16.791-13.607 30.397-30.397 30.397-16.781 0-30.388-13.607-30.388-30.397 0-16.781 13.607-30.388 30.388-30.388 16.79.001 30.397 13.607 30.397 30.388z" fill="#9bcb64"/><path d="M73.522 191.166a2.58 2.58 0 0 1-1.006-4.953l34.988-14.847a2.584 2.584 0 0 1 3.38 1.367 2.572 2.572 0 0 1-1.368 3.38L74.537 190.96a2.472 2.472 0 0 1-1.015.206z" fill="#8b6e62"/><path d="M128.955 172.568c0 11.292-9.152 20.444-20.444 20.444s-20.444-9.152-20.444-20.444 9.152-20.454 20.444-20.454 20.444 9.163 20.444 20.454z" fill="#9bcb64"/><path d="M73.522 275.238a5.167 5.167 0 0 1-5.157-5.167V146.596a5.158 5.158 0 0 1 5.157-5.157 5.16 5.16 0 0 1 5.167 5.157v123.475a5.168 5.168 0 0 1-5.167 5.167z" fill="#8b6e62"/><path d="M112.301 140.588c0 21.421-17.357 38.778-38.778 38.778-21.411 0-38.778-17.357-38.778-38.778 0-21.411 17.367-38.778 38.778-38.778 21.42 0 38.778 17.367 38.778 38.778z" fill="#689d38"/><path d="M112.301 140.588c0 21.421-17.357 38.778-38.778 38.778V101.81c21.42 0 38.778 17.367 38.778 38.778z" fill="#54892e"/><path d="M73.522 206.785a2.59 2.59 0 0 1-1.69-.625l-26.588-23.15a2.581 2.581 0 0 1-.254-3.634 2.574 2.574 0 0 1 3.643-.254l26.588 23.14a2.581 2.581 0 0 1 .254 3.634 2.547 2.547 0 0 1-1.953.889z" fill="#8b6e62"/><path d="M65.376 175.577c0 14.828-12.014 26.842-26.832 26.842-13.763 0-25.103-10.364-26.656-23.706a252.949 252.949 0 0 1 8.449-22.847 26.692 26.692 0 0 1 18.207-7.121c14.818-.001 26.832 12.014 26.832 26.832z" fill="#9bcb64"/><path d="M68.365 196.294l-7.228-6.29a26.613 26.613 0 0 0 4.083-11.546c1.026.225 2.081.381 3.145.527v17.309z" fill="#fff" fill-opacity=".102"/><path d="M210.721 196.9a2.563 2.563 0 0 1-2.374-1.573 2.572 2.572 0 0 1 1.367-3.38l41.728-17.719a2.602 2.602 0 0 1 3.389 1.377 2.577 2.577 0 0 1-1.377 3.38l-41.728 17.709a2.426 2.426 0 0 1-1.005.206z" fill="#8b6e62"/><path d="M276.84 175.205c0 13.47-10.92 24.39-24.39 24.39s-24.39-10.92-24.39-24.39 10.92-24.39 24.39-24.39c13.469 0 24.39 10.921 24.39 24.39z" fill="#689d38"/><path d="M210.721 293.689a5.152 5.152 0 0 1-5.157-5.157v-144.3c0-2.852 2.305-5.167 5.157-5.167s5.157 2.315 5.157 5.167v144.3a5.151 5.151 0 0 1-5.157 5.157z" fill="#8b6e62"/><path d="M252.449 137.062c0 23.052-18.676 41.738-41.728 41.738s-41.738-18.686-41.738-41.738c0-23.042 18.686-41.728 41.738-41.728s41.728 18.686 41.728 41.728z" fill="#9bcb64"/><path d="M252.449 137.062c0 23.052-18.676 41.738-41.728 41.738V95.334c23.052 0 41.728 18.686 41.728 41.728z" fill="#7cb142"/><path d="M210.721 215.527a2.531 2.531 0 0 1-1.69-.635l-31.716-27.604c-1.074-.938-1.192-2.569-.254-3.634a2.574 2.574 0 0 1 3.643-.254l31.706 27.604a2.582 2.582 0 0 1 .254 3.643c-.507.587-1.22.88-1.943.88z" fill="#8b6e62"/><path d="M200.993 178.8c0 17.68-14.329 32.009-32.009 32.009s-32.009-14.329-32.009-32.009 14.329-32.009 32.009-32.009 32.009 14.329 32.009 32.009z" fill="#689d38"/><path d="M470.233 232.123c19.926 0 36.688 13.519 41.63 31.882-.117 3.77-.303 7.511-.576 11.233h-84.169c0-23.814 19.301-43.115 43.115-43.115z" fill="#9bcb64"/><path d="M470.233 232.123c19.926 0 36.688 13.519 41.63 31.882-.117 3.77-.303 7.511-.576 11.233h-41.054v-43.115z" fill="#7cb142"/><path d="M406.976 244.577c16.937 0 30.661 13.724 30.661 30.661h-61.322c0-16.938 13.724-30.661 30.661-30.661z" fill="#9bcb64"/><path d="M406.976 244.577c16.937 0 30.661 13.724 30.661 30.661h-30.661v-30.661z" fill="#7cb142"/><path d="M442.443 244.596c16.918 0 30.632 13.714 30.632 30.642h-61.264c0-16.928 13.714-30.642 30.632-30.642z" fill="#689d38"/><path d="M442.443 244.596c16.918 0 30.632 13.714 30.632 30.642h-30.632v-30.642z" fill="#54892e"/><path d="M49.689 259.775c-19.77 0-35.799 16.029-35.799 35.799h71.598c0-19.77-16.029-35.799-35.799-35.799z" fill="#9bcb64"/><path d="M49.689 295.574h35.799c0-19.77-16.029-35.799-35.799-35.799v35.799z" fill="#7cb142"/><path d="M95.793 270.119c-14.066 0-25.465 11.399-25.465 25.455h50.92c0-14.056-11.399-25.455-25.455-25.455z" fill="#9bcb64"/><path d="M98.118 295.574h23.13c0-13.274-10.159-24.175-23.13-25.348v25.348z" fill="#7cb142"/><path d="M66.343 270.139c-14.056 0-25.445 11.389-25.445 25.435h50.881c-.001-14.046-11.39-25.435-25.436-25.435z" fill="#689d38"/><path d="M68.365 295.574h23.413c0-13.362-10.305-24.322-23.404-25.357h-.01v25.357z" fill="#54892e"/><path d="M283.042 246.667c-21.548 0-39.022 17.475-39.022 39.022h78.045c0-21.548-17.465-39.022-39.023-39.022z" fill="#7cb142"/><g fill="#9bcb64"><path d="M283.042 285.689h39.022c0-21.548-17.475-39.022-39.022-39.022v39.022z"/><path d="M333.298 257.939c-15.326 0-27.75 12.425-27.75 27.75h55.501c-.001-15.325-12.426-27.75-27.751-27.75z"/></g><path d="M301.191 257.968c-15.306 0-27.721 12.405-27.721 27.721h55.452c0-15.316-12.415-27.721-27.731-27.721z" fill="#689d38"/><path d="M301.191 285.689h27.731c0-15.306-12.415-27.721-27.731-27.721v27.721z" fill="#54892e"/><path d="M464.968 285.318c-6.759 0-12.229 5.47-12.229 12.22h24.449c0-6.75-5.47-12.22-12.22-12.22zm-310.451-2.452c-14.036 0-25.426 11.379-25.426 25.426h50.851c.001-14.046-11.379-25.426-25.425-25.426zm21.978-17.816c-5.48 0-9.924 4.444-9.924 9.934h19.858a9.93 9.93 0 0 0-9.934-9.934zm80.672 48.145c-6.75 0-12.229 5.47-12.229 12.22h24.449c0-6.75-5.47-12.22-12.22-12.22zm127.089-13.577c-5.48 0-9.934 4.444-9.934 9.934h19.868a9.93 9.93 0 0 0-9.934-9.934z" fill="#e5e5e5"/><path d="M249.05 322.954c117.155 0 212.128 17.23 212.128 38.485s-94.973 38.485-212.128 38.485-212.118-17.23-212.118-38.485 94.963-38.485 212.118-38.485z" fill="#66b96a"/></svg>