<svg xmlns="http://www.w3.org/2000/svg" viewBox="0 0 512 512"><circle cx="256" cy="256" r="256" fill="#8dd9ff"/><path d="M153.423 21.442C141.133 42.833 134 67.561 134 94c0 80.633 65.366 146 146 146s146-65.367 146-146c0-11.231-1.388-22.118-3.789-32.621C377.481 23.141 319.459 0 256 0c-36.488 0-71.165 7.685-102.577 21.442z" fill="#fffff4" opacity=".3"/><circle cx="280" cy="94" r="68.639" fill="#fffff4" opacity=".4"/><path d="M348.085 306.417c0-12.222-9.908-22.131-22.131-22.131-1.845 0-3.608.292-5.322.717-5.775-6.236-13.962-10.202-23.132-10.202-17.461 0-31.615 14.155-31.615 31.615h82.2z" fill="#fff" opacity=".6"/><path d="M171.318 306.417c0-16.705-13.542-30.247-30.247-30.247-2.521 0-4.932.399-7.273.98-7.893-8.523-19.083-13.943-31.616-13.943-23.864 0-43.211 19.346-43.211 43.211h112.347zm101.769-14.668c-1.539 0-2.993.303-4.387.742-4.416-6.347-11.74-10.521-20.058-10.521s-15.643 4.173-20.058 10.521c-1.394-.44-2.848-.742-4.387-.742-8.101 0-14.667 6.567-14.667 14.667h78.226c-.002-8.1-6.569-14.667-14.669-14.667zm162.082 2.859c-1.239 0-2.41.244-3.532.598-3.555-5.11-9.452-8.47-16.149-8.47s-12.594 3.36-16.149 8.47c-1.122-.354-2.293-.598-3.532-.598-6.522 0-11.808 5.287-11.808 11.808h62.978c.001-6.521-5.286-11.808-11.808-11.808z" fill="#fff"/><path d="M489.448 291.93c-1.52 0-2.956.299-4.333.733-4.361-6.269-11.596-10.391-19.812-10.391s-15.45 4.122-19.812 10.391c-1.377-.434-2.813-.733-4.333-.733-8.001 0-14.487 6.486-14.487 14.487h77.263c.001-8.001-6.485-14.487-14.486-14.487z" fill="#fff" opacity=".6"/><path d="M503.935 320H46.667L88 416s118.137 69.333 152.402 77.333c14.091 3.29 38.771 8.834 62.948 14.224C401.14 489.26 479.372 415.433 503.935 320z" fill="#57b9e7" opacity=".2"/><path d="M474.783 388.987c-45.206-18.245-126.877-30.453-220.288-30.453-79.072 0-149.789 8.74-197.071 22.487l12.975 29.632s87.826 50.676 139.776 73.361c14.407.613 29.199.95 44.32.95 48.484 0 93.766-3.309 132.499-9.019 35.863-21.406 66.069-51.303 87.789-86.958z" fill="#b3f4ef"/><path d="M465.151 403.557H132.192V427h314.274c6.679-7.428 12.903-15.267 18.685-23.443z" fill="#fff"/><path d="M450.936 421.749H132.192S196.482 465 197.241 465c.491 0 96.303 8.35 163.943 14.25 8.863-.994 17.515-2.082 25.81-3.304 24.211-14.452 45.758-32.847 63.942-54.197z" fill="#fff8db"/><path d="M256 333c89.83 0 171.652 10.788 233.157 28.471 6.021-13.281 11.077-27.093 14.777-41.471H46.667l13.812 32.079C116.109 340.051 183.43 333 256 333z" fill="#57b9e7"/><path d="M47.719 324a8 8 0 0 1-3.469-15.211c34.969-16.801 76.656-53.531 76.656-133.109 0-4.418 3.578-8 8-8s8 3.582 8 8c0 87.898-46.625 128.742-85.734 147.531a7.984 7.984 0 0 1-3.453.789z" fill="#8c665b"/><path d="M132.046 168.183s-48.214-1.262-49.891 48.188c0 0 5.467-4.433 7.382-8.57 0 0 1.238 2.507.361 5.124 0 0 4.508-4.382 5.691-9.236 0 0 .815 1.811.016 4.433 0 0 4.708-3.868 6.007-6.957 0 0 .767 1.389-.3 3.325 0 0 4.467-3.883 5.582-9.411 0 0 1.363 1.262 1.013 4.165 0 0 5.341-6.333 5.896-9.974 0 0 1.823.761.781 3.507 0-.001 13.088-9.728 17.462-24.594z" fill="#43ab5f"/><path d="M132.046 168.183s40.842 25.655 14.847 67.755c0 0-2.097-6.719-1.399-11.224 0 0-2.42 1.401-3.139 4.066 0 0-1.327-6.145.378-10.843 0 0-1.682 1.057-2.468 3.683 0 0-1.778-5.828-1.148-9.12 0 0-1.408.732-1.592 2.935 0 0-1.568-5.708.565-10.927 0 0-1.834.296-3.15 2.906 0 0-.939-8.231.616-11.57 0 0-1.94-.376-2.593 2.488-.001-.001-5.509-15.349-.917-30.149z" fill="#43ab5f"/><path d="M132.046 168.183s4.962-50.133-43.047-55.016c0 0 3.892 5.975 7.771 8.232 0 0-2.537 1.13-5.017.05 0 0 3.917 4.973 8.551 6.513 0 0-1.826.735-4.317-.264 0 0 3.4 5.148 6.308 6.697 0 0-1.411.71-3.213-.523 0 0 3.434 4.898 8.729 6.41 0 0-1.334 1.34-4.133.792 0 0 5.752 5.963 9.254 6.773 0 0-.883 1.85-3.475.59 0 0 8.456 14.247 22.589 19.746z" fill="#52c883"/><path d="M132.046 168.183s-36.121-40.796-78.65-3.771c0 0 7.912 1.071 12.838-.56 0 0-1.137 2.97-3.996 4.278 0 0 7.13.319 12.09-2.475 0 0-.881 2.08-3.684 3.456 0 0 6.855.884 10.433-.443 0 0-.568 1.712-3.004 2.335 0 0 6.682.673 12.151-2.701 0 0-.001 2.106-2.692 4.072 0 0 9.399-.509 12.864-2.879 0 0 .771 2.097-2.323 3.37.001.001 18.204 3.252 33.973-4.682zm0 0s52.671-13.959 67.572 40.425c0 0-7.181-3.49-10.379-7.577 0 0-.699 3.102.957 5.775 0 0-6.113-3.684-8.695-8.758 0 0-.419 2.22 1.153 4.919 0 0-6.197-3.061-8.441-6.148 0 0-.475 1.74 1.208 3.608 0 0-5.936-3.141-8.621-8.98 0 0-1.165 1.755-.014 4.882 0 0-7.544-5.63-9.115-9.522 0 0-1.803 1.319.068 4.092-.002 0-16.958-7.375-25.693-22.716z" fill="#34be69"/><path d="M132.046 168.183s9.609-53.635 65.194-44.157c0 0-6.198 5.034-11.253 6.205 0 0 2.516 1.944 5.638 1.573 0 0-5.923 3.983-11.611 4.179 0 0 1.834 1.319 4.944 1.034 0 0-5.392 4.323-9.139 5.052 0 0 1.375 1.165 3.78.43 0 0-5.356 4.052-11.781 4.018 0 0 1.098 1.798 4.418 2.076 0 0-8.29 4.458-12.482 4.237 0 0 .433 2.192 3.738 1.668-.001.001-13.851 12.252-31.446 13.685z" fill="#52c883"/><path d="M103.058 409.75v-16.233c25.728 0 87.092-67.741 88.717-97.947l16.217.872c-2.124 39.183-70.764 113.308-104.934 113.308z" fill="#8c665b"/><circle cx="280" cy="94" r="26.985" fill="#fff"/><path d="M207.595 432c-19.824-16-41.116-.667-52.864-24-6.929-13.763-37.866-4.4-52.864-16-19.824-15.333-16.789-35.083-26.432-56-12.39-26.875-43.493-45.546-73.345-47.775C17.948 414.386 125.538 512 256 512c64.899 0 124.115-24.197 169.237-64H251.648c-21.293 0-32.309-6.521-44.053-16z" fill="#8c665b"/><path d="M202.224 298.427s-52.8-6.236-59.616 47.878c0 0 6.448-4.317 8.966-8.665 0 0 1.107 2.877-.119 5.662 0 0 5.389-4.356 7.177-9.567 0 0 .713 2.07-.429 4.868 0 0 5.558-3.772 7.294-7.033 0 0 .702 1.602-.664 3.62 0 0 5.295-3.813 7.075-9.769 0 0 1.369 1.523.693 4.674 0 0 6.5-6.415 7.476-10.356 0 0 1.925 1.019.504 3.929 0-.001 15.345-9.363 21.643-25.241z" fill="#43ab5f"/><path d="M202.224 298.427s42.252 32.272 9.481 75.871c0 0-1.625-7.587-.407-12.462 0 0-2.797 1.295-3.855 4.148 0 0-.838-6.879 1.505-11.864 0 0-1.952.991-3.08 3.794 0 0-1.365-6.577-.342-10.127 0 0-1.619.662-2.043 3.061 0 0-1.147-6.424 1.719-11.939 0 0-2.043.14-3.75 2.873 0 0-.203-9.13 1.84-12.639 0 0-2.091-.608-3.097 2.47.001.001-4.501-17.402 2.029-33.186z" fill="#43ab5f"/><path d="M202.224 298.427s10.491-54.534-41.719-64.724c0 0 3.671 6.95 7.702 9.818 0 0-2.898.985-5.512-.449 0 0 3.799 5.853 8.731 8.01 0 0-2.078.623-4.712-.724 0 0 3.215 5.993 6.251 7.986 0 0-1.621.637-3.475-.898 0 0 3.277 5.723 8.937 7.914 0 0-1.6 1.337-4.617.453 0 0 5.714 7.125 9.477 8.366 0 0-1.155 1.942-3.874.298.001.001 7.85 16.49 22.811 23.95z" fill="#52c883"/><path d="M202.224 298.427s-35.547-48.418-85.959-12.053c0 0 8.578 1.972 14.15.677 0 0-1.547 3.146-4.817 4.295 0 0 7.795 1.068 13.521-1.5 0 0-1.176 2.195-4.392 3.423 0 0 7.436 1.66 11.498.563 0 0-.795 1.822-3.532 2.261 0 0 7.267 1.411 13.611-1.742 0 0-.213 2.312-3.365 4.199 0 0 10.369.387 14.411-1.866 0 0 .635 2.38-2.889 3.465-.001 0 19.654 5.4 37.763-1.722zm0 0s59.223-10.024 70.109 51.175c0 0-7.532-4.554-10.631-9.361 0 0-1.079 3.335.469 6.435 0 0-6.34-4.659-8.664-10.489 0 0-.683 2.395.771 5.515 0 0-6.495-3.983-8.648-7.599 0 0-.696 1.862.963 4.083 0 0-6.2-4.046-8.56-10.725 0 0-1.456 1.809-.507 5.357 0 0-7.715-6.939-9.048-11.37 0 0-2.112 1.267-.337 4.499-.001.001-17.872-9.801-25.917-27.52z" fill="#34be69"/><path d="M202.224 298.427s15.944-57.911 76.009-41.914c0 0-7.31 4.902-12.978 5.679 0 0 2.567 2.387 6.031 2.294 0 0-6.902 3.777-13.167 3.419 0 0 1.881 1.632 5.323 1.633 0 0-6.354 4.203-10.54 4.627 0 0 1.393 1.418 4.106.853 0 0-6.287 3.909-13.337 3.226 0 0 1.025 2.084 4.641 2.724 0 0-9.549 4.059-14.129 3.395 0 0 .255 2.45 3.935 2.207.001-.001-16.435 12.054-35.894 11.857z" fill="#52c883"/><path d="M398.258 216h-16c0 84.383 26.153 147.25 79.725 191.986 3.179-4.301 6.192-8.729 9.102-13.23-48.941-41.503-72.827-100.06-72.827-178.756z" fill="#8c665b"/><path d="M388.377 213.662s-58.416 24.647-33.596 84.767c0 0 4.142-8.275 4.19-14.267 0 0 2.843 2.33 3.212 5.94 0 0 3.021-7.692 1.804-14.147 0 0 1.959 1.726 2.424 5.299 0 0 3.539-7.186 3.418-11.59 0 0 1.671 1.247 1.445 4.144 0 0 3.242-7.074 1.578-14.297 0 0 2.317.772 3.473 4.437 0 0 2.96-10.481 1.648-15.142 0 0 2.596-.078 2.838 3.776 0 .001 10.394-18.747 7.566-38.92z" fill="#43ab5f"/><path d="M388.377 213.662s62.823 8.562 54.537 73.075c0 0-6.156-6.908-7.765-12.68 0 0-2.137 2.991-1.552 6.572 0 0-4.922-6.638-5.43-13.188 0 0-1.441 2.178-.957 5.749 0 0-5.291-6.014-6.322-10.298 0 0-1.289 1.641-.314 4.378 0 0-4.974-5.984-5.252-13.391 0 0-2.035 1.349-2.195 5.189 0 0-5.591-9.347-5.54-14.188 0 0-2.527.602-1.755 4.386-.001-.002-14.924-15.392-17.455-35.604z" fill="#43ab5f"/><path d="M388.377 213.662s-21.258-62.721-81.392-42.522c0 0 7.901 5.043 13.771 5.641 0 0-2.424 2.729-5.979 2.782 0 0 7.388 3.83 13.772 3.159 0 0-1.788 1.87-5.312 2.026 0 0 6.864 4.319 11.187 4.597 0 0-1.305 1.615-4.132 1.117 0 0 6.769 4.002 13.93 2.939 0 0-.87 2.329-4.52 3.191 0 0 10.122 4.02 14.756 3.089 0 0-.053 2.694-3.841 2.592-.001 0 17.854 12.471 37.76 11.389z" fill="#52c883"/><path d="M388.377 213.662s-65.384-29.252-96.222 38.155c0 0 10.055-3.01 15.069-7.636 0 0 .25 4.173-2.463 7.291 0 0 8.711-3.486 13.134-9.523 0 0 .074 2.968-2.536 6.137 0 0 8.688-2.66 12.252-6.191 0 0 .249 2.357-2.33 4.425 0 0 8.366-2.82 13.085-9.826 0 0 1.141 2.523-1.014 6.337 0 0 10.978-5.708 13.841-10.427 0 0 2.06 2.093-.954 5.295.001.001 23.56-5.982 38.138-24.037z" fill="#34be69"/><path d="M388.377 213.662s55.495-45.29 102.842 11.745c0 0-10.492-.283-16.538-3.441 0 0 .846 4.093 4.279 6.396 0 0-9.319-1.095-15.163-5.769 0 0 .703 2.886 4.049 5.264 0 0-9.081-.302-13.443-2.782 0 0 .375 2.341 3.404 3.665 0 0-8.812-.541-15.195-6.075 0 0-.443 2.734 2.631 5.853 0 0-12.087-2.648-16.081-6.456 0 0-1.443 2.558 2.301 4.863.001-.002-24.304.367-43.086-13.263z" fill="#34be69"/><path d="M388.377 213.662s-17.593-69.435 54.107-88.244c0 0-4.69 9.39-10.109 13.535 0 0 4.068.963 7.605-1.175 0 0-4.931 7.983-11.636 11.303 0 0 2.912.584 6.481-1.444 0 0-4.111 8.102-8.202 11.008 0 0 2.279.649 4.76-1.536 0 0-4.214 7.758-11.927 11.203 0 0 2.29 1.557 6.416.09 0 0-7.508 9.835-12.647 11.845 0 0 1.708 2.389 5.38-.031.001.001-9.937 22.184-30.228 33.446z" fill="#52c883"/><path d="M64.522 361.471c-14.177-28.669-32.486-27.638-52.888-29.339C44.045 436.323 141.141 512 256 512c50.208 0 96.982-14.531 136.493-39.518-12.798-1.866-27.16-5.816-52.227 4.943-12.539 5.382-30.019-18.004-41.595-19.425-32.568-4-68.005 21.25-89.143 4-27.108-22.121-38.528-2-60.323-11.501-21.795-9.5-10.245-27.252-18.987-36.721-13.953-15.111-44.885-10.221-65.696-52.307z" fill="#674447"/></svg>