<svg xmlns="http://www.w3.org/2000/svg" viewBox="0 0 494.6 494.6"><path d="M267.3 245c24.8-24.8 65.6-43.2 89.6-36 7.2 24-10.4 64.8-36 89.6-24.8 24.8-49.6 27.2-74.4 20-6.4-23.2-4-48 20.8-73.6z" fill="#239b02"/><path d="M247.3 319.4c-7.2-24.8-4.8-49.6 20-74.4s65.6-43.2 89.6-36" fill="#34b515"/><path d="M227.3 245c-24.8-24.8-65.6-43.2-89.6-36-7.2 24 10.4 64.8 36 89.6 24.8 24.8 49.6 27.2 74.4 20 6.4-23.2 4-48-20.8-73.6z" fill="#239b02"/><path d="M247.3 319.4c7.2-24.8 4.8-49.6-20-74.4s-65.6-43.2-89.6-36" fill="#34b515"/><path fill="#683100" d="M239.3 198.6h16v144h-16z"/><path d="M136.1 334.6c-.8 0-.8 10.4-.8 16 0 73.6 50.4 132 112 132s112-58.4 112-132c0-6.4-.8-16.8-.8-16.8H136.1v.8z" fill="#894400"/><path d="M247.3 484.2c61.6 0 112-59.2 112-132 0-6.4-.8-16.8-1.6-16.8H223.3" fill="#683100"/><path fill="#c67812" d="M127.3 310.6h240v32h-240z"/><path fill="#683100" d="M175.3 462.6h144v32h-144z"/><circle cx="247.3" cy="105" r="104.8" fill="#04af76"/><path d="M172.9 30.6c40.8-40.8 107.2-40.8 148.8 0 40.8 40.8 40.8 107.2 0 148.8" fill="#008c61"/><path d="M239.3 190.6v-22.4c-16-.8-28-4-36-8.8l5.6-23.2c8.8 4.8 20 8.8 32.8 8.8 11.2 0 19.2-4.8 19.2-12.8s-6.4-12.8-21.6-17.6c-21.6-7.2-35.2-17.6-35.2-36.8 0-17.6 11.2-32 35.2-36V22.6h16v17.6c16 .8 24 3.2 30.4 6.4L280.1 69c-5.6-2.4-14.4-7.2-28.8-7.2-12.8 0-17.6 5.6-17.6 11.2 0 6.4 7.2 11.2 24 17.6 24 8.8 32.8 19.2 32.8 37.6 0 17.6-12 33.6-36 37.6v24h-15.2v.8z" fill="#fff6e1"/><path d="M247.3 22.6v40.8h4c14.4 0 24 4.8 28.8 7.2l4.8-22.4c-6.4-4-13.6-7.2-29.6-8V22.6h-8zm11.2 68.8c-4-1.6-8.8-3.2-11.2-4.8V117c8 4 14.4 8.8 14.4 14.4 0 6.4-5.6 11.2-14.4 12v47.2h8v-24c24-4 36-19.2 36-37.6 0-17.6-8.8-28.8-32.8-37.6z" fill="#ffeebd"/></svg>