<svg xmlns="http://www.w3.org/2000/svg" viewBox="0 0 512 512"><path d="M128 283.048c70.693 0 128 67.301 128 67.301s-57.307 67.301-128 67.301S0 350.349 0 350.349s57.307-67.301 128-67.301z" fill="#d0f0ea"/><path d="M213.079 212.251C263.067 262.237 256 350.349 256 350.349s-88.112 7.067-138.099-42.92S74.98 169.331 74.98 169.331s88.112-7.067 138.099 42.92z" fill="#92e0d3"/><path d="M384 283.048c-70.693 0-128 67.301-128 67.301s57.307 67.301 128 67.301 128-67.301 128-67.301-57.307-67.301-128-67.301z" fill="#446662"/><path d="M298.92 212.251C248.933 262.237 256 350.349 256 350.349s88.112 7.067 138.099-42.92 42.92-138.099 42.92-138.099-88.111-7.066-138.099 42.921z" fill="#2b8578"/><path d="M323.301 222.349c0 70.693-67.301 128-67.301 128s-67.301-57.307-67.301-128 67.301-128 67.301-128 67.301 57.308 67.301 128z" fill="#6db2a6"/></svg>