<svg xmlns="http://www.w3.org/2000/svg" viewBox="0 0 504 504"><path d="M479.781 476h-375c-40.317 0-73-32.683-73-73v-14c0-40.317 32.683-73 73-73h375v160z" fill="#ffebb7"/><path fill="#5c546a" d="M47.781 332h40v128h-40z"/><path d="M441.781 292h-426V180h426c12.15 0 22 9.85 22 22v68c0 12.15-9.85 22-22 22zm-370-256h408v120h-408z" fill="#ffebb7"/><path d="M480 492H112c-52.934 0-96-43.062-96-96s43.066-96 96-96h368c8.836 0 16 7.164 16 16s-7.164 16-16 16H112c-35.289 0-64 28.711-64 64s28.711 64 64 64h368c8.836 0 16 7.164 16 16s-7.164 16-16 16z" fill="#00c37a"/><path d="M432 300H8c-4.422 0-8-3.578-8-8s3.578-8 8-8h424c13.234 0 24-10.766 24-24v-48c0-13.234-10.766-24-24-24H8c-4.422 0-8-3.578-8-8s3.578-8 8-8h424c22.055 0 40 17.945 40 40v48c0 22.055-17.945 40-40 40z" fill="#009bca"/><path d="M479.781 76h-368a8 8 0 0 1 0-16h368v16zm0 32h-368a8 8 0 0 1 0-16h368v16zm0 32h-368a8 8 0 0 1 0-16h368v16zm-464 64h416a8 8 0 0 1 0 16h-416v-16zm0 32h416a8 8 0 0 1 0 16h-416v-16zm0 32h416a8 8 0 0 1 0 16h-416v-16z" fill="#e6be94"/><path d="M488 172H104c-26.469 0-48-21.531-48-48V60c0-26.469 21.531-48 48-48h384c8.836 0 16 7.164 16 16s-7.164 16-16 16H104c-8.824 0-16 7.176-16 16v64c0 8.82 7.176 16 16 16h384c8.836 0 16 7.164 16 16s-7.164 16-16 16z" fill="#ff4f19"/><path d="M111.781 444c-4.422 0-8 3.578-8 8s3.578 8 8 8h368v-16h-368zm0-32c-4.422 0-8 3.578-8 8s3.578 8 8 8h368v-16h-368zm0-32c-4.422 0-8 3.578-8 8s3.578 8 8 8h368v-16h-368zm0-32c-4.422 0-8 3.578-8 8s3.578 8 8 8h368v-16h-368z" fill="#e6be94"/></svg>