<svg xmlns="http://www.w3.org/2000/svg" style="isolation:isolate" viewBox="0 0 512 512"><defs><clipPath id="a"><path d="M0 0h512v512H0z"/></clipPath></defs><g clip-path="url(#a)"><path d="M512 256c0 81.697-38.273 154.456-97.863 201.322-43.535 34.242-98.452 54.672-158.142 54.672-59.679 0-114.596-20.43-158.131-54.672C38.273 410.467 0 337.708 0 256 0 114.612 114.618.006 255.994.006 397.382.006 512 114.612 512 256z" fill="#009688"/><path d="M404.049 412.975l-258.834-.223c-27.828-.024-50.368-22.284-50.344-49.72l.008-9.527c.024-27.436 22.602-49.657 50.429-49.633l258.835.223-.094 108.88z" fill="#FFEBB7"/><path fill="#5C546A" d="M105.913 314.74l27.61.029-.088 87.104-27.609-.028z"/><path d="M377.928 287.741l-294.036-.254.066-76.216 294.036.254c8.386.007 15.179 6.716 15.172 14.984l-.04 46.274c-.007 8.268-6.812 14.965-15.198 14.958zM122.68 113.33l281.612.281-.082 81.66-281.612-.281z" fill="#FFEBB7"/><path d="M404.191 423.863l-254.003-.219c-36.536-.031-66.236-29.361-66.205-65.385.031-36.024 29.781-65.302 66.317-65.271l254.003.219c6.099.006 11.04 4.885 11.034 10.898-.005 6.013-4.954 10.884-11.053 10.878l-254.002-.219c-24.358-.021-44.192 19.5-44.212 43.514-.021 24.014 19.779 43.569 44.137 43.59l254.002.219c6.099.005 11.04 4.885 11.035 10.898-.006 6.013-4.955 10.883-11.053 10.878z" fill="#00C37A"/><path d="M371.172 293.179l-292.655-.252c-3.052-.003-5.52-2.44-5.517-5.449.003-3.009 2.474-5.442 5.526-5.439l292.656.252c9.134.008 16.572-7.312 16.579-16.318l.028-32.664c.008-9.005-7.416-16.338-16.551-16.346l-292.655-.252c-3.052-.003-5.52-2.44-5.517-5.449.002-3.009 2.474-5.442 5.526-5.439l292.656.252c15.222.013 27.598 12.235 27.585 27.244l-.028 32.664c-.013 15.008-12.41 27.209-27.633 27.196z" fill="#009BCA"/><path d="M404.283 140.776l-254.002-.219c-3.05-.003-5.52-2.443-5.517-5.449.002-3.007 2.477-5.442 5.526-5.439l254.003.219-.01 10.888zm-.018 21.775l-254.003-.218c-3.049-.003-5.52-2.443-5.517-5.449.002-3.007 2.477-5.442 5.526-5.439l254.003.219-.009 10.887zm-.019 21.776l-254.003-.218c-3.049-.003-5.52-2.443-5.517-5.449.003-3.007 2.477-5.442 5.527-5.439l254.002.218-.009 10.888zM83.944 227.603l287.134.248c3.049.002 5.519 2.442 5.517 5.449-.003 3.006-2.477 5.441-5.527 5.439l-287.133-.248.009-10.888zm-.019 21.776l287.134.248c3.049.002 5.52 2.442 5.517 5.449-.003 3.006-2.477 5.441-5.527 5.439l-287.133-.248.009-10.888zm-.018 21.776l287.133.248c3.049.002 5.52 2.442 5.517 5.449-.002 3.006-2.477 5.441-5.526 5.439l-287.134-.248.01-10.888z" fill="#E6BE94"/><path d="M409.9 206.108l-265.046-.228c-18.27-.016-33.118-14.681-33.103-32.693l.038-43.552c.015-18.012 14.889-32.651 33.159-32.635l265.046.228c6.099.006 11.039 4.885 11.034 10.898-.005 6.013-4.954 10.884-11.053 10.878l-265.046-.228c-6.091-.005-11.048 4.874-11.053 10.878l-.038 43.552c-.005 6.002 4.944 10.893 11.035 10.898l265.046.228c6.099.006 11.039 4.885 11.034 10.898-.005 6.013-4.954 10.884-11.053 10.878z" fill="#FF4F19"/><path d="M150.065 390.98c-3.052-.002-5.524 2.43-5.527 5.439-.002 3.01 2.465 5.447 5.517 5.449l254.003.219.01-10.888-254.003-.219zm.019-21.776c-3.053-.002-5.524 2.43-5.527 5.439-.002 3.01 2.465 5.447 5.517 5.449l254.003.219.009-10.888-254.002-.219zm.018-21.776c-3.052-.002-5.523 2.43-5.526 5.439-.003 3.01 2.465 5.447 5.517 5.449l254.003.219.009-10.888-254.003-.219zm.019-21.776c-3.052-.002-5.524 2.43-5.526 5.44-.003 3.009 2.465 5.446 5.517 5.448l254.003.219.009-10.888-254.003-.219z" fill="#E6BE94"/></g></svg>