<svg xmlns="http://www.w3.org/2000/svg" viewBox="0 0 504.47 504.47"><path d="M394.189 450.56c21.662 9.452 81.526 36.628 102.794 45.292 2.363 1.182 7.877.788 7.089-4.332-4.726-51.2-33.477-344.615-38.597-396.603-.788-7.483-3.151-8.665-8.665-10.634-16.935-6.302-57.895-20.874-74.831-26.782-5.908-2.363-9.452-2.363-15.754 0-26.388 7.483-109.883 33.083-109.883 33.083s-87.04-26.388-114.215-33.871c-5.908-1.969-9.058-2.363-15.754.394-17.329 5.514-57.502 20.48-74.831 26.782-7.089 2.757-7.877 5.908-8.665 10.634C37.365 145.329 5.857 439.926.343 491.52c-.394 5.908 4.726 5.514 9.452 3.938 23.631-9.452 83.495-35.446 104.763-44.111 4.332-1.969 8.665-3.151 15.754 0 24.025 9.846 94.523 41.748 117.76 51.2 5.12 2.363 9.846 2.757 15.754 0 23.237-9.846 91.372-41.354 114.215-51.594 4.333-2.362 11.028-2.756 16.148-.393z" fill="#f4f0d3"/><path d="M137.008 55.532c-3.151-.394-6.302 0-10.634 1.575-17.329 5.514-57.502 20.48-74.831 26.782-7.089 2.757-7.877 5.908-8.665 10.634C37.365 145.329 5.857 439.926.343 491.52c-.394 5.908 4.726 5.514 9.452 3.938 23.631-9.452 83.495-35.446 104.763-44.111 3.151-1.182 5.908-2.363 10.24-1.575l12.21-394.24zm235.126 0c-1.575.394-3.151.788-5.12 1.575-26.388 7.877-106.732 32.295-110.277 33.477v413.538c2.363 0 5.12-.788 7.877-1.969 23.237-9.846 91.372-41.354 114.215-51.594 1.575-.788 3.545-1.182 5.514-1.575L372.134 55.532z" fill="#e8e4c8"/><path d="M184.269 474.585l68.923-68.923 70.105 70.105c14.572-6.695 28.751-13.391 40.172-18.511L111.802 205.982 233.894 83.889c-12.603-3.938-29.145-8.665-44.898-13.391L82.657 176.837 38.94 133.12c-1.575 14.966-3.545 33.083-5.514 53.169l190.622 190.622-79.951 79.951c11.028 4.726 25.6 11.027 40.172 17.723z" fill="#efc75e"/><path d="M133.069 184.714l1.969-60.258-52.382 51.988L38.94 133.12c-1.575 14.966-3.545 33.083-5.514 53.169l96.886 96.886 1.575-57.108-19.692-19.692 20.874-21.661zm123.274 224.492l66.56 66.56c14.572-6.695 28.751-13.391 40.172-18.511L256.343 350.523v58.683z" fill="#e3bd59"/><path d="M315.42 0c63.015 0 114.215 51.2 114.215 114.609 0 1.182-.394 30.72-10.24 51.594-23.237 53.957-79.163 111.065-97.674 129.575-4.726 4.332-6.695 5.12-12.603-.394-18.905-18.511-74.043-74.831-97.28-128.394-8.271-15.754-10.634-49.625-10.634-52.382C201.205 51.2 252.405 0 315.42 0z" fill="#e2574c"/><path d="M315.42 55.138c-32.689 0-59.077 26.388-59.077 59.077s26.388 59.077 59.077 59.077 59.077-26.388 59.077-59.077-26.388-59.077-59.077-59.077zm0 94.524c-19.692 0-35.446-15.754-35.446-35.446S295.728 78.77 315.42 78.77s35.446 15.754 35.446 35.446-15.754 35.446-35.446 35.446z" fill="#fff"/></svg>