<?xml version="1.0" encoding="iso-8859-1"?>
<!-- Generator: Adobe Illustrator 19.0.0, SVG Export Plug-In . SVG Version: 6.00 Build 0)  -->
<svg version="1.1" id="Layer_1" xmlns="http://www.w3.org/2000/svg" xmlns:xlink="http://www.w3.org/1999/xlink" x="0px" y="0px"
	 viewBox="0 0 512 512" style="enable-background:new 0 0 512 512;" xml:space="preserve">
<path style="fill:#2AA1BC;" d="M512,256c0,81.697-38.273,154.456-97.863,201.322c-43.535,34.242-98.452,54.672-158.142,54.672
	c-59.679,0-114.596-20.43-158.131-54.672C38.273,410.467,0,337.708,0,256C0,114.612,114.618,0.006,255.994,0.006
	C397.382,0.006,512,114.612,512,256z"/>
<path style="fill:#E9E4D8;" d="M414.137,457.322c-43.535,34.242-98.452,54.672-158.142,54.672
	c-59.679,0-114.596-20.43-158.131-54.672c5.663-12.569,18.298-21.318,32.987-21.318c0.577,0,1.133,0.011,1.699,0.044
	c-0.067-0.91-0.111-1.821-0.111-2.742c0-19.975,16.188-36.163,36.163-36.163c3.109,0,6.129,0.389,9.005,1.133
	c8.105-10.703,20.952-17.621,35.408-17.621c0.455,0,0.899,0.022,1.355,0.033v-129.94h83.274v129.94
	c0.444-0.011,0.888-0.033,1.343-0.033c14.456,0,27.303,6.917,35.408,17.621c2.876-0.744,5.896-1.133,9.005-1.133
	c19.975,0,36.163,16.188,36.163,36.163c0,0.922-0.044,1.832-0.111,2.742c0.566-0.033,1.133-0.044,1.699-0.044
	C395.839,436.004,408.474,444.754,414.137,457.322z"/>
<g>
	<path style="fill:#EB305B;" d="M256.002,298.753c0,0-43.299-13.585-84.381,17.504c0,0-14.159-71.679,18.928-104.765
		S256.002,298.753,256.002,298.753z"/>
	<path style="fill:#EB305B;" d="M256.002,298.753c0,0,43.299-13.585,84.381,17.504c0,0,14.159-71.679-18.928-104.765
		C288.369,178.407,256.002,298.753,256.002,298.753z"/>
</g>
<path style="fill:#FFFFFF;" d="M330.008,158.003c0,58.392-29.312,109.932-74.003,140.744
	c-44.701-30.811-74.003-82.352-74.003-140.744c0-35.119,10.592-67.751,28.779-94.899c12.036-17.998,27.403-33.565,45.223-45.856
	c17.809,12.28,33.176,27.858,45.223,45.845C319.405,90.241,330.008,122.884,330.008,158.003z"/>
<path style="fill:#F2F2F2;" d="M220.475,158.002c0,58.392,14.068,109.932,35.53,140.744
	c-44.701-30.811-74.003-82.352-74.003-140.744c0-35.119,10.592-67.751,28.779-94.899c12.036-17.998,27.403-33.565,45.223-45.856
	c-8.549,12.291-15.933,27.858-21.707,45.856C225.561,90.251,220.475,122.883,220.475,158.002z"/>
<g>
	<circle style="fill:#415E72;" cx="256.006" cy="213.003" r="25.537"/>
	<circle style="fill:#415E72;" cx="256.006" cy="136.38" r="25.537"/>
</g>
<path style="fill:#EB305B;" d="M301.227,63.093c-11.614,11.481-27.591,18.564-45.223,18.564c-9.082,0-17.732-1.876-25.571-5.285
	c-7.372-3.176-14.023-7.706-19.653-13.268c12.036-17.998,27.403-33.565,45.223-45.856C273.813,29.528,289.18,45.105,301.227,63.093z
	"/>
<path style="fill:#D82B59;" d="M256.003,17.248c-8.549,12.291-15.933,27.858-21.707,45.856c-1.377,4.286-2.665,8.716-3.864,13.268
	c-7.372-3.176-14.023-7.706-19.653-13.268C222.816,45.105,238.183,29.539,256.003,17.248z"/>
<g>
	<path style="fill:#DDD5BC;" d="M324.335,469.661c-2.337-4.633-4.364-8.474-6.725-11.93c-2.338-3.439-4.823-6.49-7.607-9.269
		c-2.788-2.775-5.836-5.257-9.274-7.592c-3.455-2.358-7.291-4.388-11.924-6.739c4.67-2.335,10.133-2.536,15.268-1.326
		c5.156,1.219,9.986,4.007,13.78,7.807c3.791,3.803,6.576,8.63,7.793,13.787C326.854,459.534,326.657,464.99,324.335,469.661z"/>
	<path style="fill:#DDD5BC;" d="M187.664,469.661c2.337-4.633,4.364-8.474,6.725-11.93c2.338-3.439,4.823-6.49,7.607-9.269
		c2.788-2.775,5.836-5.257,9.274-7.592c3.455-2.358,7.291-4.388,11.924-6.739c-4.67-2.335-10.133-2.536-15.268-1.326
		c-5.156,1.219-9.986,4.007-13.78,7.807c-3.791,3.803-6.576,8.63-7.793,13.787C185.146,459.534,185.343,464.99,187.664,469.661z"/>
</g>
<g>
	<line style="fill:none;stroke:#DDD5BC;stroke-width:8;stroke-miterlimit:10;" x1="237.13" y1="324.023" x2="237.13" y2="379.539"/>
	<line style="fill:none;stroke:#DDD5BC;stroke-width:8;stroke-miterlimit:10;" x1="271.55" y1="314.031" x2="271.55" y2="369.546"/>
</g>
<g>
	<path style="fill:#FFFFFF;" d="M440.995,154.029c-6.015-2.319-12.028-3.481-18.043-4.35c-4.205-0.57-8.408-0.914-12.613-1.079
		c-0.165-4.205-0.51-8.408-1.079-12.613c-0.87-6.015-2.031-12.028-4.35-18.043c-2.319,6.015-3.48,12.028-4.35,18.043
		c-0.57,4.201-0.913,8.403-1.078,12.604c-4.205,0.161-8.41,0.505-12.614,1.074c-6.015,0.866-12.028,2.033-18.043,4.365
		c6.015,2.333,12.028,3.499,18.043,4.365c4.201,0.568,8.403,0.913,12.604,1.074c0.161,4.201,0.504,8.403,1.073,12.604
		c0.866,6.015,2.033,12.028,4.366,18.043c2.333-6.015,3.499-12.028,4.366-18.043c0.568-4.205,0.913-8.41,1.074-12.614
		c4.201-0.165,8.403-0.51,12.604-1.078C428.967,157.508,434.981,156.348,440.995,154.029z"/>
	<path style="fill:#FFFFFF;" d="M125.666,328.348c-6.015-2.319-12.028-3.481-18.043-4.35c-4.205-0.57-8.408-0.914-12.613-1.079
		c-0.165-4.205-0.51-8.408-1.079-12.613c-0.87-6.015-2.031-12.028-4.35-18.043c-2.319,6.015-3.48,12.028-4.35,18.043
		c-0.57,4.201-0.913,8.403-1.078,12.604c-4.205,0.161-8.41,0.505-12.614,1.074c-6.015,0.866-12.028,2.033-18.043,4.365
		c6.015,2.333,12.028,3.499,18.043,4.365c4.201,0.568,8.403,0.913,12.604,1.074c0.161,4.201,0.504,8.403,1.073,12.604
		c0.866,6.015,2.033,12.028,4.366,18.043c2.333-6.015,3.499-12.028,4.366-18.043c0.568-4.205,0.913-8.41,1.074-12.614
		c4.201-0.165,8.403-0.51,12.604-1.078C113.638,331.828,119.651,330.668,125.666,328.348z"/>
</g>
<g>
</g>
<g>
</g>
<g>
</g>
<g>
</g>
<g>
</g>
<g>
</g>
<g>
</g>
<g>
</g>
<g>
</g>
<g>
</g>
<g>
</g>
<g>
</g>
<g>
</g>
<g>
</g>
<g>
</g>
</svg>
