<svg xmlns="http://www.w3.org/2000/svg" viewBox="0 0 512 512"><path d="M512 256c0 81.697-38.273 154.456-97.863 201.322-43.535 34.242-98.452 54.672-158.142 54.672-59.679 0-114.596-20.43-158.131-54.672C38.273 410.467 0 337.708 0 256 0 114.612 114.618.006 255.994.006 397.382.006 512 114.612 512 256z" fill="#2aa1bc"/><path d="M414.137 457.322c-43.535 34.242-98.452 54.672-158.142 54.672-59.679 0-114.596-20.43-158.131-54.672 5.663-12.569 18.298-21.318 32.987-21.318.577 0 1.133.011 1.699.044a37.263 37.263 0 0 1-.111-2.742c0-19.975 16.188-36.163 36.163-36.163 3.109 0 6.129.389 9.005 1.133 8.105-10.703 20.952-17.621 35.408-17.621.455 0 .899.022 1.355.033v-129.94h83.274v129.94c.444-.011.888-.033 1.343-.033 14.456 0 27.303 6.917 35.408 17.621a35.926 35.926 0 0 1 9.005-1.133c19.975 0 36.163 16.188 36.163 36.163 0 .922-.044 1.832-.111 2.742a29.193 29.193 0 0 1 1.699-.044c14.688 0 27.323 8.75 32.986 21.318z" fill="#e9e4d8"/><path d="M256.002 298.753s-43.299-13.585-84.381 17.504c0 0-14.159-71.679 18.928-104.765s65.453 87.261 65.453 87.261zm0 0s43.299-13.585 84.381 17.504c0 0 14.159-71.679-18.928-104.765-33.086-33.085-65.453 87.261-65.453 87.261z" fill="#eb305b"/><path d="M330.008 158.003c0 58.392-29.312 109.932-74.003 140.744-44.701-30.811-74.003-82.352-74.003-140.744 0-35.119 10.592-67.751 28.779-94.899a171.682 171.682 0 0 1 45.223-45.856 171.966 171.966 0 0 1 45.223 45.845c18.178 27.148 28.781 59.791 28.781 94.91z" fill="#fff"/><path d="M220.475 158.002c0 58.392 14.068 109.932 35.53 140.744-44.701-30.811-74.003-82.352-74.003-140.744 0-35.119 10.592-67.751 28.779-94.899a171.682 171.682 0 0 1 45.223-45.856c-8.549 12.291-15.933 27.858-21.707 45.856-8.736 27.148-13.822 59.78-13.822 94.899z" fill="#f2f2f2"/><g fill="#415e72"><circle cx="256.006" cy="213.003" r="25.537"/><circle cx="256.006" cy="136.38" r="25.537"/></g><path d="M301.227 63.093c-11.614 11.481-27.591 18.564-45.223 18.564-9.082 0-17.732-1.876-25.571-5.285a64.039 64.039 0 0 1-19.653-13.268 171.682 171.682 0 0 1 45.223-45.856 171.94 171.94 0 0 1 45.224 45.845z" fill="#eb305b"/><path d="M256.003 17.248c-8.549 12.291-15.933 27.858-21.707 45.856a259.544 259.544 0 0 0-3.864 13.268 64.039 64.039 0 0 1-19.653-13.268 171.686 171.686 0 0 1 45.224-45.856z" fill="#d82b59"/><path d="M324.335 469.661c-2.337-4.633-4.364-8.474-6.725-11.93-2.338-3.439-4.823-6.49-7.607-9.269-2.788-2.775-5.836-5.257-9.274-7.592-3.455-2.358-7.291-4.388-11.924-6.739 4.67-2.335 10.133-2.536 15.268-1.326 5.156 1.219 9.986 4.007 13.78 7.807 3.791 3.803 6.576 8.63 7.793 13.787 1.208 5.135 1.011 10.591-1.311 15.262zm-136.671 0c2.337-4.633 4.364-8.474 6.725-11.93 2.338-3.439 4.823-6.49 7.607-9.269 2.788-2.775 5.836-5.257 9.274-7.592 3.455-2.358 7.291-4.388 11.924-6.739-4.67-2.335-10.133-2.536-15.268-1.326-5.156 1.219-9.986 4.007-13.78 7.807-3.791 3.803-6.576 8.63-7.793 13.787-1.207 5.135-1.01 10.591 1.311 15.262z" fill="#ddd5bc"/><path d="M237.13 324.023v55.516m34.42-65.508v55.515" fill="none" stroke="#ddd5bc" stroke-width="8" stroke-miterlimit="10"/><path d="M440.995 154.029c-6.015-2.319-12.028-3.481-18.043-4.35-4.205-.57-8.408-.914-12.613-1.079-.165-4.205-.51-8.408-1.079-12.613-.87-6.015-2.031-12.028-4.35-18.043-2.319 6.015-3.48 12.028-4.35 18.043-.57 4.201-.913 8.403-1.078 12.604-4.205.161-8.41.505-12.614 1.074-6.015.866-12.028 2.033-18.043 4.365 6.015 2.333 12.028 3.499 18.043 4.365 4.201.568 8.403.913 12.604 1.074.161 4.201.504 8.403 1.073 12.604.866 6.015 2.033 12.028 4.366 18.043 2.333-6.015 3.499-12.028 4.366-18.043.568-4.205.913-8.41 1.074-12.614 4.201-.165 8.403-.51 12.604-1.078 6.012-.873 12.026-2.033 18.04-4.352zM125.666 328.348c-6.015-2.319-12.028-3.481-18.043-4.35-4.205-.57-8.408-.914-12.613-1.079-.165-4.205-.51-8.408-1.079-12.613-.87-6.015-2.031-12.028-4.35-18.043-2.319 6.015-3.48 12.028-4.35 18.043-.57 4.201-.913 8.403-1.078 12.604-4.205.161-8.41.505-12.614 1.074-6.015.866-12.028 2.033-18.043 4.365 6.015 2.333 12.028 3.499 18.043 4.365 4.201.568 8.403.913 12.604 1.074.161 4.201.504 8.403 1.073 12.604.866 6.015 2.033 12.028 4.366 18.043 2.333-6.015 3.499-12.028 4.366-18.043.568-4.205.913-8.41 1.074-12.614 4.201-.165 8.403-.51 12.604-1.078 6.012-.872 12.025-2.032 18.04-4.352z" fill="#fff"/></svg>