<svg xmlns="http://www.w3.org/2000/svg" style="isolation:isolate" viewBox="513 524.5 36.002 36.002" width="36.002" height="36.002"><path d="M513.001 532.501l2 26 26 2-28-28z" fill="#9B1010"/><path d="M527.001 546.501l-12 12-2-26 14 14z" fill="#B71C1C"/><path d="M515.005 526.505c4.555-4.555 15.41-1.086 24.242 7.75 8.836 8.832 12.305 19.687 7.75 24.242s-15.41 1.086-24.242-7.75c-8.836-8.832-12.305-19.687-7.75-24.242z" fill="#C62828"/><path d="M545.001 535.501l-7-7-8-4-6 4 3 9 9 8 9 3 4-6-4-7z" fill="#E53935"/><path d="M524.001 528.501l6-4h-11l5 4zm-11 5l11-5 3 9-14-4zm23 12l-13.234 5.234 4.234-13.234 9 8zm9 3l-4 12-5-15 9 3zm4-6v11l-4-5 4-6z" fill="#FF5252" class="settingrun"/></svg>