<?xml version="1.0" standalone="no"?><!-- Generator: Gravit.io --><svg xmlns="http://www.w3.org/2000/svg" xmlns:xlink="http://www.w3.org/1999/xlink" style="isolation:isolate" viewBox="513 524.5 36.002 36.002" width="36.002" height="36.002"><g id="组"><path d=" M 513.001 532.501 L 515.001 558.501 L 541.001 560.501 L 513.001 532.501 Z " fill="rgb(155,16,16)"/><path d=" M 527.001 546.501 L 515.001 558.501 L 513.001 532.501 L 527.001 546.501 Z " fill="rgb(183,28,28)"/><path d=" M 515.005 526.505 C 519.56 521.95 530.415 525.419 539.247 534.255 C 548.083 543.087 551.552 553.942 546.997 558.497 C 542.442 563.052 531.587 559.583 522.755 550.747 C 513.919 541.915 510.45 531.06 515.005 526.505 Z " fill="rgb(198,40,40)"/><path d=" M 545.001 535.501 L 538.001 528.501 L 530.001 524.501 L 524.001 528.501 L 527.001 537.501 L 536.001 545.501 L 545.001 548.501 L 549.001 542.501 L 545.001 535.501 Z " fill="rgb(229,57,53)"/><path d=" M 524.001 528.501 L 530.001 524.501 L 519.001 524.501 L 524.001 528.501 Z  M 513.001 533.501 L 524.001 528.501 L 527.001 537.501 L 513.001 533.501 Z  M 536.001 545.501 L 522.767 550.735 L 527.001 537.501 L 536.001 545.501 Z  M 545.001 548.501 L 541.001 560.501 L 536.001 545.501 L 545.001 548.501 Z  M 549.001 542.501 L 549.001 553.501 L 545.001 548.501 L 549.001 542.501 Z " fill="rgb(255,82,82)" class="settingrun"/></g></svg>