<svg xmlns="http://www.w3.org/2000/svg" viewBox="0 0 512 512"><path class="settingrun" d="M504.646 240.237l-53.383-44.765a40.696 40.696 0 0 1-14.391-34.743l6.093-69.401c1.119-12.746-9.546-23.411-22.292-22.292l-69.401 6.093a40.693 40.693 0 0 1-34.743-14.391L271.763 7.353c-8.222-9.804-23.304-9.804-31.526 0l-44.765 53.383a40.697 40.697 0 0 1-34.743 14.391l-69.401-6.093c-12.746-1.119-23.411 9.546-22.292 22.292l6.093 69.401a40.696 40.696 0 0 1-14.391 34.743L7.353 240.237c-9.804 8.222-9.804 23.304 0 31.526l53.383 44.765a40.696 40.696 0 0 1 14.391 34.743l-6.093 69.401c-1.119 12.746 9.546 23.411 22.292 22.292l69.401-6.093a40.693 40.693 0 0 1 34.743 14.391l44.765 53.383c8.222 9.804 23.304 9.804 31.526 0l44.765-53.383a40.696 40.696 0 0 1 34.743-14.391l69.401 6.093c12.746 1.119 23.411-9.546 22.292-22.292l-6.093-69.401a40.691 40.691 0 0 1 14.392-34.743l53.383-44.765c9.807-8.222 9.807-23.304.002-31.526z" fill="#e6595a"><animateTransform attributeName="transform" attributeType="XML" type="rotate" from="0 256 256" to="360 256 256" dur="10s" repeatCount="indefinite"/></path><circle cx="243.918" cy="268.092" r="149.977" opacity=".1"/><circle cx="256" cy="255.999" r="149.522" fill="#f3c74f"/><path d="M164.694 255.27a8.134 8.134 0 0 1-8.134-8.134v-4.285a8.134 8.134 0 0 1 16.268 0v4.285a8.134 8.134 0 0 1-8.134 8.134zm182.611 0a8.134 8.134 0 0 1-8.134-8.134v-4.285a8.134 8.134 0 0 1 16.268 0v4.285a8.134 8.134 0 0 1-8.134 8.134z" fill="#394049"/><path class="mouth" d="M271.332 277.282a23.373 23.373 0 0 1-15.333-5.715 23.373 23.373 0 0 1-15.333 5.715c-12.939 0-23.466-10.526-23.466-23.466a8.134 8.134 0 0 1 16.268 0c0 3.969 3.23 7.198 7.198 7.198 3.969 0 7.199-3.229 7.199-7.198a8.134 8.134 0 0 1 16.268 0c0 3.969 3.23 7.198 7.199 7.198s7.198-3.229 7.198-7.198a8.134 8.134 0 0 1 16.268 0c0 12.94-10.526 23.466-23.466 23.466z" fill="#394049"><animateTransform attributeName="transform" attributeType="XML" type="translate" values="0 40;0 10;0 40" dur="1s" repeatCount="indefinite" additive="sum" fill="freeze"/></path><path d="M177.761 286.033H151.63a8.134 8.134 0 0 1 0-16.268h26.131a8.134 8.134 0 0 1 0 16.268zm182.61 0H334.24a8.134 8.134 0 0 1 0-16.268h26.131a8.134 8.134 0 0 1 0 16.268z" fill="#e6595a"/></svg>