<svg xmlns="http://www.w3.org/2000/svg" viewBox="0 0 512 512"><path d="M244.983 6.36l-59.672 103.356h141.377L267.016 6.36c-4.896-8.48-17.136-8.48-22.033 0z" fill="#e18c36"/><path d="M71.689 87.268l30.888 115.278 99.969-99.969L87.268 71.689c-9.459-2.535-18.114 6.12-15.579 15.579z" fill="#ec8560"/><path d="M6.36 267.016l103.356 59.672V185.311L6.36 244.983c-8.48 4.897-8.48 17.137 0 22.033z" fill="#e18c36"/><path d="M87.268 440.311l115.278-30.888-99.969-99.969-30.888 115.278c-2.535 9.459 6.12 18.114 15.579 15.579z" fill="#ec8560"/><path d="M267.016 505.639l59.672-103.356H185.311l59.672 103.356c4.897 8.481 17.137 8.481 22.033 0z" fill="#e18c36"/><path d="M440.311 424.732l-30.888-115.278-99.969 99.969 115.278 30.888c9.459 2.535 18.114-6.12 15.579-15.579z" fill="#ec8560"/><path d="M505.639 244.983l-103.356-59.672v141.377l103.356-59.672c8.481-4.896 8.481-17.136 0-22.033z" fill="#e18c36"/><path d="M424.732 71.689l-115.278 30.888 99.969 99.969 30.888-115.278c2.535-9.459-6.12-18.114-15.579-15.579z" fill="#ec8560"/><path d="M96.734 180.74l5.843 21.806 92.581-92.581c-40.906 10.73-75.764 36.375-98.424 70.775z" opacity=".1"/><path d="M86.379 198.785c-11.181 22.602-17.475 48.053-17.475 74.977 0 10.591.982 20.952 2.842 31.005l37.97 21.922V185.311l-23.337 13.474z" opacity=".1"/><path d="M102.577 309.454l-12.443 46.439a170.111 170.111 0 0 0 65.973 65.973l46.439-12.443-99.969-99.969z" opacity=".1"/><path d="M185.311 402.283l21.922 37.97a170.283 170.283 0 0 0 31.005 2.842c26.924 0 52.375-6.294 74.977-17.475l13.473-23.336H185.311v-.001z" opacity=".1"/><path d="M309.454 409.423l21.805 5.843c34.399-22.659 60.046-57.517 70.775-98.423l-92.58 92.58z" opacity=".1"/><circle cx="255.999" cy="255.999" r="169.332" fill="#f7d64c"/><path d="M277.206 299.615c-8.328 0-15.857-3.485-21.207-9.072-5.349 5.589-12.878 9.072-21.207 9.072-16.191 0-29.363-13.173-29.363-29.364a8.158 8.158 0 0 1 16.316 0c0 7.195 5.853 13.049 13.048 13.049s13.049-5.854 13.049-13.049a8.158 8.158 0 0 1 16.316 0c0 7.195 5.854 13.049 13.049 13.049 7.195 0 13.048-5.854 13.048-13.049a8.158 8.158 0 0 1 16.316 0c-.001 16.191-13.173 29.364-29.365 29.364zm-119.154-52.892a8.158 8.158 0 0 1-8.158-8.158v-9.007a8.158 8.158 0 0 1 16.316 0v9.007a8.16 8.16 0 0 1-8.158 8.158zm195.896 0a8.158 8.158 0 0 1-8.158-8.158v-9.007a8.158 8.158 0 0 1 16.316 0v9.007a8.158 8.158 0 0 1-8.158 8.158z" fill="#394049"/><path d="M288.526 89.8a74.943 74.943 0 0 0-8.071 33.903c0 41.581 33.709 75.289 75.289 75.289 19.728 0 37.674-7.596 51.099-20.012-23.294-45.532-66.603-79.118-118.317-89.18z" opacity=".3" fill="#fff"/></svg>