<svg xmlns="http://www.w3.org/2000/svg" style="isolation:isolate" viewBox="265.536 162.544 442.466 46.08"><g stroke="#FFF" fill="#305A56"><path d="M574.224 195.232l3.984.432v2.4q-1.44.288-2.544.384-1.104.096-2.112.096-1.392 0-2.52-.168-1.128-.168-1.992-.6-.864-.432-1.44-1.224t-.816-2.04l-1.248-6.384q-.48-2.352-1.68-3.264-1.2-.912-3.6-.912h-1.488v5.64q0 2.808.096 5.64l3.984.432v2.4h-14.976v-2.4l3.888-.432q.096-2.976.096-5.976V175.48q0-3-.096-6.024l-3.888-.432v-2.4h14.976q5.424 0 8.424 2.112 3 2.112 3 5.808 0 1.152-.36 2.376t-1.2 2.352q-.84 1.128-2.208 2.016-1.368.888-3.384 1.416 2.304.672 3.792 2.232t2.016 4.152l1.296 6.144zm-15.456-13.92h2.112q1.824 0 3.096-.504t2.064-1.344q.792-.84 1.152-1.992.36-1.152.36-2.448 0-2.88-1.584-4.32-1.584-1.44-5.088-1.44h-2.016q-.096 2.976-.096 5.976v6.072z" fill-rule="evenodd"/><path d="M603.552 195.376l2.784.576v2.112l-8.832.48-.336-3.984q-1.824 2.064-3.792 3.144-1.968 1.08-4.272 1.08-1.536 0-2.76-.456-1.224-.456-2.112-1.488-.888-1.032-1.368-2.664-.48-1.632-.432-4.032l.192-12.24-2.64-.48v-1.92l8.64-.864.576.384-.24 6.816v7.392q0 3.168.816 4.392.816 1.224 2.112 1.224 1.248 0 2.568-.816t2.568-2.016l.192-14.112-2.64-.48V175.6l8.544-.96.576.384-.144 6.816v13.536z"/><path d="M618.384 170.704v6.384q1.44-1.392 3.072-2.16 1.632-.768 3.792-.768 2.016 0 3.768.768 1.752.768 3.024 2.304 1.272 1.536 1.992 3.816t.72 5.304q0 2.88-.792 5.184-.792 2.304-2.184 3.912-1.392 1.608-3.24 2.472-1.848.864-4.008.864-2.112 0-3.672-.696T618 196h-.144l-.288 2.784-8.544-.72v-2.112l2.928-.576q.048-1.824.048-3.84v-23.52l-3.6-.432v-1.92l9.504-2.16.672.384-.192 6.816zm.144 8.784V193.6q.96.672 1.968 1.08 1.008.408 2.016.408 2.208 0 3.744-2.088t1.536-6.504q0-4.416-1.32-6.504-1.32-2.088-3.624-2.088-1.104 0-2.184.432t-2.136 1.152z" fill-rule="evenodd"/><path d="M661.104 175.024v2.112l-3.072.528-7.728 21.024q-1.824 4.992-3.792 7.464-1.968 2.472-5.088 2.472-.96 0-1.848-.216-.888-.216-1.56-.648-.672-.432-1.08-1.056-.408-.624-.408-1.44.384-1.248 1.2-1.752t2.016-.504q.816 0 1.656.288t1.8 1.152l.816.72q1.008-.912 1.848-2.16.84-1.248 1.608-3.024l-9.024-22.272-2.736-.576v-2.112h13.104v2.112l-3.36.672 5.04 13.776 4.896-13.872-3.072-.576v-2.112h8.784z"/><path d="M481.488 166.624h15.072q5.664 0 8.304 2.16 2.64 2.16 2.64 5.712 0 1.152-.288 2.232-.288 1.08-.984 1.992-.696.912-1.8 1.584t-2.688 1.104q2.112.384 3.552 1.128 1.44.744 2.328 1.752.888 1.008 1.272 2.256.384 1.248.384 2.592 0 1.632-.6 3.216-.6 1.584-2.256 2.856-1.656 1.272-4.584 2.064t-7.584.792h-12.768v-2.4l3.888-.432q.096-2.976.096-5.976V175.48q0-3-.096-6.024l-3.888-.432v-2.4zm11.088 28.8h1.44q2.496 0 4.128-.432 1.632-.432 2.544-1.272.912-.84 1.272-2.016.36-1.176.36-2.664 0-3.312-1.776-4.776T494.4 182.8h-1.92v6.48q0 3.12.096 6.144zm2.352-26.16h-2.352q-.096 2.736-.096 5.472v5.52h1.776q3.456 0 5.04-1.416t1.584-4.152q0-2.736-1.416-4.08-1.416-1.344-4.536-1.344z" fill-rule="evenodd"/><path d="M535.392 175.024v2.112l-3.072.528-7.728 21.024q-1.824 4.992-3.792 7.464-1.968 2.472-5.088 2.472-.96 0-1.848-.216-.888-.216-1.56-.648-.672-.432-1.08-1.056-.408-.624-.408-1.44.384-1.248 1.2-1.752t2.016-.504q.816 0 1.656.288t1.8 1.152l.816.72q1.008-.912 1.848-2.16.84-1.248 1.608-3.024l-9.024-22.272-2.736-.576v-2.112h13.104v2.112l-3.36.672 5.04 13.776 4.896-13.872-3.072-.576v-2.112h8.784z"/><path d="M265.536 166.624h14.496q3.504 0 6.408 1.008 2.904 1.008 4.992 3t3.216 4.872q1.128 2.88 1.128 6.624 0 3.888-1.248 6.864t-3.48 4.992q-2.232 2.016-5.304 3.048t-6.672 1.032h-13.536v-2.4l3.888-.432q.096-2.976.096-6.072v-13.68q0-3-.096-6.024l-3.888-.432v-2.4zm11.088 28.8h1.728q2.256 0 4.128-.864 1.872-.864 3.192-2.52 1.32-1.656 2.04-4.104.72-2.448.72-5.616 0-3.168-.72-5.616-.72-2.448-2.064-4.104-1.344-1.656-3.192-2.496-1.848-.84-4.152-.84h-1.68q-.096 3.024-.096 6.072v13.872q0 3.144.096 6.216zm43.968-8.64h-14.736q.144 4.272 2.088 6.264 1.944 1.992 4.872 1.992 2.112 0 3.48-.936 1.368-.936 2.472-2.664l1.632.912q-.96 3.168-3.6 4.8-2.64 1.632-6.288 1.632-2.592 0-4.752-.816-2.16-.816-3.672-2.376t-2.352-3.84q-.84-2.28-.84-5.208 0-2.736.912-4.992t2.52-3.912q1.608-1.656 3.816-2.568 2.208-.912 4.752-.912 2.304 0 4.152.744 1.848.744 3.144 2.088t1.992 3.216q.696 1.872.696 4.08 0 1.344-.288 2.496zm-14.688-2.4h5.76q1.728 0 2.376-.72.648-.72.648-2.256 0-2.304-.96-3.576-.96-1.272-2.496-1.272-.816 0-1.68.384t-1.608 1.296q-.744.912-1.296 2.424t-.744 3.72z" fill-rule="evenodd"/><path d="M335.184 183.28l1.632.576q1.872.672 3.12 1.464 1.248.792 1.968 1.704.72.912 1.008 1.944.288 1.032.288 2.184 0 1.728-.72 3.12-.72 1.392-2.064 2.4t-3.216 1.56q-1.872.552-4.224.552-2.496 0-4.392-.576-1.896-.576-3.912-1.728v-5.52h3.696l.624 4.176q1.104.624 2.04.888.936.264 1.944.264 2.304 0 3.384-.768t1.08-2.352q0-.672-.216-1.176-.216-.504-.744-.936-.528-.432-1.416-.864-.888-.432-2.28-.96l-2.208-.864q-2.88-1.104-4.344-2.856-1.464-1.752-1.464-4.296 0-3.168 2.424-5.112t7.368-1.944q2.16 0 3.84.48 1.68.48 3.456 1.344l-.288 5.28h-3.648l-.72-3.984q-.624-.24-1.296-.432t-1.632-.192q-1.728 0-2.784.792-1.056.792-1.056 2.184 0 .528.192.984.192.456.72.888t1.464.864q.936.432 2.376.912zm17.568-13.104q-1.632 0-2.808-1.08t-1.176-2.76q0-1.68 1.176-2.736 1.176-1.056 2.808-1.056 1.68 0 2.832 1.056t1.152 2.736q0 1.68-1.152 2.76-1.152 1.08-2.832 1.08zm3.408 25.2l2.736.576v2.112h-12.288v-2.112l2.928-.576q.048-1.824.048-3.84v-5.952q0-1.968-.048-3.288-.048-1.32-.096-2.76l-3.216-.432v-1.824l9.312-3.12.72.48-.144 6.864v10.056q0 2.04.048 3.816z"/><path d="M384.816 174.64v3.504h-4.56q1.056 1.728 1.056 3.84 0 1.728-.672 3.168-.672 1.44-1.92 2.496-1.248 1.056-3 1.632-1.752.576-3.912.576-1.92 0-3.648-.528-.288.528-.456.912-.168.384-.168.912 0 1.824 2.64 1.824h5.184q4.992 0 7.104 1.704t2.112 4.584q0 1.728-.84 3.264-.84 1.536-2.52 2.664-1.68 1.128-4.296 1.8-2.616.672-6.12.672-5.232 0-7.512-1.2-2.28-1.2-2.28-3.504 0-1.488.96-2.688.96-1.2 3.408-2.4-1.392-.672-2.016-1.752-.624-1.08-.624-2.328 0-1.632.936-2.88t2.568-2.352q-1.824-1.056-2.88-2.736-1.056-1.68-1.056-3.84 0-1.728.672-3.168.672-1.44 1.92-2.472 1.248-1.032 3-1.608 1.752-.576 3.912-.576 3.936 0 6.48 1.872l5.808-1.872.72.48zm-13.008 13.056q1.824 0 2.784-1.512.96-1.512.96-4.2t-.96-4.176q-.96-1.488-2.784-1.488-1.824 0-2.76 1.488-.936 1.488-.936 4.176t.936 4.2q.936 1.512 2.76 1.512zm3.456 11.088h-5.232q-1.632 0-2.832-.288-.672 1.392-.672 2.784 0 2.256 1.392 3.12 1.392.864 3.696.864 3.696 0 5.616-1.128 1.92-1.128 1.92-2.808 0-.96-.816-1.752t-3.072-.792z" fill-rule="evenodd"/><path d="M411.888 195.376l2.736.576v2.112h-12.288v-2.112l2.928-.576q.048-1.776.048-3.792v-8.208q0-2.736-.576-4.008-.576-1.272-2.256-1.272-1.392 0-2.712.744-1.32.744-2.712 2.088v10.632q0 2.04.048 3.816l2.736.576v2.112h-12.288v-2.112l2.928-.576q.048-1.824.048-3.84v-8.04q0-.744-.024-1.392l-.048-1.248q-.024-.6-.072-1.32l-3.216-.432v-1.824l8.688-3.12.72.48.336 3.792q1.008-1.152 1.896-1.944.888-.792 1.8-1.32t1.896-.768q.984-.24 2.232-.24 3.456 0 5.28 2.04 1.824 2.04 1.824 6.408v9q0 2.04.048 3.768z"/><path d="M439.056 186.784H424.32q.144 4.272 2.088 6.264 1.944 1.992 4.872 1.992 2.112 0 3.48-.936 1.368-.936 2.472-2.664l1.632.912q-.96 3.168-3.6 4.8-2.64 1.632-6.288 1.632-2.592 0-4.752-.816-2.16-.816-3.672-2.376t-2.352-3.84q-.84-2.28-.84-5.208 0-2.736.912-4.992t2.52-3.912q1.608-1.656 3.816-2.568 2.208-.912 4.752-.912 2.304 0 4.152.744 1.848.744 3.144 2.088t1.992 3.216q.696 1.872.696 4.08 0 1.344-.288 2.496zm-14.688-2.4h5.76q1.728 0 2.376-.72.648-.72.648-2.256 0-2.304-.96-3.576-.96-1.272-2.496-1.272-.816 0-1.68.384t-1.608 1.296q-.744.912-1.296 2.424t-.744 3.72zm41.136 10.992l2.784.576v2.112l-8.736.48-.384-2.832q-1.44 1.488-3.12 2.28-1.68.792-3.888.792-2.016 0-3.768-.768-1.752-.768-3.024-2.304-1.272-1.536-1.992-3.816t-.72-5.304q0-2.88.792-5.184.792-2.304 2.184-3.912 1.392-1.608 3.24-2.472 1.848-.864 4.008-.864 2.016 0 3.552.672t2.784 1.92v-8.688l-3.84-.48v-1.92l9.648-2.16.672.384-.192 6.816v24.672zm-6.528-1.968V179.44q-1.008-.72-1.992-1.152-.984-.432-1.992-.432-1.056 0-2.016.528t-1.704 1.584q-.744 1.056-1.2 2.664-.456 1.608-.456 3.816 0 4.368 1.464 6.48t3.624 2.112q1.056 0 2.136-.456t2.136-1.176z" fill-rule="evenodd"/></g><g stroke="#FFF"><path d="M672.001 170.545l2 26 26 2-28-28z" fill="#9B1010"/><path d="M686.001 184.545l-12 12-2-26 14 14z" fill="#B71C1C"/><path d="M674.005 164.549c4.555-4.555 15.41-1.086 24.242 7.75 8.836 8.832 12.305 19.687 7.75 24.242s-15.41 1.086-24.242-7.75c-8.836-8.832-12.305-19.687-7.75-24.242z" fill="#C62828"/><path d="M704.001 173.545l-7-7-8-4-6 4 3 9 9 8 9 3 4-6-4-7z" fill="#E53935"/><path d="M683.001 166.545l6-4h-11l5 4zm-11 5l11-5 3 9-14-4zm23 12l-13.234 5.234 4.234-13.234 9 8zm9 3l-4 12-5-15 9 3zm4-6v11l-4-5 4-6z" fill="#FF5252"/></g></svg>