<?xml version="1.0" standalone="no"?><!-- Generator: Gravit.io --><svg xmlns="http://www.w3.org/2000/svg" xmlns:xlink="http://www.w3.org/1999/xlink" style="isolation:isolate" viewBox="0 0 512 512" width="512" height="512"><defs><clipPath id="_clipPath_2o5HJjmpRuNHP6wdZK5j0ULH9tABqJ3A"><rect width="512" height="512"/></clipPath></defs><g clip-path="url(#_clipPath_2o5HJjmpRuNHP6wdZK5j0ULH9tABqJ3A)"><path d=" M 81.745 275.314 L 242.87 436.454 C 245.37 438.954 248.77 440.367 252.31 440.367 L 424.876 440.367 C 436.769 440.367 442.73 425.99 434.316 417.591 C 385.038 368.266 272.803 255.985 272.803 255.985 C 272.803 255.985 385.053 143.734 434.316 94.409 C 442.731 86.01 436.769 71.633 424.876 71.633 L 252.309 71.633 C 248.769 71.633 245.369 73.046 242.869 75.545 L 169.743 148.671 L 81.744 236.655 C 71.079 247.337 71.079 264.632 81.745 275.314 Z " fill="rgb(255,206,0)"/><path d=" M 81.745 275.314 L 242.87 436.454 C 245.37 438.954 248.77 440.367 252.31 440.367 L 323.96 440.367 C 335.853 440.367 341.814 425.99 333.4 417.591 C 284.122 368.266 171.887 255.985 171.887 255.985 C 171.887 255.985 284.137 143.734 333.4 94.409 C 341.815 86.01 335.853 71.633 323.96 71.633 L 252.309 71.633 C 248.769 71.633 245.369 73.046 242.869 75.545 L 81.744 236.654 C 71.079 247.337 71.079 264.632 81.745 275.314 Z " fill="rgb(255,168,30)"/><path d=" M 124.793 275.314 L 285.918 436.454 C 288.418 438.954 291.818 440.367 295.358 440.367 L 337.339 440.367 C 333.799 440.367 330.399 438.954 327.899 436.454 L 162.116 270.656 C 151.45 259.974 151.45 251.994 162.116 241.313 L 327.899 75.546 C 330.399 73.046 333.799 71.634 337.339 71.634 L 295.358 71.634 C 291.818 71.634 288.418 73.047 285.918 75.546 L 124.793 236.655 C 114.127 247.337 114.127 264.632 124.793 275.314 Z " fill="rgb(255,153,0)"/></g></svg>