<?xml version="1.0" standalone="no"?><!-- Generator: Gravit.io --><svg xmlns="http://www.w3.org/2000/svg" xmlns:xlink="http://www.w3.org/1999/xlink" style="isolation:isolate" viewBox="265.536 162.544 442.466 46.08" ><g id="组"><path d=" M 574.224 195.232 L 578.208 195.664 L 578.208 198.064 L 578.208 198.064 Q 576.768 198.352 575.664 198.448 L 575.664 198.448 L 575.664 198.448 Q 574.56 198.544 573.552 198.544 L 573.552 198.544 L 573.552 198.544 Q 572.16 198.544 571.032 198.376 L 571.032 198.376 L 571.032 198.376 Q 569.904 198.208 569.04 197.776 L 569.04 197.776 L 569.04 197.776 Q 568.176 197.344 567.6 196.552 L 567.6 196.552 L 567.6 196.552 Q 567.024 195.76 566.784 194.512 L 566.784 194.512 L 565.536 188.128 L 565.536 188.128 Q 565.056 185.776 563.856 184.864 L 563.856 184.864 L 563.856 184.864 Q 562.656 183.952 560.256 183.952 L 560.256 183.952 L 558.768 183.952 L 558.768 183.952 Q 558.768 186.784 558.768 189.592 L 558.768 189.592 L 558.768 189.592 Q 558.768 192.4 558.864 195.232 L 558.864 195.232 L 562.848 195.664 L 562.848 198.064 L 547.872 198.064 L 547.872 195.664 L 551.76 195.232 L 551.76 195.232 Q 551.856 192.256 551.856 189.256 L 551.856 189.256 L 551.856 189.256 Q 551.856 186.256 551.856 183.184 L 551.856 183.184 L 551.856 181.504 L 551.856 181.504 Q 551.856 178.48 551.856 175.48 L 551.856 175.48 L 551.856 175.48 Q 551.856 172.48 551.76 169.456 L 551.76 169.456 L 547.872 169.024 L 547.872 166.624 L 562.848 166.624 L 562.848 166.624 Q 568.272 166.624 571.272 168.736 L 571.272 168.736 L 571.272 168.736 Q 574.272 170.848 574.272 174.544 L 574.272 174.544 L 574.272 174.544 Q 574.272 175.696 573.912 176.92 L 573.912 176.92 L 573.912 176.92 Q 573.552 178.144 572.712 179.272 L 572.712 179.272 L 572.712 179.272 Q 571.872 180.4 570.504 181.288 L 570.504 181.288 L 570.504 181.288 Q 569.136 182.176 567.12 182.704 L 567.12 182.704 L 567.12 182.704 Q 569.424 183.376 570.912 184.936 L 570.912 184.936 L 570.912 184.936 Q 572.4 186.496 572.928 189.088 L 572.928 189.088 L 574.224 195.232 Z  M 558.768 181.312 L 560.88 181.312 L 560.88 181.312 Q 562.704 181.312 563.976 180.808 L 563.976 180.808 L 563.976 180.808 Q 565.248 180.304 566.04 179.464 L 566.04 179.464 L 566.04 179.464 Q 566.832 178.624 567.192 177.472 L 567.192 177.472 L 567.192 177.472 Q 567.552 176.32 567.552 175.024 L 567.552 175.024 L 567.552 175.024 Q 567.552 172.144 565.968 170.704 L 565.968 170.704 L 565.968 170.704 Q 564.384 169.264 560.88 169.264 L 560.88 169.264 L 558.864 169.264 L 558.864 169.264 Q 558.768 172.24 558.768 175.24 L 558.768 175.24 L 558.768 175.24 Q 558.768 178.24 558.768 181.312 L 558.768 181.312 Z " fill-rule="evenodd" fill="rgb(48,90,86)"/><path d=" M 603.552 195.376 L 606.336 195.952 L 606.336 198.064 L 597.504 198.544 L 597.168 194.56 L 597.168 194.56 Q 595.344 196.624 593.376 197.704 L 593.376 197.704 L 593.376 197.704 Q 591.408 198.784 589.104 198.784 L 589.104 198.784 L 589.104 198.784 Q 587.568 198.784 586.344 198.328 L 586.344 198.328 L 586.344 198.328 Q 585.12 197.872 584.232 196.84 L 584.232 196.84 L 584.232 196.84 Q 583.344 195.808 582.864 194.176 L 582.864 194.176 L 582.864 194.176 Q 582.384 192.544 582.432 190.144 L 582.432 190.144 L 582.624 177.904 L 579.984 177.424 L 579.984 175.504 L 588.624 174.64 L 589.2 175.024 L 588.96 181.84 L 588.96 189.232 L 588.96 189.232 Q 588.96 192.4 589.776 193.624 L 589.776 193.624 L 589.776 193.624 Q 590.592 194.848 591.888 194.848 L 591.888 194.848 L 591.888 194.848 Q 593.136 194.848 594.456 194.032 L 594.456 194.032 L 594.456 194.032 Q 595.776 193.216 597.024 192.016 L 597.024 192.016 L 597.216 177.904 L 594.576 177.424 L 594.576 175.6 L 603.12 174.64 L 603.696 175.024 L 603.552 181.84 L 603.552 195.376 Z " fill="rgb(48,90,86)"/><path d=" M 618.384 170.704 L 618.384 177.088 L 618.384 177.088 Q 619.824 175.696 621.456 174.928 L 621.456 174.928 L 621.456 174.928 Q 623.088 174.16 625.248 174.16 L 625.248 174.16 L 625.248 174.16 Q 627.264 174.16 629.016 174.928 L 629.016 174.928 L 629.016 174.928 Q 630.768 175.696 632.04 177.232 L 632.04 177.232 L 632.04 177.232 Q 633.312 178.768 634.032 181.048 L 634.032 181.048 L 634.032 181.048 Q 634.752 183.328 634.752 186.352 L 634.752 186.352 L 634.752 186.352 Q 634.752 189.232 633.96 191.536 L 633.96 191.536 L 633.96 191.536 Q 633.168 193.84 631.776 195.448 L 631.776 195.448 L 631.776 195.448 Q 630.384 197.056 628.536 197.92 L 628.536 197.92 L 628.536 197.92 Q 626.688 198.784 624.528 198.784 L 624.528 198.784 L 624.528 198.784 Q 622.416 198.784 620.856 198.088 L 620.856 198.088 L 620.856 198.088 Q 619.296 197.392 618 196 L 618 196 L 617.856 196 L 617.568 198.784 L 609.024 198.064 L 609.024 195.952 L 611.952 195.376 L 611.952 195.376 Q 612 193.552 612 191.536 L 612 191.536 L 612 191.536 Q 612 189.52 612 187.984 L 612 187.984 L 612 168.016 L 608.4 167.584 L 608.4 165.664 L 617.904 163.504 L 618.576 163.888 L 618.384 170.704 Z  M 618.528 179.488 L 618.528 193.6 L 618.528 193.6 Q 619.488 194.272 620.496 194.68 L 620.496 194.68 L 620.496 194.68 Q 621.504 195.088 622.512 195.088 L 622.512 195.088 L 622.512 195.088 Q 624.72 195.088 626.256 193 L 626.256 193 L 626.256 193 Q 627.792 190.912 627.792 186.496 L 627.792 186.496 L 627.792 186.496 Q 627.792 182.08 626.472 179.992 L 626.472 179.992 L 626.472 179.992 Q 625.152 177.904 622.848 177.904 L 622.848 177.904 L 622.848 177.904 Q 621.744 177.904 620.664 178.336 L 620.664 178.336 L 620.664 178.336 Q 619.584 178.768 618.528 179.488 L 618.528 179.488 Z " fill-rule="evenodd" fill="rgb(48,90,86)"/><path d=" M 661.104 175.024 L 661.104 177.136 L 658.032 177.664 L 650.304 198.688 L 650.304 198.688 Q 648.48 203.68 646.512 206.152 L 646.512 206.152 L 646.512 206.152 Q 644.544 208.624 641.424 208.624 L 641.424 208.624 L 641.424 208.624 Q 640.464 208.624 639.576 208.408 L 639.576 208.408 L 639.576 208.408 Q 638.688 208.192 638.016 207.76 L 638.016 207.76 L 638.016 207.76 Q 637.344 207.328 636.936 206.704 L 636.936 206.704 L 636.936 206.704 Q 636.528 206.08 636.528 205.264 L 636.528 205.264 L 636.528 205.264 Q 636.912 204.016 637.728 203.512 L 637.728 203.512 L 637.728 203.512 Q 638.544 203.008 639.744 203.008 L 639.744 203.008 L 639.744 203.008 Q 640.56 203.008 641.4 203.296 L 641.4 203.296 L 641.4 203.296 Q 642.24 203.584 643.2 204.448 L 643.2 204.448 L 644.016 205.168 L 644.016 205.168 Q 645.024 204.256 645.864 203.008 L 645.864 203.008 L 645.864 203.008 Q 646.704 201.76 647.472 199.984 L 647.472 199.984 L 638.448 177.712 L 635.712 177.136 L 635.712 175.024 L 648.816 175.024 L 648.816 177.136 L 645.456 177.808 L 650.496 191.584 L 655.392 177.712 L 652.32 177.136 L 652.32 175.024 L 661.104 175.024 Z " fill="rgb(48,90,86)"/><path d=" M 481.488 166.624 L 496.56 166.624 L 496.56 166.624 Q 502.224 166.624 504.864 168.784 L 504.864 168.784 L 504.864 168.784 Q 507.504 170.944 507.504 174.496 L 507.504 174.496 L 507.504 174.496 Q 507.504 175.648 507.216 176.728 L 507.216 176.728 L 507.216 176.728 Q 506.928 177.808 506.232 178.72 L 506.232 178.72 L 506.232 178.72 Q 505.536 179.632 504.432 180.304 L 504.432 180.304 L 504.432 180.304 Q 503.328 180.976 501.744 181.408 L 501.744 181.408 L 501.744 181.408 Q 503.856 181.792 505.296 182.536 L 505.296 182.536 L 505.296 182.536 Q 506.736 183.28 507.624 184.288 L 507.624 184.288 L 507.624 184.288 Q 508.512 185.296 508.896 186.544 L 508.896 186.544 L 508.896 186.544 Q 509.28 187.792 509.28 189.136 L 509.28 189.136 L 509.28 189.136 Q 509.28 190.768 508.68 192.352 L 508.68 192.352 L 508.68 192.352 Q 508.08 193.936 506.424 195.208 L 506.424 195.208 L 506.424 195.208 Q 504.768 196.48 501.84 197.272 L 501.84 197.272 L 501.84 197.272 Q 498.912 198.064 494.256 198.064 L 494.256 198.064 L 481.488 198.064 L 481.488 195.664 L 485.376 195.232 L 485.376 195.232 Q 485.472 192.256 485.472 189.256 L 485.472 189.256 L 485.472 189.256 Q 485.472 186.256 485.472 183.184 L 485.472 183.184 L 485.472 181.504 L 485.472 181.504 Q 485.472 178.48 485.472 175.48 L 485.472 175.48 L 485.472 175.48 Q 485.472 172.48 485.376 169.456 L 485.376 169.456 L 481.488 169.024 L 481.488 166.624 Z  M 492.576 195.424 L 494.016 195.424 L 494.016 195.424 Q 496.512 195.424 498.144 194.992 L 498.144 194.992 L 498.144 194.992 Q 499.776 194.56 500.688 193.72 L 500.688 193.72 L 500.688 193.72 Q 501.6 192.88 501.96 191.704 L 501.96 191.704 L 501.96 191.704 Q 502.32 190.528 502.32 189.04 L 502.32 189.04 L 502.32 189.04 Q 502.32 185.728 500.544 184.264 L 500.544 184.264 L 500.544 184.264 Q 498.768 182.8 494.4 182.8 L 494.4 182.8 L 492.48 182.8 L 492.48 182.8 Q 492.48 186.16 492.48 189.28 L 492.48 189.28 L 492.48 189.28 Q 492.48 192.4 492.576 195.424 L 492.576 195.424 Z  M 494.928 169.264 L 492.576 169.264 L 492.576 169.264 Q 492.48 172 492.48 174.736 L 492.48 174.736 L 492.48 174.736 Q 492.48 177.472 492.48 180.256 L 492.48 180.256 L 494.256 180.256 L 494.256 180.256 Q 497.712 180.256 499.296 178.84 L 499.296 178.84 L 499.296 178.84 Q 500.88 177.424 500.88 174.688 L 500.88 174.688 L 500.88 174.688 Q 500.88 171.952 499.464 170.608 L 499.464 170.608 L 499.464 170.608 Q 498.048 169.264 494.928 169.264 L 494.928 169.264 Z " fill-rule="evenodd" fill="rgb(48,90,86)"/><path d=" M 535.392 175.024 L 535.392 177.136 L 532.32 177.664 L 524.592 198.688 L 524.592 198.688 Q 522.768 203.68 520.8 206.152 L 520.8 206.152 L 520.8 206.152 Q 518.832 208.624 515.712 208.624 L 515.712 208.624 L 515.712 208.624 Q 514.752 208.624 513.864 208.408 L 513.864 208.408 L 513.864 208.408 Q 512.976 208.192 512.304 207.76 L 512.304 207.76 L 512.304 207.76 Q 511.632 207.328 511.224 206.704 L 511.224 206.704 L 511.224 206.704 Q 510.816 206.08 510.816 205.264 L 510.816 205.264 L 510.816 205.264 Q 511.2 204.016 512.016 203.512 L 512.016 203.512 L 512.016 203.512 Q 512.832 203.008 514.032 203.008 L 514.032 203.008 L 514.032 203.008 Q 514.848 203.008 515.688 203.296 L 515.688 203.296 L 515.688 203.296 Q 516.528 203.584 517.488 204.448 L 517.488 204.448 L 518.304 205.168 L 518.304 205.168 Q 519.312 204.256 520.152 203.008 L 520.152 203.008 L 520.152 203.008 Q 520.992 201.76 521.76 199.984 L 521.76 199.984 L 512.736 177.712 L 510 177.136 L 510 175.024 L 523.104 175.024 L 523.104 177.136 L 519.744 177.808 L 524.784 191.584 L 529.68 177.712 L 526.608 177.136 L 526.608 175.024 L 535.392 175.024 Z " fill="rgb(48,90,86)"/><path d=" M 265.536 166.624 L 280.032 166.624 L 280.032 166.624 Q 283.536 166.624 286.44 167.632 L 286.44 167.632 L 286.44 167.632 Q 289.344 168.64 291.432 170.632 L 291.432 170.632 L 291.432 170.632 Q 293.52 172.624 294.648 175.504 L 294.648 175.504 L 294.648 175.504 Q 295.776 178.384 295.776 182.128 L 295.776 182.128 L 295.776 182.128 Q 295.776 186.016 294.528 188.992 L 294.528 188.992 L 294.528 188.992 Q 293.28 191.968 291.048 193.984 L 291.048 193.984 L 291.048 193.984 Q 288.816 196 285.744 197.032 L 285.744 197.032 L 285.744 197.032 Q 282.672 198.064 279.072 198.064 L 279.072 198.064 L 265.536 198.064 L 265.536 195.664 L 269.424 195.232 L 269.424 195.232 Q 269.52 192.256 269.52 189.16 L 269.52 189.16 L 269.52 189.16 Q 269.52 186.064 269.52 182.704 L 269.52 182.704 L 269.52 181.504 L 269.52 181.504 Q 269.52 178.48 269.52 175.48 L 269.52 175.48 L 269.52 175.48 Q 269.52 172.48 269.424 169.456 L 269.424 169.456 L 265.536 169.024 L 265.536 166.624 Z  M 276.624 195.424 L 278.352 195.424 L 278.352 195.424 Q 280.608 195.424 282.48 194.56 L 282.48 194.56 L 282.48 194.56 Q 284.352 193.696 285.672 192.04 L 285.672 192.04 L 285.672 192.04 Q 286.992 190.384 287.712 187.936 L 287.712 187.936 L 287.712 187.936 Q 288.432 185.488 288.432 182.32 L 288.432 182.32 L 288.432 182.32 Q 288.432 179.152 287.712 176.704 L 287.712 176.704 L 287.712 176.704 Q 286.992 174.256 285.648 172.6 L 285.648 172.6 L 285.648 172.6 Q 284.304 170.944 282.456 170.104 L 282.456 170.104 L 282.456 170.104 Q 280.608 169.264 278.304 169.264 L 278.304 169.264 L 276.624 169.264 L 276.624 169.264 Q 276.528 172.288 276.528 175.336 L 276.528 175.336 L 276.528 175.336 Q 276.528 178.384 276.528 181.504 L 276.528 181.504 L 276.528 182.704 L 276.528 182.704 Q 276.528 186.064 276.528 189.208 L 276.528 189.208 L 276.528 189.208 Q 276.528 192.352 276.624 195.424 L 276.624 195.424 Z " fill-rule="evenodd" fill="rgb(48,90,86)"/><path d=" M 320.592 186.784 L 305.856 186.784 L 305.856 186.784 Q 306 191.056 307.944 193.048 L 307.944 193.048 L 307.944 193.048 Q 309.888 195.04 312.816 195.04 L 312.816 195.04 L 312.816 195.04 Q 314.928 195.04 316.296 194.104 L 316.296 194.104 L 316.296 194.104 Q 317.664 193.168 318.768 191.44 L 318.768 191.44 L 320.4 192.352 L 320.4 192.352 Q 319.44 195.52 316.8 197.152 L 316.8 197.152 L 316.8 197.152 Q 314.16 198.784 310.512 198.784 L 310.512 198.784 L 310.512 198.784 Q 307.92 198.784 305.76 197.968 L 305.76 197.968 L 305.76 197.968 Q 303.6 197.152 302.088 195.592 L 302.088 195.592 L 302.088 195.592 Q 300.576 194.032 299.736 191.752 L 299.736 191.752 L 299.736 191.752 Q 298.896 189.472 298.896 186.544 L 298.896 186.544 L 298.896 186.544 Q 298.896 183.808 299.808 181.552 L 299.808 181.552 L 299.808 181.552 Q 300.72 179.296 302.328 177.64 L 302.328 177.64 L 302.328 177.64 Q 303.936 175.984 306.144 175.072 L 306.144 175.072 L 306.144 175.072 Q 308.352 174.16 310.896 174.16 L 310.896 174.16 L 310.896 174.16 Q 313.2 174.16 315.048 174.904 L 315.048 174.904 L 315.048 174.904 Q 316.896 175.648 318.192 176.992 L 318.192 176.992 L 318.192 176.992 Q 319.488 178.336 320.184 180.208 L 320.184 180.208 L 320.184 180.208 Q 320.88 182.08 320.88 184.288 L 320.88 184.288 L 320.88 184.288 Q 320.88 185.632 320.592 186.784 L 320.592 186.784 Z  M 305.904 184.384 L 311.664 184.384 L 311.664 184.384 Q 313.392 184.384 314.04 183.664 L 314.04 183.664 L 314.04 183.664 Q 314.688 182.944 314.688 181.408 L 314.688 181.408 L 314.688 181.408 Q 314.688 179.104 313.728 177.832 L 313.728 177.832 L 313.728 177.832 Q 312.768 176.56 311.232 176.56 L 311.232 176.56 L 311.232 176.56 Q 310.416 176.56 309.552 176.944 L 309.552 176.944 L 309.552 176.944 Q 308.688 177.328 307.944 178.24 L 307.944 178.24 L 307.944 178.24 Q 307.2 179.152 306.648 180.664 L 306.648 180.664 L 306.648 180.664 Q 306.096 182.176 305.904 184.384 L 305.904 184.384 Z " fill-rule="evenodd" fill="rgb(48,90,86)"/><path d=" M 335.184 183.28 L 336.816 183.856 L 336.816 183.856 Q 338.688 184.528 339.936 185.32 L 339.936 185.32 L 339.936 185.32 Q 341.184 186.112 341.904 187.024 L 341.904 187.024 L 341.904 187.024 Q 342.624 187.936 342.912 188.968 L 342.912 188.968 L 342.912 188.968 Q 343.2 190 343.2 191.152 L 343.2 191.152 L 343.2 191.152 Q 343.2 192.88 342.48 194.272 L 342.48 194.272 L 342.48 194.272 Q 341.76 195.664 340.416 196.672 L 340.416 196.672 L 340.416 196.672 Q 339.072 197.68 337.2 198.232 L 337.2 198.232 L 337.2 198.232 Q 335.328 198.784 332.976 198.784 L 332.976 198.784 L 332.976 198.784 Q 330.48 198.784 328.584 198.208 L 328.584 198.208 L 328.584 198.208 Q 326.688 197.632 324.672 196.48 L 324.672 196.48 L 324.672 190.96 L 328.368 190.96 L 328.992 195.136 L 328.992 195.136 Q 330.096 195.76 331.032 196.024 L 331.032 196.024 L 331.032 196.024 Q 331.968 196.288 332.976 196.288 L 332.976 196.288 L 332.976 196.288 Q 335.28 196.288 336.36 195.52 L 336.36 195.52 L 336.36 195.52 Q 337.44 194.752 337.44 193.168 L 337.44 193.168 L 337.44 193.168 Q 337.44 192.496 337.224 191.992 L 337.224 191.992 L 337.224 191.992 Q 337.008 191.488 336.48 191.056 L 336.48 191.056 L 336.48 191.056 Q 335.952 190.624 335.064 190.192 L 335.064 190.192 L 335.064 190.192 Q 334.176 189.76 332.784 189.232 L 332.784 189.232 L 330.576 188.368 L 330.576 188.368 Q 327.696 187.264 326.232 185.512 L 326.232 185.512 L 326.232 185.512 Q 324.768 183.76 324.768 181.216 L 324.768 181.216 L 324.768 181.216 Q 324.768 178.048 327.192 176.104 L 327.192 176.104 L 327.192 176.104 Q 329.616 174.16 334.56 174.16 L 334.56 174.16 L 334.56 174.16 Q 336.72 174.16 338.4 174.64 L 338.4 174.64 L 338.4 174.64 Q 340.08 175.12 341.856 175.984 L 341.856 175.984 L 341.568 181.264 L 337.92 181.264 L 337.2 177.28 L 337.2 177.28 Q 336.576 177.04 335.904 176.848 L 335.904 176.848 L 335.904 176.848 Q 335.232 176.656 334.272 176.656 L 334.272 176.656 L 334.272 176.656 Q 332.544 176.656 331.488 177.448 L 331.488 177.448 L 331.488 177.448 Q 330.432 178.24 330.432 179.632 L 330.432 179.632 L 330.432 179.632 Q 330.432 180.16 330.624 180.616 L 330.624 180.616 L 330.624 180.616 Q 330.816 181.072 331.344 181.504 L 331.344 181.504 L 331.344 181.504 Q 331.872 181.936 332.808 182.368 L 332.808 182.368 L 332.808 182.368 Q 333.744 182.8 335.184 183.28 L 335.184 183.28 Z " fill="rgb(48,90,86)"/><path d=" M 352.752 170.176 L 352.752 170.176 L 352.752 170.176 Q 351.12 170.176 349.944 169.096 L 349.944 169.096 L 349.944 169.096 Q 348.768 168.016 348.768 166.336 L 348.768 166.336 L 348.768 166.336 Q 348.768 164.656 349.944 163.6 L 349.944 163.6 L 349.944 163.6 Q 351.12 162.544 352.752 162.544 L 352.752 162.544 L 352.752 162.544 Q 354.432 162.544 355.584 163.6 L 355.584 163.6 L 355.584 163.6 Q 356.736 164.656 356.736 166.336 L 356.736 166.336 L 356.736 166.336 Q 356.736 168.016 355.584 169.096 L 355.584 169.096 L 355.584 169.096 Q 354.432 170.176 352.752 170.176 Z " fill="rgb(48,90,86)"/><path d=" M 356.16 195.376 L 358.896 195.952 L 358.896 198.064 L 346.608 198.064 L 346.608 195.952 L 349.536 195.376 L 349.536 195.376 Q 349.584 193.552 349.584 191.536 L 349.584 191.536 L 349.584 191.536 Q 349.584 189.52 349.584 187.984 L 349.584 187.984 L 349.584 185.584 L 349.584 185.584 Q 349.584 183.616 349.536 182.296 L 349.536 182.296 L 349.536 182.296 Q 349.488 180.976 349.44 179.536 L 349.44 179.536 L 346.224 179.104 L 346.224 177.28 L 355.536 174.16 L 356.256 174.64 L 356.112 181.504 L 356.112 187.984 L 356.112 187.984 Q 356.112 189.52 356.112 191.56 L 356.112 191.56 L 356.112 191.56 Q 356.112 193.6 356.16 195.376 L 356.16 195.376 Z " fill="rgb(48,90,86)"/><path d=" M 384.816 174.64 L 384.816 178.144 L 380.256 178.144 L 380.256 178.144 Q 381.312 179.872 381.312 181.984 L 381.312 181.984 L 381.312 181.984 Q 381.312 183.712 380.64 185.152 L 380.64 185.152 L 380.64 185.152 Q 379.968 186.592 378.72 187.648 L 378.72 187.648 L 378.72 187.648 Q 377.472 188.704 375.72 189.28 L 375.72 189.28 L 375.72 189.28 Q 373.968 189.856 371.808 189.856 L 371.808 189.856 L 371.808 189.856 Q 369.888 189.856 368.16 189.328 L 368.16 189.328 L 368.16 189.328 Q 367.872 189.856 367.704 190.24 L 367.704 190.24 L 367.704 190.24 Q 367.536 190.624 367.536 191.152 L 367.536 191.152 L 367.536 191.152 Q 367.536 192.976 370.176 192.976 L 370.176 192.976 L 375.36 192.976 L 375.36 192.976 Q 380.352 192.976 382.464 194.68 L 382.464 194.68 L 382.464 194.68 Q 384.576 196.384 384.576 199.264 L 384.576 199.264 L 384.576 199.264 Q 384.576 200.992 383.736 202.528 L 383.736 202.528 L 383.736 202.528 Q 382.896 204.064 381.216 205.192 L 381.216 205.192 L 381.216 205.192 Q 379.536 206.32 376.92 206.992 L 376.92 206.992 L 376.92 206.992 Q 374.304 207.664 370.8 207.664 L 370.8 207.664 L 370.8 207.664 Q 365.568 207.664 363.288 206.464 L 363.288 206.464 L 363.288 206.464 Q 361.008 205.264 361.008 202.96 L 361.008 202.96 L 361.008 202.96 Q 361.008 201.472 361.968 200.272 L 361.968 200.272 L 361.968 200.272 Q 362.928 199.072 365.376 197.872 L 365.376 197.872 L 365.376 197.872 Q 363.984 197.2 363.36 196.12 L 363.36 196.12 L 363.36 196.12 Q 362.736 195.04 362.736 193.792 L 362.736 193.792 L 362.736 193.792 Q 362.736 192.16 363.672 190.912 L 363.672 190.912 L 363.672 190.912 Q 364.608 189.664 366.24 188.56 L 366.24 188.56 L 366.24 188.56 Q 364.416 187.504 363.36 185.824 L 363.36 185.824 L 363.36 185.824 Q 362.304 184.144 362.304 181.984 L 362.304 181.984 L 362.304 181.984 Q 362.304 180.256 362.976 178.816 L 362.976 178.816 L 362.976 178.816 Q 363.648 177.376 364.896 176.344 L 364.896 176.344 L 364.896 176.344 Q 366.144 175.312 367.896 174.736 L 367.896 174.736 L 367.896 174.736 Q 369.648 174.16 371.808 174.16 L 371.808 174.16 L 371.808 174.16 Q 375.744 174.16 378.288 176.032 L 378.288 176.032 L 384.096 174.16 L 384.816 174.64 Z  M 371.808 187.696 L 371.808 187.696 L 371.808 187.696 Q 373.632 187.696 374.592 186.184 L 374.592 186.184 L 374.592 186.184 Q 375.552 184.672 375.552 181.984 L 375.552 181.984 L 375.552 181.984 Q 375.552 179.296 374.592 177.808 L 374.592 177.808 L 374.592 177.808 Q 373.632 176.32 371.808 176.32 L 371.808 176.32 L 371.808 176.32 Q 369.984 176.32 369.048 177.808 L 369.048 177.808 L 369.048 177.808 Q 368.112 179.296 368.112 181.984 L 368.112 181.984 L 368.112 181.984 Q 368.112 184.672 369.048 186.184 L 369.048 186.184 L 369.048 186.184 Q 369.984 187.696 371.808 187.696 Z  M 375.264 198.784 L 370.032 198.784 L 370.032 198.784 Q 368.4 198.784 367.2 198.496 L 367.2 198.496 L 367.2 198.496 Q 366.528 199.888 366.528 201.28 L 366.528 201.28 L 366.528 201.28 Q 366.528 203.536 367.92 204.4 L 367.92 204.4 L 367.92 204.4 Q 369.312 205.264 371.616 205.264 L 371.616 205.264 L 371.616 205.264 Q 375.312 205.264 377.232 204.136 L 377.232 204.136 L 377.232 204.136 Q 379.152 203.008 379.152 201.328 L 379.152 201.328 L 379.152 201.328 Q 379.152 200.368 378.336 199.576 L 378.336 199.576 L 378.336 199.576 Q 377.52 198.784 375.264 198.784 L 375.264 198.784 Z " fill-rule="evenodd" fill="rgb(48,90,86)"/><path d=" M 411.888 195.376 L 414.624 195.952 L 414.624 198.064 L 402.336 198.064 L 402.336 195.952 L 405.264 195.376 L 405.264 195.376 Q 405.312 193.6 405.312 191.584 L 405.312 191.584 L 405.312 191.584 Q 405.312 189.568 405.312 187.984 L 405.312 187.984 L 405.312 183.376 L 405.312 183.376 Q 405.312 180.64 404.736 179.368 L 404.736 179.368 L 404.736 179.368 Q 404.16 178.096 402.48 178.096 L 402.48 178.096 L 402.48 178.096 Q 401.088 178.096 399.768 178.84 L 399.768 178.84 L 399.768 178.84 Q 398.448 179.584 397.056 180.928 L 397.056 180.928 L 397.056 187.984 L 397.056 187.984 Q 397.056 189.52 397.056 191.56 L 397.056 191.56 L 397.056 191.56 Q 397.056 193.6 397.104 195.376 L 397.104 195.376 L 399.84 195.952 L 399.84 198.064 L 387.552 198.064 L 387.552 195.952 L 390.48 195.376 L 390.48 195.376 Q 390.528 193.552 390.528 191.536 L 390.528 191.536 L 390.528 191.536 Q 390.528 189.52 390.528 187.984 L 390.528 187.984 L 390.528 185.248 L 390.528 185.248 Q 390.528 184.24 390.528 183.496 L 390.528 183.496 L 390.528 183.496 Q 390.528 182.752 390.504 182.104 L 390.504 182.104 L 390.504 182.104 Q 390.48 181.456 390.456 180.856 L 390.456 180.856 L 390.456 180.856 Q 390.432 180.256 390.384 179.536 L 390.384 179.536 L 387.168 179.104 L 387.168 177.28 L 395.856 174.16 L 396.576 174.64 L 396.912 178.432 L 396.912 178.432 Q 397.92 177.28 398.808 176.488 L 398.808 176.488 L 398.808 176.488 Q 399.696 175.696 400.608 175.168 L 400.608 175.168 L 400.608 175.168 Q 401.52 174.64 402.504 174.4 L 402.504 174.4 L 402.504 174.4 Q 403.488 174.16 404.736 174.16 L 404.736 174.16 L 404.736 174.16 Q 408.192 174.16 410.016 176.2 L 410.016 176.2 L 410.016 176.2 Q 411.84 178.24 411.84 182.608 L 411.84 182.608 L 411.84 187.984 L 411.84 187.984 Q 411.84 189.568 411.84 191.608 L 411.84 191.608 L 411.84 191.608 Q 411.84 193.648 411.888 195.376 L 411.888 195.376 Z " fill="rgb(48,90,86)"/><path d=" M 439.056 186.784 L 424.32 186.784 L 424.32 186.784 Q 424.464 191.056 426.408 193.048 L 426.408 193.048 L 426.408 193.048 Q 428.352 195.04 431.28 195.04 L 431.28 195.04 L 431.28 195.04 Q 433.392 195.04 434.76 194.104 L 434.76 194.104 L 434.76 194.104 Q 436.128 193.168 437.232 191.44 L 437.232 191.44 L 438.864 192.352 L 438.864 192.352 Q 437.904 195.52 435.264 197.152 L 435.264 197.152 L 435.264 197.152 Q 432.624 198.784 428.976 198.784 L 428.976 198.784 L 428.976 198.784 Q 426.384 198.784 424.224 197.968 L 424.224 197.968 L 424.224 197.968 Q 422.064 197.152 420.552 195.592 L 420.552 195.592 L 420.552 195.592 Q 419.04 194.032 418.2 191.752 L 418.2 191.752 L 418.2 191.752 Q 417.36 189.472 417.36 186.544 L 417.36 186.544 L 417.36 186.544 Q 417.36 183.808 418.272 181.552 L 418.272 181.552 L 418.272 181.552 Q 419.184 179.296 420.792 177.64 L 420.792 177.64 L 420.792 177.64 Q 422.4 175.984 424.608 175.072 L 424.608 175.072 L 424.608 175.072 Q 426.816 174.16 429.36 174.16 L 429.36 174.16 L 429.36 174.16 Q 431.664 174.16 433.512 174.904 L 433.512 174.904 L 433.512 174.904 Q 435.36 175.648 436.656 176.992 L 436.656 176.992 L 436.656 176.992 Q 437.952 178.336 438.648 180.208 L 438.648 180.208 L 438.648 180.208 Q 439.344 182.08 439.344 184.288 L 439.344 184.288 L 439.344 184.288 Q 439.344 185.632 439.056 186.784 L 439.056 186.784 Z  M 424.368 184.384 L 430.128 184.384 L 430.128 184.384 Q 431.856 184.384 432.504 183.664 L 432.504 183.664 L 432.504 183.664 Q 433.152 182.944 433.152 181.408 L 433.152 181.408 L 433.152 181.408 Q 433.152 179.104 432.192 177.832 L 432.192 177.832 L 432.192 177.832 Q 431.232 176.56 429.696 176.56 L 429.696 176.56 L 429.696 176.56 Q 428.88 176.56 428.016 176.944 L 428.016 176.944 L 428.016 176.944 Q 427.152 177.328 426.408 178.24 L 426.408 178.24 L 426.408 178.24 Q 425.664 179.152 425.112 180.664 L 425.112 180.664 L 425.112 180.664 Q 424.56 182.176 424.368 184.384 L 424.368 184.384 Z " fill-rule="evenodd" fill="rgb(48,90,86)"/><path d=" M 465.504 195.376 L 468.288 195.952 L 468.288 198.064 L 459.552 198.544 L 459.168 195.712 L 459.168 195.712 Q 457.728 197.2 456.048 197.992 L 456.048 197.992 L 456.048 197.992 Q 454.368 198.784 452.16 198.784 L 452.16 198.784 L 452.16 198.784 Q 450.144 198.784 448.392 198.016 L 448.392 198.016 L 448.392 198.016 Q 446.64 197.248 445.368 195.712 L 445.368 195.712 L 445.368 195.712 Q 444.096 194.176 443.376 191.896 L 443.376 191.896 L 443.376 191.896 Q 442.656 189.616 442.656 186.592 L 442.656 186.592 L 442.656 186.592 Q 442.656 183.712 443.448 181.408 L 443.448 181.408 L 443.448 181.408 Q 444.24 179.104 445.632 177.496 L 445.632 177.496 L 445.632 177.496 Q 447.024 175.888 448.872 175.024 L 448.872 175.024 L 448.872 175.024 Q 450.72 174.16 452.88 174.16 L 452.88 174.16 L 452.88 174.16 Q 454.896 174.16 456.432 174.832 L 456.432 174.832 L 456.432 174.832 Q 457.968 175.504 459.216 176.752 L 459.216 176.752 L 459.216 168.064 L 455.376 167.584 L 455.376 165.664 L 465.024 163.504 L 465.696 163.888 L 465.504 170.704 L 465.504 195.376 Z  M 458.976 193.408 L 458.976 179.44 L 458.976 179.44 Q 457.968 178.72 456.984 178.288 L 456.984 178.288 L 456.984 178.288 Q 456 177.856 454.992 177.856 L 454.992 177.856 L 454.992 177.856 Q 453.936 177.856 452.976 178.384 L 452.976 178.384 L 452.976 178.384 Q 452.016 178.912 451.272 179.968 L 451.272 179.968 L 451.272 179.968 Q 450.528 181.024 450.072 182.632 L 450.072 182.632 L 450.072 182.632 Q 449.616 184.24 449.616 186.448 L 449.616 186.448 L 449.616 186.448 Q 449.616 190.816 451.08 192.928 L 451.08 192.928 L 451.08 192.928 Q 452.544 195.04 454.704 195.04 L 454.704 195.04 L 454.704 195.04 Q 455.76 195.04 456.84 194.584 L 456.84 194.584 L 456.84 194.584 Q 457.92 194.128 458.976 193.408 L 458.976 193.408 Z " fill-rule="evenodd" fill="rgb(48,90,86)"/></g><g id="组"><path d=" M 672.001 170.545 L 674.001 196.545 L 700.001 198.545 L 672.001 170.545 Z " fill="rgb(155,16,16)"/><path d=" M 686.001 184.545 L 674.001 196.545 L 672.001 170.545 L 686.001 184.545 Z " fill="rgb(183,28,28)"/><path d=" M 674.005 164.549 C 678.56 159.994 689.415 163.463 698.247 172.299 C 707.083 181.131 710.552 191.986 705.997 196.541 C 701.442 201.096 690.587 197.627 681.755 188.791 C 672.919 179.959 669.45 169.104 674.005 164.549 Z " fill="rgb(198,40,40)"/><path d=" M 704.001 173.545 L 697.001 166.545 L 689.001 162.545 L 683.001 166.545 L 686.001 175.545 L 695.001 183.545 L 704.001 186.545 L 708.001 180.545 L 704.001 173.545 Z " fill="rgb(229,57,53)"/><path d=" M 683.001 166.545 L 689.001 162.545 L 678.001 162.545 L 683.001 166.545 Z  M 672.001 171.545 L 683.001 166.545 L 686.001 175.545 L 672.001 171.545 Z  M 695.001 183.545 L 681.767 188.779 L 686.001 175.545 L 695.001 183.545 Z  M 704.001 186.545 L 700.001 198.545 L 695.001 183.545 L 704.001 186.545 Z  M 708.001 180.545 L 708.001 191.545 L 704.001 186.545 L 708.001 180.545 Z " fill="rgb(255,82,82)"/></g></svg>